ISO-10303-21;
HEADER;
FILE_DESCRIPTION (( 'STEP AP214' ),
    '1' );
FILE_NAME ('·É¿Ø.STEP',
    '2025-04-13T10:42:54',
    ( '' ),
    ( '' ),
    'SwSTEP 2.0',
    'SolidWorks 2024',
    '' );
FILE_SCHEMA (( 'AUTOMOTIVE_DESIGN' ));
ENDSEC;

DATA;
#1 = VECTOR ( 'NONE', #906, 1000.000000000000000 ) ;
#2 = CARTESIAN_POINT ( 'NONE',  ( 15.24999999999997868, 1.500000000000000000, 18.00000000000000355 ) ) ;
#3 =( GEOMETRIC_REPRESENTATION_CONTEXT ( 3 ) GLOBAL_UNCERTAINTY_ASSIGNED_CONTEXT ( ( #937 ) ) GLOBAL_UNIT_ASSIGNED_CONTEXT ( ( #943, #300, #867 ) ) REPRESENTATION_CONTEXT ( 'NONE', 'WORKASPACE' ) );
#4 = AXIS2_PLACEMENT_3D ( 'NONE', #952, #166, #638 ) ;
#5 = LINE ( 'NONE', #921, #344 ) ;
#6 = DIRECTION ( 'NONE',  ( -0.000000000000000000, -1.000000000000000000, -0.000000000000000000 ) ) ;
#7 = SHAPE_DEFINITION_REPRESENTATION ( #560, #534 ) ;
#8 = ORIENTED_EDGE ( 'NONE', *, *, #63, .T. ) ;
#9 = CARTESIAN_POINT ( 'NONE',  ( -15.25000000000000178, 1.500000000000000000, 13.25000000000000178 ) ) ;
#10 = DIRECTION ( 'NONE',  ( -0.000000000000000000, -1.000000000000000000, -0.000000000000000000 ) ) ;
#11 = EDGE_CURVE ( 'NONE', #1048, #511, #575, .T. ) ;
#12 = DIRECTION ( 'NONE',  ( -0.000000000000000000, -1.000000000000000000, -0.000000000000000000 ) ) ;
#13 = VERTEX_POINT ( 'NONE', #1036 ) ;
#14 = PRODUCT_DEFINITION_SHAPE ( 'NONE', 'NONE',  #1051 ) ;
#15 = DIRECTION ( 'NONE',  ( 0.000000000000000000, 0.000000000000000000, -1.000000000000000000 ) ) ;
#16 = CARTESIAN_POINT ( 'NONE',  ( -15.25000000000000178, 0.000000000000000000, 17.25000000000000000 ) ) ;
#17 = FACE_BOUND ( 'NONE', #735, .T. ) ;
#18 = EDGE_CURVE ( 'NONE', #933, #368, #323, .T. ) ;
#19 = ORIENTED_EDGE ( 'NONE', *, *, #803, .F. ) ;
#20 = AXIS2_PLACEMENT_3D ( 'NONE', #361, #704, #689 ) ;
#21 = AXIS2_PLACEMENT_3D ( 'NONE', #67, #402, #324 ) ;
#22 = CARTESIAN_POINT ( 'NONE',  ( 0.000000000000000000, 0.000000000000000000, 0.000000000000000000 ) ) ;
#23 = VECTOR ( 'NONE', #590, 1000.000000000000000 ) ;
#24 = CARTESIAN_POINT ( 'NONE',  ( -15.25000000000000000, 0.000000000000000000, -15.24999999999999645 ) ) ;
#25 = MECHANICAL_DESIGN_GEOMETRIC_PRESENTATION_REPRESENTATION (  '', ( #360 ), #588 ) ;
#26 = DIRECTION ( 'NONE',  ( 0.000000000000000000, 0.000000000000000000, 1.000000000000000000 ) ) ;
#27 = EDGE_CURVE ( 'NONE', #328, #13, #625, .T. ) ;
#28 = LINE ( 'NONE', #788, #129 ) ;
#29 = CARTESIAN_POINT ( 'NONE',  ( 18.00000000000000000, 1.500000000000000000, 15.24999999999998224 ) ) ;
#30 = EDGE_LOOP ( 'NONE', ( #389, #672, #1032, #477 ) ) ;
#31 = ORIENTED_EDGE ( 'NONE', *, *, #708, .T. ) ;
#32 = EDGE_CURVE ( 'NONE', #352, #367, #492, .T. ) ;
#33 = DIRECTION ( 'NONE',  ( -0.000000000000000000, -1.000000000000000000, -0.000000000000000000 ) ) ;
#34 = DIRECTION ( 'NONE',  ( 0.000000000000000000, 0.000000000000000000, -1.000000000000000000 ) ) ;
#35 = ORIENTED_EDGE ( 'NONE', *, *, #559, .F. ) ;
#36 = ORIENTED_EDGE ( 'NONE', *, *, #905, .T. ) ;
#37 = PRODUCT_DEFINITION ( 'æœ', '', #881, #697 ) ;
#38 = DIRECTION ( 'NONE',  ( -0.000000000000000000, -1.000000000000000000, -0.000000000000000000 ) ) ;
#39 = CARTESIAN_POINT ( 'NONE',  ( -15.24999999999997868, 1.500000000000000000, 18.00000000000000355 ) ) ;
#40 = CIRCLE ( 'NONE', #221, 1.500000000000000222 ) ;
#41 = CIRCLE ( 'NONE', #710, 2.000000000000000000 ) ;
#42 = UNCERTAINTY_MEASURE_WITH_UNIT (LENGTH_MEASURE( 1.000000000000000082E-05 ), #472, 'distance_accuracy_value', 'NONE');
#43 = ORIENTED_EDGE ( 'NONE', *, *, #573, .T. ) ;
#44 = VERTEX_POINT ( 'NONE', #366 ) ;
#45 = LINE ( 'NONE', #1020, #393 ) ;
#46 = DIRECTION ( 'NONE',  ( 0.000000000000000000, 0.000000000000000000, -1.000000000000000000 ) ) ;
#47 = EDGE_CURVE ( 'NONE', #558, #466, #882, .T. ) ;
#48 = ORIENTED_EDGE ( 'NONE', *, *, #338, .F. ) ;
#49 = CARTESIAN_POINT ( 'NONE',  ( -15.25000000000000178, 1.500000000000000000, -15.25000000000000355 ) ) ;
#50 = DIRECTION ( 'NONE',  ( -0.000000000000000000, -0.000000000000000000, 1.000000000000000000 ) ) ;
#51 = VERTEX_POINT ( 'NONE', #1006 ) ;
#52 = ORIENTED_EDGE ( 'NONE', *, *, #18, .F. ) ;
#53 = DIRECTION ( 'NONE',  ( 0.000000000000000000, 0.000000000000000000, 1.000000000000000000 ) ) ;
#54 = FACE_OUTER_BOUND ( 'NONE', #450, .T. ) ;
#55 = CIRCLE ( 'NONE', #235, 3.000000000000000444 ) ;
#56 = AXIS2_PLACEMENT_3D ( 'NONE', #532, #391, #869 ) ;
#57 = CARTESIAN_POINT ( 'NONE',  ( 0.000000000000000000, 8.000000000000000000, -1.500000000000000222 ) ) ;
#58 = EDGE_LOOP ( 'NONE', ( #232, #1015 ) ) ;
#59 = AXIS2_PLACEMENT_3D ( 'NONE', #1001, #276, #192 ) ;
#60 = SHAPE_REPRESENTATION_RELATIONSHIP ( 'NONE' , 'NONE' ,  #144, #1004 ) ;
#61 = ADVANCED_FACE ( 'NONE', ( #182 ), #601, .F. ) ;
#62 = VECTOR ( 'NONE', #400, 1000.000000000000000 ) ;
#63 = EDGE_CURVE ( 'NONE', #641, #318, #291, .T. ) ;
#64 = DIRECTION ( 'NONE',  ( 0.000000000000000000, 1.000000000000000000, 0.000000000000000000 ) ) ;
#65 = DIRECTION ( 'NONE',  ( 0.000000000000000000, 1.000000000000000000, 0.000000000000000000 ) ) ;
#66 = VERTEX_POINT ( 'NONE', #904 ) ;
#67 = CARTESIAN_POINT ( 'NONE',  ( 0.07531834689468094868, -3.798009887873354362, 0.000000000000000000 ) ) ;
#68 = ADVANCED_FACE ( 'NONE', ( #760, #17, #178, #196, #839 ), #500, .F. ) ;
#69 = CARTESIAN_POINT ( 'NONE',  ( -15.25000000000000178, 1.500000000000000000, -15.25000000000000355 ) ) ;
#70 = DIRECTION ( 'NONE',  ( 0.000000000000000000, 0.000000000000000000, 1.000000000000000000 ) ) ;
#71 = CARTESIAN_POINT ( 'NONE',  ( 0.000000000000000000, 0.000000000000000000, 0.000000000000000000 ) ) ;
#72 = DIRECTION ( 'NONE',  ( 0.000000000000000000, 0.000000000000000000, -1.000000000000000000 ) ) ;
#73 = ADVANCED_FACE ( 'NONE', ( #765 ), #989, .T. ) ;
#74 = DIRECTION ( 'NONE',  ( -0.000000000000000000, -1.000000000000000000, -0.000000000000000000 ) ) ;
#75 = CIRCLE ( 'NONE', #20, 2.000000000000000000 ) ;
#76 = AXIS2_PLACEMENT_3D ( 'NONE', #22, #737, #999 ) ;
#77 = ORIENTED_EDGE ( 'NONE', *, *, #357, .T. ) ;
#78 = AXIS2_PLACEMENT_3D ( 'NONE', #746, #109, #985 ) ;
#79 = AXIS2_PLACEMENT_3D ( 'NONE', #94, #514, #340 ) ;
#80 = CARTESIAN_POINT ( 'NONE',  ( -15.25000000000000178, 0.000000000000000000, -17.25000000000000000 ) ) ;
#81 = FACE_BOUND ( 'NONE', #950, .T. ) ;
#82 = ORIENTED_EDGE ( 'NONE', *, *, #573, .F. ) ;
#83 = EDGE_CURVE ( 'NONE', #496, #641, #445, .T. ) ;
#84 = PRODUCT_CONTEXT ( 'NONE', #365, 'mechanical' ) ;
#85 = CARTESIAN_POINT ( 'NONE',  ( 0.000000000000000000, 5.500000000000000000, 0.000000000000000000 ) ) ;
#86 =( REPRESENTATION_RELATIONSHIP ('NONE','NONE', #534, #564 ) REPRESENTATION_RELATIONSHIP_WITH_TRANSFORMATION ( #251 )SHAPE_REPRESENTATION_RELATIONSHIP( ) );
#87 = DIRECTION ( 'NONE',  ( 0.000000000000000000, 0.000000000000000000, 1.000000000000000000 ) ) ;
#88 = ORIENTED_EDGE ( 'NONE', *, *, #803, .T. ) ;
#89 = CARTESIAN_POINT ( 'NONE',  ( 18.00000000000000000, 1.500000000000000000, 15.24999999999998224 ) ) ;
#90 = LINE ( 'NONE', #600, #313 ) ;
#91 = CIRCLE ( 'NONE', #537, 2.749999999999999112 ) ;
#92 = DIRECTION ( 'NONE',  ( 0.000000000000000000, 0.000000000000000000, 1.000000000000000000 ) ) ;
#93 = DIRECTION ( 'NONE',  ( 0.000000000000000000, 0.000000000000000000, 1.000000000000000000 ) ) ;
#94 = CARTESIAN_POINT ( 'NONE',  ( -15.25000000000000000, 0.000000000000000000, 15.25000000000000355 ) ) ;
#95 = FACE_OUTER_BOUND ( 'NONE', #208, .T. ) ;
#96 = AXIS2_PLACEMENT_3D ( 'NONE', #213, #1027, #1012 ) ;
#97 = EDGE_CURVE ( 'NONE', #597, #396, #115, .T. ) ;
#98 = CIRCLE ( 'NONE', #694, 2.000000000000000000 ) ;
#99 = PRODUCT ( 'M3\X2\51cf970767f1\X0\', 'M3\X2\51cf970767f1\X0\', '', ( #84 ) ) ;
#100 = DIRECTION ( 'NONE',  ( 0.000000000000000000, 1.000000000000000000, -0.000000000000000000 ) ) ;
#101 = CARTESIAN_POINT ( 'NONE',  ( -15.24999999999997868, 0.000000000000000000, -17.99999999999999645 ) ) ;
#102 = VERTEX_POINT ( 'NONE', #510 ) ;
#103 = DIRECTION ( 'NONE',  ( 0.000000000000000000, 1.000000000000000000, 0.000000000000000000 ) ) ;
#104 = CARTESIAN_POINT ( 'NONE',  ( 3.673940397442060361E-16, 0.000000000000000000, 3.000000000000000444 ) ) ;
#105 = DIRECTION ( 'NONE',  ( -0.000000000000000000, -1.000000000000000000, -0.000000000000000000 ) ) ;
#106 = ORIENTED_EDGE ( 'NONE', *, *, #865, .T. ) ;
#107 = CARTESIAN_POINT ( 'NONE',  ( 15.25000000000000178, 0.000000000000000000, 15.25000000000000178 ) ) ;
#108 = CARTESIAN_POINT ( 'NONE',  ( -15.25000000000000178, 1.500000000000000000, 15.25000000000000178 ) ) ;
#109 = DIRECTION ( 'NONE',  ( 0.000000000000000000, 1.000000000000000000, 0.000000000000000000 ) ) ;
#110 = ORIENTED_EDGE ( 'NONE', *, *, #264, .T. ) ;
#111 = EDGE_LOOP ( 'NONE', ( #777, #938, #538, #776 ) ) ;
#112 = CIRCLE ( 'NONE', #255, 1.999999999999998224 ) ;
#113 = CIRCLE ( 'NONE', #96, 2.749999999999999112 ) ;
#114 = CARTESIAN_POINT ( 'NONE',  ( -15.25000000000000178, 0.000000000000000000, 13.25000000000000178 ) ) ;
#115 = LINE ( 'NONE', #101, #184 ) ;
#116 =( REPRESENTATION_RELATIONSHIP ('NONE','NONE', #534, #564 ) REPRESENTATION_RELATIONSHIP_WITH_TRANSFORMATION ( #901 )SHAPE_REPRESENTATION_RELATIONSHIP( ) );
#117 = ORIENTED_EDGE ( 'NONE', *, *, #959, .T. ) ;
#118 = EDGE_CURVE ( 'NONE', #634, #1045, #913, .T. ) ;
#119 = ORIENTED_EDGE ( 'NONE', *, *, #865, .F. ) ;
#120 = DIRECTION ( 'NONE',  ( 0.000000000000000000, 1.000000000000000000, 0.000000000000000000 ) ) ;
#121 = DIRECTION ( 'NONE',  ( 0.000000000000000000, 0.000000000000000000, 1.000000000000000000 ) ) ;
#122 = ORIENTED_EDGE ( 'NONE', *, *, #852, .T. ) ;
#123 = EDGE_CURVE ( 'NONE', #44, #703, #426, .T. ) ;
#124 = ORIENTED_EDGE ( 'NONE', *, *, #357, .F. ) ;
#125 = DIRECTION ( 'NONE',  ( -0.000000000000000000, -1.000000000000000000, -0.000000000000000000 ) ) ;
#126 = CARTESIAN_POINT ( 'NONE',  ( 15.25000000000000355, 1.500000000000000000, -15.25000000000000000 ) ) ;
#127 = ORIENTED_EDGE ( 'NONE', *, *, #217, .T. ) ;
#128 = ORIENTED_EDGE ( 'NONE', *, *, #688, .F. ) ;
#129 = VECTOR ( 'NONE', #38, 1000.000000000000000 ) ;
#130 = AXIS2_PLACEMENT_3D ( 'NONE', #494, #153, #875 ) ;
#131 = EDGE_CURVE ( 'NONE', #1045, #738, #827, .T. ) ;
#132 = PLANE ( 'NONE',  #1009 ) ;
#133 = CIRCLE ( 'NONE', #311, 3.000000000000000444 ) ;
#134 = DIRECTION ( 'NONE',  ( -0.000000000000000000, -1.000000000000000000, -0.000000000000000000 ) ) ;
#135 = CIRCLE ( 'NONE', #611, 2.749999999999999112 ) ;
#136 = ORIENTED_EDGE ( 'NONE', *, *, #732, .T. ) ;
#137 = ORIENTED_EDGE ( 'NONE', *, *, #27, .T. ) ;
#138 = DIRECTION ( 'NONE',  ( 0.000000000000000000, 0.000000000000000000, 1.000000000000000000 ) ) ;
#139 = LINE ( 'NONE', #310, #941 ) ;
#140 = DIRECTION ( 'NONE',  ( 0.000000000000000000, 0.000000000000000000, -1.000000000000000000 ) ) ;
#141 = EDGE_LOOP ( 'NONE', ( #762, #1022, #462, #416 ) ) ;
#142 = VERTEX_POINT ( 'NONE', #667 ) ;
#143 = CARTESIAN_POINT ( 'NONE',  ( 28.35241828770809747, -3.798009887873354362, -32.57154615515283069 ) ) ;
#144 = SHAPE_REPRESENTATION ( '\X2\98de63a7\X0\', ( #709 ), #608 ) ;
#145 = LINE ( 'NONE', #370, #992 ) ;
#146 = DIRECTION ( 'NONE',  ( 0.000000000000000000, 0.000000000000000000, -1.000000000000000000 ) ) ;
#147 = DIRECTION ( 'NONE',  ( 1.000000000000000000, 0.000000000000000000, 0.000000000000000000 ) ) ;
#148 = DIRECTION ( 'NONE',  ( 0.000000000000000000, 0.000000000000000000, -1.000000000000000000 ) ) ;
#149 = AXIS2_PLACEMENT_3D ( 'NONE', #848, #120, #1016 ) ;
#150 = AXIS2_PLACEMENT_3D ( 'NONE', #501, #993, #594 ) ;
#151 = CARTESIAN_POINT ( 'NONE',  ( -18.00000000000000000, 0.000000000000000000, 15.24999999999998401 ) ) ;
#152 = VERTEX_POINT ( 'NONE', #834 ) ;
#153 = DIRECTION ( 'NONE',  ( -0.000000000000000000, -1.000000000000000000, -0.000000000000000000 ) ) ;
#154 = AXIS2_PLACEMENT_3D ( 'NONE', #446, #430, #434 ) ;
#155 = EDGE_CURVE ( 'NONE', #581, #305, #1029, .T. ) ;
#156 = FACE_BOUND ( 'NONE', #609, .T. ) ;
#157 = PRODUCT_DEFINITION_SHAPE ( 'NONE', 'NONE',  #1052 ) ;
#158 = CARTESIAN_POINT ( 'NONE',  ( 18.00000000000000000, 1.500000000000000000, -15.24999999999997691 ) ) ;
#159 = VERTEX_POINT ( 'NONE', #997 ) ;
#160 = CONTEXT_DEPENDENT_SHAPE_REPRESENTATION ( #116, #14 ) ;
#161 = DIRECTION ( 'NONE',  ( 0.000000000000000000, 0.000000000000000000, -1.000000000000000000 ) ) ;
#162 = CARTESIAN_POINT ( 'NONE',  ( 0.000000000000000000, 6.999999999999999112, 0.000000000000000000 ) ) ;
#163 = ORIENTED_EDGE ( 'NONE', *, *, #632, .T. ) ;
#164 = FACE_OUTER_BOUND ( 'NONE', #614, .T. ) ;
#165 = EDGE_CURVE ( 'NONE', #199, #945, #671, .T. ) ;
#166 = DIRECTION ( 'NONE',  ( 0.000000000000000000, 1.000000000000000000, 0.000000000000000000 ) ) ;
#167 = CIRCLE ( 'NONE', #705, 2.749999999999999112 ) ;
#168 = AXIS2_PLACEMENT_3D ( 'NONE', #719, #857, #398 ) ;
#169 = ORIENTED_EDGE ( 'NONE', *, *, #27, .F. ) ;
#170 = APPLICATION_PROTOCOL_DEFINITION ( 'draft international standard', 'automotive_design', 1998, #773 ) ;
#171 = AXIS2_PLACEMENT_3D ( 'NONE', #447, #828, #425 ) ;
#172 = CYLINDRICAL_SURFACE ( 'NONE', #130, 3.000000000000000444 ) ;
#173 = CARTESIAN_POINT ( 'NONE',  ( -15.25000000000000000, 0.000000000000000000, -17.99999999999999645 ) ) ;
#174 = EDGE_LOOP ( 'NONE', ( #443, #253, #586, #163 ) ) ;
#175 = APPLICATION_CONTEXT ( 'automotive_design' ) ;
#176 = CARTESIAN_POINT ( 'NONE',  ( 0.000000000000000000, 5.500000000000000000, -3.000000000000000444 ) ) ;
#177 = CARTESIAN_POINT ( 'NONE',  ( 15.24999999999997868, 1.500000000000000000, 18.00000000000000355 ) ) ;
#178 = FACE_BOUND ( 'NONE', #886, .T. ) ;
#179 = EDGE_CURVE ( 'NONE', #305, #581, #504, .T. ) ;
#180 = FACE_BOUND ( 'NONE', #58, .T. ) ;
#181 = VECTOR ( 'NONE', #967, 1000.000000000000000 ) ;
#182 = FACE_OUTER_BOUND ( 'NONE', #528, .T. ) ;
#183 = ORIENTED_EDGE ( 'NONE', *, *, #384, .F. ) ;
#184 = VECTOR ( 'NONE', #355, 1000.000000000000000 ) ;
#185 = CARTESIAN_POINT ( 'NONE',  ( -15.24999999999997868, 1.500000000000000000, -17.99999999999999645 ) ) ;
#186 = DIRECTION ( 'NONE',  ( 0.000000000000000000, 1.000000000000000000, 0.000000000000000000 ) ) ;
#187 = CARTESIAN_POINT ( 'NONE',  ( 15.25000000000000178, 1.500000000000000000, 13.25000000000000000 ) ) ;
#188 = ORIENTED_EDGE ( 'NONE', *, *, #247, .F. ) ;
#189 = ADVANCED_FACE ( 'NONE', ( #518 ), #754, .F. ) ;
#190 = CARTESIAN_POINT ( 'NONE',  ( 3.673940397442060361E-16, 6.999999999999999112, 3.000000000000000444 ) ) ;
#191 = DIRECTION ( 'NONE',  ( -0.000000000000000000, -1.000000000000000000, -0.000000000000000000 ) ) ;
#192 = DIRECTION ( 'NONE',  ( 0.000000000000000000, 0.000000000000000000, 1.000000000000000000 ) ) ;
#193 = ORIENTED_EDGE ( 'NONE', *, *, #11, .F. ) ;
#194 = CARTESIAN_POINT ( 'NONE',  ( -15.25000000000000000, 1.500000000000000000, -17.99999999999999645 ) ) ;
#195 = EDGE_CURVE ( 'NONE', #738, #1045, #133, .T. ) ;
#196 = FACE_BOUND ( 'NONE', #470, .T. ) ;
#197 = APPLICATION_CONTEXT ( 'automotive_design' ) ;
#198 = ORIENTED_EDGE ( 'NONE', *, *, #384, .T. ) ;
#199 = VERTEX_POINT ( 'NONE', #57 ) ;
#200 = CIRCLE ( 'NONE', #811, 2.000000000000000000 ) ;
#201 = CARTESIAN_POINT ( 'NONE',  ( -15.25000000000000178, 1.500000000000000000, -17.25000000000000000 ) ) ;
#202 = AXIS2_PLACEMENT_3D ( 'NONE', #918, #186, #995 ) ;
#203 = FILL_AREA_STYLE_COLOUR ( '', #591 ) ;
#204 = ORIENTED_EDGE ( 'NONE', *, *, #559, .T. ) ;
#205 = ORIENTED_EDGE ( 'NONE', *, *, #808, .F. ) ;
#206 = DIRECTION ( 'NONE',  ( -0.000000000000000000, -1.000000000000000000, -0.000000000000000000 ) ) ;
#207 = CARTESIAN_POINT ( 'NONE',  ( -15.25000000000000178, 1.500000000000000000, 15.25000000000000178 ) ) ;
#208 = EDGE_LOOP ( 'NONE', ( #205, #204, #459, #657 ) ) ;
#209 = ORIENTED_EDGE ( 'NONE', *, *, #404, .T. ) ;
#210 = ADVANCED_FACE ( 'NONE', ( #621 ), #690, .F. ) ;
#211 = CARTESIAN_POINT ( 'NONE',  ( 3.673940397442060361E-16, 8.000000000000000000, 3.000000000000000444 ) ) ;
#212 = MANIFOLD_SOLID_BREP ( 'Í¹Ì¨-À­Éì4', #977 ) ;
#213 = CARTESIAN_POINT ( 'NONE',  ( -15.25000000000000000, 1.500000000000000000, 15.25000000000000355 ) ) ;
#214 = ORIENTED_EDGE ( 'NONE', *, *, #1017, .T. ) ;
#215 = DIRECTION ( 'NONE',  ( 0.000000000000000000, 0.000000000000000000, 1.000000000000000000 ) ) ;
#216 = AXIS2_PLACEMENT_3D ( 'NONE', #571, #252, #550 ) ;
#217 = EDGE_CURVE ( 'NONE', #318, #868, #278, .T. ) ;
#218 = AXIS2_PLACEMENT_3D ( 'NONE', #143, #138, #954 ) ;
#219 = DIRECTION ( 'NONE',  ( 0.000000000000000000, 1.000000000000000000, 0.000000000000000000 ) ) ;
#220 = AXIS2_PLACEMENT_3D ( 'NONE', #1021, #371, #140 ) ;
#221 = AXIS2_PLACEMENT_3D ( 'NONE', #238, #557, #70 ) ;
#222 = VERTEX_POINT ( 'NONE', #712 ) ;
#223 = DIRECTION ( 'NONE',  ( 1.000000000000000000, 0.000000000000000000, 0.000000000000000000 ) ) ;
#224 = DIRECTION ( 'NONE',  ( 0.000000000000000000, 1.000000000000000000, 0.000000000000000000 ) ) ;
#225 = DIRECTION ( 'NONE',  ( 0.000000000000000000, 1.000000000000000000, 0.000000000000000000 ) ) ;
#226 = ORIENTED_EDGE ( 'NONE', *, *, #554, .F. ) ;
#227 = ORIENTED_EDGE ( 'NONE', *, *, #838, .T. ) ;
#228 = DIRECTION ( 'NONE',  ( -0.000000000000000000, -1.000000000000000000, -0.000000000000000000 ) ) ;
#229 = FACE_BOUND ( 'NONE', #958, .T. ) ;
#230 = ADVANCED_FACE ( 'NONE', ( #616 ), #312, .F. ) ;
#231 = ORIENTED_EDGE ( 'NONE', *, *, #297, .F. ) ;
#232 = ORIENTED_EDGE ( 'NONE', *, *, #346, .T. ) ;
#233 = CARTESIAN_POINT ( 'NONE',  ( 0.000000000000000000, 0.000000000000000000, -3.000000000000000444 ) ) ;
#234 = PRODUCT_DEFINITION_CONTEXT ( 'detailed design', #175, 'design' ) ;
#235 = AXIS2_PLACEMENT_3D ( 'NONE', #951, #468, #711 ) ;
#236 = CARTESIAN_POINT ( 'NONE',  ( 15.25000000000000178, 1.500000000000000000, 15.25000000000000178 ) ) ;
#237 = CIRCLE ( 'NONE', #942, 2.000000000000000000 ) ;
#238 = CARTESIAN_POINT ( 'NONE',  ( 0.000000000000000000, 8.000000000000000000, 0.000000000000000000 ) ) ;
#239 = CARTESIAN_POINT ( 'NONE',  ( 0.000000000000000000, 6.999999999999999112, 0.000000000000000000 ) ) ;
#240 = AXIS2_PLACEMENT_3D ( 'NONE', #844, #440, #436 ) ;
#241 = APPLICATION_PROTOCOL_DEFINITION ( 'draft international standard', 'automotive_design', 1998, #365 ) ;
#242 = CIRCLE ( 'NONE', #154, 2.000000000000000000 ) ;
#243 = CARTESIAN_POINT ( 'NONE',  ( 0.000000000000000000, 6.999999999999999112, 0.000000000000000000 ) ) ;
#244 = LINE ( 'NONE', #1039, #62 ) ;
#245 = ORIENTED_EDGE ( 'NONE', *, *, #990, .F. ) ;
#246 = CONTEXT_DEPENDENT_SHAPE_REPRESENTATION ( #308, #757 ) ;
#247 = EDGE_CURVE ( 'NONE', #794, #199, #475, .T. ) ;
#248 = FACE_OUTER_BOUND ( 'NONE', #991, .T. ) ;
#249 = PLANE ( 'NONE',  #978 ) ;
#250 = DIRECTION ( 'NONE',  ( -0.000000000000000000, -1.000000000000000000, -0.000000000000000000 ) ) ;
#251 = ITEM_DEFINED_TRANSFORMATION ( 'NONE', 'NONE', #218,  #709 ) ;
#252 = DIRECTION ( 'NONE',  ( 0.000000000000000000, 1.000000000000000000, 0.000000000000000000 ) ) ;
#253 = ORIENTED_EDGE ( 'NONE', *, *, #451, .F. ) ;
#254 = FACE_BOUND ( 'NONE', #549, .T. ) ;
#255 = AXIS2_PLACEMENT_3D ( 'NONE', #627, #224, #455 ) ;
#256 = AXIS2_PLACEMENT_3D ( 'NONE', #422, #339, #273 ) ;
#257 = ORIENTED_EDGE ( 'NONE', *, *, #743, .T. ) ;
#258 = CIRCLE ( 'NONE', #845, 2.000000000000000000 ) ;
#259 = APPLICATION_CONTEXT ( 'automotive_design' ) ;
#260 = AXIS2_PLACEMENT_3D ( 'NONE', #424, #805, #476 ) ;
#261 = CARTESIAN_POINT ( 'NONE',  ( 0.000000000000000000, 6.999999999999999112, 0.000000000000000000 ) ) ;
#262 = EDGE_CURVE ( 'NONE', #66, #933, #482, .T. ) ;
#263 = LINE ( 'NONE', #509, #427 ) ;
#264 = EDGE_CURVE ( 'NONE', #933, #51, #113, .T. ) ;
#265 = VERTEX_POINT ( 'NONE', #453 ) ;
#266 = ITEM_DEFINED_TRANSFORMATION ( 'NONE', 'NONE', #168,  #709 ) ;
#267 = DIRECTION ( 'NONE',  ( -0.000000000000000000, -1.000000000000000000, -0.000000000000000000 ) ) ;
#268 =( NAMED_UNIT ( * ) SI_UNIT ( $, .STERADIAN. ) SOLID_ANGLE_UNIT ( ) );
#269 = CARTESIAN_POINT ( 'NONE',  ( 0.000000000000000000, 5.500000000000000000, 0.000000000000000000 ) ) ;
#270 = EDGE_CURVE ( 'NONE', #750, #713, #258, .T. ) ;
#271 = PRODUCT ( '\X2\98de63a7\X0\', '\X2\98de63a7\X0\', '', ( #820 ) ) ;
#272 = ORIENTED_EDGE ( 'NONE', *, *, #654, .T. ) ;
#273 = DIRECTION ( 'NONE',  ( 0.000000000000000000, 0.000000000000000000, 1.000000000000000000 ) ) ;
#274 = SURFACE_STYLE_USAGE ( .BOTH. , #903 ) ;
#275 = VECTOR ( 'NONE', #853, 1000.000000000000000 ) ;
#276 = DIRECTION ( 'NONE',  ( 0.000000000000000000, 1.000000000000000000, 0.000000000000000000 ) ) ;
#277 = ORIENTED_EDGE ( 'NONE', *, *, #666, .F. ) ;
#278 = CIRCLE ( 'NONE', #220, 2.749999999999999112 ) ;
#279 = CYLINDRICAL_SURFACE ( 'NONE', #1011, 3.000000000000000444 ) ;
#280 = AXIS2_PLACEMENT_3D ( 'NONE', #1044, #633, #889 ) ;
#281 = PRODUCT_DEFINITION_SHAPE ( 'NONE', 'NONE',  #1053 ) ;
#282 = DIRECTION ( 'NONE',  ( 0.000000000000000000, 0.000000000000000000, -1.000000000000000000 ) ) ;
#283 = DIRECTION ( 'NONE',  ( 0.000000000000000000, 1.000000000000000000, 0.000000000000000000 ) ) ;
#284 = EDGE_LOOP ( 'NONE', ( #193, #245 ) ) ;
#285 = DIRECTION ( 'NONE',  ( 0.000000000000000000, 0.000000000000000000, 1.000000000000000000 ) ) ;
#286 = ADVANCED_FACE ( 'NONE', ( #548 ), #854, .F. ) ;
#287 = CARTESIAN_POINT ( 'NONE',  ( 15.25000000000000355, 1.500000000000000000, -17.24999999999999645 ) ) ;
#288 = DIRECTION ( 'NONE',  ( 0.000000000000000000, 0.000000000000000000, -1.000000000000000000 ) ) ;
#289 = ORIENTED_EDGE ( 'NONE', *, *, #972, .T. ) ;
#290 = CARTESIAN_POINT ( 'NONE',  ( 15.25000000000000355, 1.500000000000000000, -13.25000000000000178 ) ) ;
#291 = LINE ( 'NONE', #29, #23 ) ;
#292 = ORIENTED_EDGE ( 'NONE', *, *, #990, .T. ) ;
#293 = DIRECTION ( 'NONE',  ( 0.000000000000000000, 0.000000000000000000, -1.000000000000000000 ) ) ;
#294 = AXIS2_PLACEMENT_3D ( 'NONE', #239, #649, #894 ) ;
#295 = LINE ( 'NONE', #620, #659 ) ;
#296 = CARTESIAN_POINT ( 'NONE',  ( 15.25000000000000178, 1.500000000000000000, 15.25000000000000178 ) ) ;
#297 = EDGE_CURVE ( 'NONE', #13, #581, #536, .T. ) ;
#298 = ORIENTED_EDGE ( 'NONE', *, *, #708, .F. ) ;
#299 = FACE_OUTER_BOUND ( 'NONE', #174, .T. ) ;
#300 =( NAMED_UNIT ( * ) PLANE_ANGLE_UNIT ( ) SI_UNIT ( $, .RADIAN. ) );
#301 = UNCERTAINTY_MEASURE_WITH_UNIT (LENGTH_MEASURE( 1.000000000000000082E-05 ), #1000, 'distance_accuracy_value', 'NONE');
#302 = ORIENTED_EDGE ( 'NONE', *, *, #715, .T. ) ;
#303 = CARTESIAN_POINT ( 'NONE',  ( 18.00000000000000000, 1.500000000000000000, 15.24999999999998224 ) ) ;
#304 = CARTESIAN_POINT ( 'NONE',  ( 2.449293598294706414E-16, 5.500000000000000000, 2.000000000000000000 ) ) ;
#305 = VERTEX_POINT ( 'NONE', #304 ) ;
#306 = ADVANCED_FACE ( 'NONE', ( #469 ), #380, .T. ) ;
#307 = AXIS2_PLACEMENT_3D ( 'NONE', #464, #206, #925 ) ;
#308 =( REPRESENTATION_RELATIONSHIP ('NONE','NONE', #534, #564 ) REPRESENTATION_RELATIONSHIP_WITH_TRANSFORMATION ( #724 )SHAPE_REPRESENTATION_RELATIONSHIP( ) );
#309 =( GEOMETRIC_REPRESENTATION_CONTEXT ( 3 ) GLOBAL_UNCERTAINTY_ASSIGNED_CONTEXT ( ( #42 ) ) GLOBAL_UNIT_ASSIGNED_CONTEXT ( ( #472, #714, #618 ) ) REPRESENTATION_CONTEXT ( 'NONE', 'WORKASPACE' ) );
#310 = CARTESIAN_POINT ( 'NONE',  ( -18.00000000000000000, 0.000000000000000000, 15.24999999999998224 ) ) ;
#311 = AXIS2_PLACEMENT_3D ( 'NONE', #1018, #525, #121 ) ;
#312 = PLANE ( 'NONE',  #864 ) ;
#313 = VECTOR ( 'NONE', #191, 1000.000000000000000 ) ;
#314 = ORIENTED_EDGE ( 'NONE', *, *, #131, .F. ) ;
#315 = ADVANCED_FACE ( 'NONE', ( #786 ), #702, .T. ) ;
#316 = DIRECTION ( 'NONE',  ( 0.000000000000000000, 0.000000000000000000, -1.000000000000000000 ) ) ;
#317 = CARTESIAN_POINT ( 'NONE',  ( 2.449293598294706414E-16, 6.999999999999999112, 2.000000000000000000 ) ) ;
#318 = VERTEX_POINT ( 'NONE', #158 ) ;
#319 = FACE_OUTER_BOUND ( 'NONE', #541, .T. ) ;
#320 = ADVANCED_FACE ( 'NONE', ( #409 ), #321, .F. ) ;
#321 = CYLINDRICAL_SURFACE ( 'NONE', #260, 1.500000000000000222 ) ;
#322 = PRODUCT_DEFINITION_SHAPE ( 'NONE', 'NONE',  #1050 ) ;
#323 = LINE ( 'NONE', #731, #327 ) ;
#324 = DIRECTION ( 'NONE',  ( 1.000000000000000000, 0.000000000000000000, 0.000000000000000000 ) ) ;
#325 = CYLINDRICAL_SURFACE ( 'NONE', #487, 1.999999999999998224 ) ;
#326 = CARTESIAN_POINT ( 'NONE',  ( -15.24999999999997868, 0.000000000000000000, 18.00000000000000355 ) ) ;
#327 = VECTOR ( 'NONE', #250, 1000.000000000000000 ) ;
#328 = VERTEX_POINT ( 'NONE', #317 ) ;
#329 = AXIS2_PLACEMENT_3D ( 'NONE', #899, #65, #652 ) ;
#330 = ADVANCED_FACE ( 'NONE', ( #562 ), #418, .T. ) ;
#331 = DIRECTION ( 'NONE',  ( -0.000000000000000000, -1.000000000000000000, -0.000000000000000000 ) ) ;
#332 = FACE_BOUND ( 'NONE', #679, .T. ) ;
#333 = EDGE_LOOP ( 'NONE', ( #546, #863, #272, #82 ) ) ;
#334 = SHAPE_DEFINITION_REPRESENTATION ( #602, #564 ) ;
#335 = DIRECTION ( 'NONE',  ( -0.000000000000000000, -1.000000000000000000, -0.000000000000000000 ) ) ;
#336 = DIRECTION ( 'NONE',  ( 0.000000000000000000, 1.000000000000000000, 0.000000000000000000 ) ) ;
#337 = VERTEX_POINT ( 'NONE', #647 ) ;
#338 = EDGE_CURVE ( 'NONE', #159, #634, #767, .T. ) ;
#339 = DIRECTION ( 'NONE',  ( 0.000000000000000000, 1.000000000000000000, 0.000000000000000000 ) ) ;
#340 = DIRECTION ( 'NONE',  ( 0.000000000000000000, 0.000000000000000000, -1.000000000000000000 ) ) ;
#341 = ADVANCED_FACE ( 'NONE', ( #578 ), #172, .T. ) ;
#342 = EDGE_LOOP ( 'NONE', ( #136, #183, #506, #289 ) ) ;
#343 = VECTOR ( 'NONE', #50, 1000.000000000000000 ) ;
#344 = VECTOR ( 'NONE', #764, 1000.000000000000000 ) ;
#345 = CYLINDRICAL_SURFACE ( 'NONE', #797, 2.000000000000000000 ) ;
#346 = EDGE_CURVE ( 'NONE', #945, #265, #505, .T. ) ;
#347 = DIRECTION ( 'NONE',  ( 0.000000000000000000, 0.000000000000000000, 1.000000000000000000 ) ) ;
#348 = DIRECTION ( 'NONE',  ( -0.000000000000000000, -1.000000000000000000, -0.000000000000000000 ) ) ;
#349 = FACE_OUTER_BOUND ( 'NONE', #1014, .T. ) ;
#350 = PRESENTATION_STYLE_ASSIGNMENT (( #274 ) ) ;
#351 = DIRECTION ( 'NONE',  ( 0.000000000000000000, 0.000000000000000000, -1.000000000000000000 ) ) ;
#352 = VERTEX_POINT ( 'NONE', #415 ) ;
#353 = LINE ( 'NONE', #9, #1 ) ;
#354 = DIRECTION ( 'NONE',  ( 0.000000000000000000, 1.000000000000000000, 0.000000000000000000 ) ) ;
#355 = DIRECTION ( 'NONE',  ( -1.000000000000000000, -0.000000000000000000, -0.000000000000000000 ) ) ;
#356 = VECTOR ( 'NONE', #438, 1000.000000000000000 ) ;
#357 = EDGE_CURVE ( 'NONE', #13, #328, #41, .T. ) ;
#358 = ORIENTED_EDGE ( 'NONE', *, *, #479, .F. ) ;
#359 = CYLINDRICAL_SURFACE ( 'NONE', #676, 2.000000000000000000 ) ;
#360 = STYLED_ITEM ( 'NONE', ( #350 ), #568 ) ;
#361 = CARTESIAN_POINT ( 'NONE',  ( -15.25000000000000178, 0.000000000000000000, -15.25000000000000355 ) ) ;
#362 = DIRECTION ( 'NONE',  ( 0.000000000000000000, 0.000000000000000000, 1.000000000000000000 ) ) ;
#363 = ORIENTED_EDGE ( 'NONE', *, *, #421, .T. ) ;
#364 = DIRECTION ( 'NONE',  ( 1.000000000000000000, 0.000000000000000000, -0.000000000000000000 ) ) ;
#365 = APPLICATION_CONTEXT ( 'automotive_design' ) ;
#366 = CARTESIAN_POINT ( 'NONE',  ( -15.25000000000000178, 1.500000000000000000, -13.25000000000000355 ) ) ;
#367 = VERTEX_POINT ( 'NONE', #969 ) ;
#368 = VERTEX_POINT ( 'NONE', #151 ) ;
#369 = ADVANCED_FACE ( 'NONE', ( #485, #332 ), #249, .T. ) ;
#370 = CARTESIAN_POINT ( 'NONE',  ( 15.24999999999997868, 1.500000000000000000, -17.99999999999999645 ) ) ;
#371 = DIRECTION ( 'NONE',  ( 0.000000000000000000, 1.000000000000000000, -0.000000000000000000 ) ) ;
#372 = AXIS2_PLACEMENT_3D ( 'NONE', #884, #561, #161 ) ;
#373 = EDGE_LOOP ( 'NONE', ( #835, #8, #127, #117, #986, #810, #110, #923 ) ) ;
#374 = DIRECTION ( 'NONE',  ( 0.000000000000000000, 1.000000000000000000, 0.000000000000000000 ) ) ;
#375 = ORIENTED_EDGE ( 'NONE', *, *, #179, .T. ) ;
#376 = VECTOR ( 'NONE', #6, 1000.000000000000000 ) ;
#377 = VECTOR ( 'NONE', #503, 1000.000000000000000 ) ;
#378 = CARTESIAN_POINT ( 'NONE',  ( -15.24999999999997868, 1.500000000000000000, -17.99999999999999645 ) ) ;
#379 = ADVANCED_FACE ( 'NONE', ( #974, #254, #964, #81, #229 ), #481, .T. ) ;
#380 = CYLINDRICAL_SURFACE ( 'NONE', #542, 2.749999999999999112 ) ;
#381 = ORIENTED_EDGE ( 'NONE', *, *, #262, .F. ) ;
#382 = ORIENTED_EDGE ( 'NONE', *, *, #513, .F. ) ;
#383 = CYLINDRICAL_SURFACE ( 'NONE', #895, 1.999999999999998224 ) ;
#384 = EDGE_CURVE ( 'NONE', #641, #152, #809, .T. ) ;
#385 = DIRECTION ( 'NONE',  ( 0.000000000000000000, 0.000000000000000000, 1.000000000000000000 ) ) ;
#386 = ORIENTED_EDGE ( 'NONE', *, *, #451, .T. ) ;
#387 = DIRECTION ( 'NONE',  ( 0.000000000000000000, 0.000000000000000000, 1.000000000000000000 ) ) ;
#388 = SURFACE_SIDE_STYLE ('',( #949 ) ) ;
#389 = ORIENTED_EDGE ( 'NONE', *, *, #683, .F. ) ;
#390 = ORIENTED_EDGE ( 'NONE', *, *, #47, .T. ) ;
#391 = DIRECTION ( 'NONE',  ( 0.07040075761212150063, 0.000000000000000000, 0.9975187884584629794 ) ) ;
#392 = EDGE_CURVE ( 'NONE', #51, #102, #815, .T. ) ;
#393 = VECTOR ( 'NONE', #701, 1000.000000000000000 ) ;
#394 = CARTESIAN_POINT ( 'NONE',  ( 18.00000000000000000, 1.500000000000000000, -15.24999999999997691 ) ) ;
#395 = SURFACE_STYLE_USAGE ( .BOTH. , #388 ) ;
#396 = VERTEX_POINT ( 'NONE', #173 ) ;
#397 = ORIENTED_EDGE ( 'NONE', *, *, #179, .F. ) ;
#398 = DIRECTION ( 'NONE',  ( 1.000000000000000000, 0.000000000000000000, 0.000000000000000000 ) ) ;
#399 = CYLINDRICAL_SURFACE ( 'NONE', #1008, 2.000000000000001776 ) ;
#400 = DIRECTION ( 'NONE',  ( -0.000000000000000000, -1.000000000000000000, -0.000000000000000000 ) ) ;
#401 = DIRECTION ( 'NONE',  ( 0.000000000000000000, 0.000000000000000000, 1.000000000000000000 ) ) ;
#402 = DIRECTION ( 'NONE',  ( 0.000000000000000000, 0.000000000000000000, 1.000000000000000000 ) ) ;
#403 = CARTESIAN_POINT ( 'NONE',  ( -15.25000000000000000, 1.500000000000000000, 15.25000000000000355 ) ) ;
#404 = EDGE_CURVE ( 'NONE', #142, #592, #523, .T. ) ;
#405 = LINE ( 'NONE', #326, #883 ) ;
#406 = EDGE_LOOP ( 'NONE', ( #521, #298, #277, #386 ) ) ;
#407 = CONTEXT_DEPENDENT_SHAPE_REPRESENTATION ( #736, #281 ) ;
#408 = LINE ( 'NONE', #1043, #860 ) ;
#409 = FACE_OUTER_BOUND ( 'NONE', #30, .T. ) ;
#410 = EDGE_CURVE ( 'NONE', #1002, #1048, #244, .T. ) ;
#411 = ORIENTED_EDGE ( 'NONE', *, *, #752, .T. ) ;
#412 = CIRCLE ( 'NONE', #202, 2.000000000000000000 ) ;
#413 = APPLICATION_PROTOCOL_DEFINITION ( 'draft international standard', 'automotive_design', 1998, #197 ) ;
#414 = CARTESIAN_POINT ( 'NONE',  ( 18.00000000000000000, 0.000000000000000000, 15.24999999999998224 ) ) ;
#415 = CARTESIAN_POINT ( 'NONE',  ( 15.25000000000000178, 1.500000000000000000, 13.25000000000000000 ) ) ;
#416 = ORIENTED_EDGE ( 'NONE', *, *, #1024, .F. ) ;
#417 = DIRECTION ( 'NONE',  ( 0.000000000000000000, 0.000000000000000000, 1.000000000000000000 ) ) ;
#418 = CYLINDRICAL_SURFACE ( 'NONE', #280, 3.000000000000000444 ) ;
#419 = ORIENTED_EDGE ( 'NONE', *, *, #554, .T. ) ;
#420 = PRODUCT_CONTEXT ( 'NONE', #259, 'mechanical' ) ;
#421 = EDGE_CURVE ( 'NONE', #466, #558, #98, .T. ) ;
#422 = CARTESIAN_POINT ( 'NONE',  ( 0.000000000000000000, 5.500000000000000000, 0.000000000000000000 ) ) ;
#423 =( NAMED_UNIT ( * ) PLANE_ANGLE_UNIT ( ) SI_UNIT ( $, .RADIAN. ) );
#424 = CARTESIAN_POINT ( 'NONE',  ( 0.000000000000000000, 5.500000000000000000, 0.000000000000000000 ) ) ;
#425 = DIRECTION ( 'NONE',  ( 0.000000000000000000, 0.000000000000000000, 1.000000000000000000 ) ) ;
#426 = CIRCLE ( 'NONE', #910, 2.000000000000000000 ) ;
#427 = VECTOR ( 'NONE', #10, 1000.000000000000000 ) ;
#428 = EDGE_CURVE ( 'NONE', #199, #794, #40, .T. ) ;
#429 = CARTESIAN_POINT ( 'NONE',  ( 15.24999999999997868, 0.000000000000000000, 18.00000000000000355 ) ) ;
#430 = DIRECTION ( 'NONE',  ( 0.000000000000000000, 1.000000000000000000, 0.000000000000000000 ) ) ;
#431 = DIRECTION ( 'NONE',  ( 0.000000000000000000, 1.000000000000000000, 0.000000000000000000 ) ) ;
#432 = EDGE_LOOP ( 'NONE', ( #106, #227, #576, #755 ) ) ;
#433 = CARTESIAN_POINT ( 'NONE',  ( -15.25000000000000178, 0.000000000000000000, -13.25000000000000355 ) ) ;
#434 = DIRECTION ( 'NONE',  ( 0.000000000000000000, 0.000000000000000000, 1.000000000000000000 ) ) ;
#435 = EDGE_CURVE ( 'NONE', #102, #924, #405, .T. ) ;
#436 = DIRECTION ( 'NONE',  ( 0.000000000000000000, 0.000000000000000000, -1.000000000000000000 ) ) ;
#437 = ORIENTED_EDGE ( 'NONE', *, *, #497, .T. ) ;
#438 = DIRECTION ( 'NONE',  ( -0.000000000000000000, -1.000000000000000000, -0.000000000000000000 ) ) ;
#439 = VECTOR ( 'NONE', #631, 1000.000000000000000 ) ;
#440 = DIRECTION ( 'NONE',  ( 1.000000000000000000, -0.000000000000000000, 0.000000000000000000 ) ) ;
#441 = PRODUCT_DEFINITION_FORMATION_WITH_SPECIFIED_SOURCE ( 'ä»', '', #99, .NOT_KNOWN. ) ;
#442 = EDGE_LOOP ( 'NONE', ( #471, #879, #722, #847 ) ) ;
#443 = ORIENTED_EDGE ( 'NONE', *, *, #97, .T. ) ;
#444 = ADVANCED_BREP_SHAPE_REPRESENTATION ( '', ( #212, #709 ), #726 ) ;
#445 = CIRCLE ( 'NONE', #171, 2.749999999999999112 ) ;
#446 = CARTESIAN_POINT ( 'NONE',  ( -15.25000000000000178, 0.000000000000000000, -15.25000000000000355 ) ) ;
#447 = CARTESIAN_POINT ( 'NONE',  ( 15.25000000000000000, 1.500000000000000000, 15.25000000000000355 ) ) ;
#448 = ORIENTED_EDGE ( 'NONE', *, *, #264, .F. ) ;
#449 = ORIENTED_EDGE ( 'NONE', *, *, #465, .T. ) ;
#450 = EDGE_LOOP ( 'NONE', ( #723, #122 ) ) ;
#451 = EDGE_CURVE ( 'NONE', #337, #396, #589, .T. ) ;
#452 = CARTESIAN_POINT ( 'NONE',  ( -15.25000000000000178, 1.500000000000000000, 13.25000000000000178 ) ) ;
#453 = CARTESIAN_POINT ( 'NONE',  ( 1.836970198721030181E-16, 0.000000000000000000, 1.500000000000000222 ) ) ;
#454 = ORIENTED_EDGE ( 'NONE', *, *, #979, .F. ) ;
#455 = DIRECTION ( 'NONE',  ( 0.000000000000000000, 0.000000000000000000, 1.000000000000000000 ) ) ;
#456 = DIRECTION ( 'NONE',  ( -0.000000000000000000, -1.000000000000000000, -0.000000000000000000 ) ) ;
#457 = UNCERTAINTY_MEASURE_WITH_UNIT (LENGTH_MEASURE( 1.000000000000000082E-05 ), #630, 'distance_accuracy_value', 'NONE');
#458 = ORIENTED_EDGE ( 'NONE', *, *, #831, .F. ) ;
#459 = ORIENTED_EDGE ( 'NONE', *, *, #1024, .T. ) ;
#460 = AXIS2_PLACEMENT_3D ( 'NONE', #877, #818, #87 ) ;
#461 = DIRECTION ( 'NONE',  ( 0.000000000000000000, 0.000000000000000000, -1.000000000000000000 ) ) ;
#462 = ORIENTED_EDGE ( 'NONE', *, *, #421, .F. ) ;
#463 =( NAMED_UNIT ( * ) SI_UNIT ( $, .STERADIAN. ) SOLID_ANGLE_UNIT ( ) );
#464 = CARTESIAN_POINT ( 'NONE',  ( -15.25000000000000178, 1.500000000000000000, -15.25000000000000355 ) ) ;
#465 = EDGE_CURVE ( 'NONE', #352, #222, #412, .T. ) ;
#466 = VERTEX_POINT ( 'NONE', #114 ) ;
#467 = VERTEX_POINT ( 'NONE', #287 ) ;
#468 = DIRECTION ( 'NONE',  ( 0.000000000000000000, 1.000000000000000000, 0.000000000000000000 ) ) ;
#469 = FACE_OUTER_BOUND ( 'NONE', #691, .T. ) ;
#470 = EDGE_LOOP ( 'NONE', ( #363, #390 ) ) ;
#471 = ORIENTED_EDGE ( 'NONE', *, *, #696, .T. ) ;
#472 =( LENGTH_UNIT ( ) NAMED_UNIT ( * ) SI_UNIT ( .MILLI., .METRE. ) );
#473 = AXIS2_PLACEMENT_3D ( 'NONE', #85, #103, #742 ) ;
#474 = FACE_OUTER_BOUND ( 'NONE', #970, .T. ) ;
#475 = CIRCLE ( 'NONE', #813, 1.500000000000000222 ) ;
#476 = DIRECTION ( 'NONE',  ( 0.000000000000000000, 0.000000000000000000, -1.000000000000000000 ) ) ;
#477 = ORIENTED_EDGE ( 'NONE', *, *, #872, .F. ) ;
#478 =( LENGTH_UNIT ( ) NAMED_UNIT ( * ) SI_UNIT ( .MILLI., .METRE. ) );
#479 = EDGE_CURVE ( 'NONE', #396, #914, #729, .T. ) ;
#480 = CARTESIAN_POINT ( 'NONE',  ( 0.000000000000000000, 0.000000000000000000, 0.000000000000000000 ) ) ;
#481 = PLANE ( 'NONE',  #912 ) ;
#482 = LINE ( 'NONE', #790, #343 ) ;
#483 = FACE_OUTER_BOUND ( 'NONE', #890, .T. ) ;
#484 = ORIENTED_EDGE ( 'NONE', *, *, #533, .T. ) ;
#485 = FACE_OUTER_BOUND ( 'NONE', #915, .T. ) ;
#486 = ORIENTED_EDGE ( 'NONE', *, *, #683, .T. ) ;
#487 = AXIS2_PLACEMENT_3D ( 'NONE', #792, #228, #148 ) ;
#488 = CYLINDRICAL_SURFACE ( 'NONE', #502, 2.749999999999999112 ) ;
#489 = CIRCLE ( 'NONE', #76, 3.000000000000000444 ) ;
#490 = CARTESIAN_POINT ( 'NONE',  ( -15.24999999999997868, 1.500000000000000000, 18.00000000000000355 ) ) ;
#491 = VECTOR ( 'NONE', #105, 1000.000000000000000 ) ;
#492 = LINE ( 'NONE', #187, #377 ) ;
#493 = PRESENTATION_LAYER_ASSIGNMENT (  '', '', ( #360 ) ) ;
#494 = CARTESIAN_POINT ( 'NONE',  ( 0.000000000000000000, 5.500000000000000000, 0.000000000000000000 ) ) ;
#495 = DIRECTION ( 'NONE',  ( 0.000000000000000000, -0.000000000000000000, 1.000000000000000000 ) ) ;
#496 = VERTEX_POINT ( 'NONE', #177 ) ;
#497 = EDGE_CURVE ( 'NONE', #222, #840, #90, .T. ) ;
#498 = ITEM_DEFINED_TRANSFORMATION ( 'NONE', 'NONE', #56,  #709 ) ;
#499 = DIRECTION ( 'NONE',  ( 0.000000000000000000, -0.000000000000000000, 1.000000000000000000 ) ) ;
#500 = PLANE ( 'NONE',  #78 ) ;
#501 = CARTESIAN_POINT ( 'NONE',  ( 0.000000000000000000, 0.000000000000000000, 0.000000000000000000 ) ) ;
#502 = AXIS2_PLACEMENT_3D ( 'NONE', #403, #720, #955 ) ;
#503 = DIRECTION ( 'NONE',  ( -0.000000000000000000, -1.000000000000000000, -0.000000000000000000 ) ) ;
#504 = CIRCLE ( 'NONE', #766, 2.000000000000000000 ) ;
#505 = CIRCLE ( 'NONE', #329, 1.500000000000000222 ) ;
#506 = ORIENTED_EDGE ( 'NONE', *, *, #83, .F. ) ;
#507 = CARTESIAN_POINT ( 'NONE',  ( 15.25000000000000355, 0.000000000000000000, -15.25000000000000000 ) ) ;
#508 = EDGE_CURVE ( 'NONE', #700, #592, #5, .T. ) ;
#509 = CARTESIAN_POINT ( 'NONE',  ( 0.000000000000000000, 8.000000000000000000, -3.000000000000000444 ) ) ;
#510 = CARTESIAN_POINT ( 'NONE',  ( -15.24999999999997868, 0.000000000000000000, 18.00000000000000355 ) ) ;
#511 = VERTEX_POINT ( 'NONE', #104 ) ;
#512 = DIRECTION ( 'NONE',  ( 0.000000000000000000, 1.000000000000000000, 0.000000000000000000 ) ) ;
#513 = EDGE_CURVE ( 'NONE', #553, #597, #135, .T. ) ;
#514 = DIRECTION ( 'NONE',  ( 0.000000000000000000, 1.000000000000000000, -0.000000000000000000 ) ) ;
#515 = ORIENTED_EDGE ( 'NONE', *, *, #165, .F. ) ;
#516 = EDGE_CURVE ( 'NONE', #784, #934, #242, .T. ) ;
#517 = DIRECTION ( 'NONE',  ( 1.000000000000000000, 0.000000000000000000, 0.000000000000000000 ) ) ;
#518 = FACE_OUTER_BOUND ( 'NONE', #141, .T. ) ;
#519 = AXIS2_PLACEMENT_3D ( 'NONE', #1037, #623, #880 ) ;
#520 = EDGE_LOOP ( 'NONE', ( #569, #124, #531, #617 ) ) ;
#521 = ORIENTED_EDGE ( 'NONE', *, *, #479, .T. ) ;
#522 = VECTOR ( 'NONE', #456, 1000.000000000000000 ) ;
#523 = CIRCLE ( 'NONE', #460, 1.999999999999998224 ) ;
#524 = DIRECTION ( 'NONE',  ( 0.000000000000000000, 0.000000000000000000, 1.000000000000000000 ) ) ;
#525 = DIRECTION ( 'NONE',  ( 0.000000000000000000, 1.000000000000000000, 0.000000000000000000 ) ) ;
#526 = EDGE_CURVE ( 'NONE', #159, #738, #263, .T. ) ;
#527 = ORIENTED_EDGE ( 'NONE', *, *, #516, .T. ) ;
#528 = EDGE_LOOP ( 'NONE', ( #981, #52, #381, #31 ) ) ;
#529 = LINE ( 'NONE', #785, #643 ) ;
#530 = DIRECTION ( 'NONE',  ( 0.000000000000000000, 1.000000000000000000, 0.000000000000000000 ) ) ;
#531 = ORIENTED_EDGE ( 'NONE', *, *, #297, .T. ) ;
#532 = CARTESIAN_POINT ( 'NONE',  ( 14.21386831730138844, 1.701990112126644750, -16.28577307757641535 ) ) ;
#533 = EDGE_CURVE ( 'NONE', #368, #102, #996, .T. ) ;
#534 = SHAPE_REPRESENTATION ( '\X2\98de63a7\X0\', ( #896, #21, #56, #661, #218, #168 ), #309 ) ;
#535 = LINE ( 'NONE', #201, #275 ) ;
#536 = LINE ( 'NONE', #861, #522 ) ;
#537 = AXIS2_PLACEMENT_3D ( 'NONE', #935, #1010, #461 ) ;
#538 = ORIENTED_EDGE ( 'NONE', *, *, #131, .T. ) ;
#539 = SHAPE_REPRESENTATION_RELATIONSHIP ( 'NONE' , 'NONE' ,  #564, #444 ) ;
#540 = PRODUCT_DEFINITION_FORMATION_WITH_SPECIFIED_SOURCE ( 'ä»', '', #271, .NOT_KNOWN. ) ;
#541 = EDGE_LOOP ( 'NONE', ( #484, #920, #448, #740 ) ) ;
#542 = AXIS2_PLACEMENT_3D ( 'NONE', #793, #134, #927 ) ;
#543 = ADVANCED_FACE ( 'NONE', ( #662 ), #980, .F. ) ;
#544 = DIRECTION ( 'NONE',  ( 0.000000000000000000, 0.000000000000000000, 1.000000000000000000 ) ) ;
#545 = ORIENTED_EDGE ( 'NONE', *, *, #195, .T. ) ;
#546 = ORIENTED_EDGE ( 'NONE', *, *, #838, .F. ) ;
#547 = DIRECTION ( 'NONE',  ( 0.000000000000000000, 1.000000000000000000, 0.000000000000000000 ) ) ;
#548 = FACE_OUTER_BOUND ( 'NONE', #442, .T. ) ;
#549 = EDGE_LOOP ( 'NONE', ( #802, #668 ) ) ;
#550 = DIRECTION ( 'NONE',  ( 0.000000000000000000, -0.000000000000000000, 1.000000000000000000 ) ) ;
#551 = DIRECTION ( 'NONE',  ( 0.000000000000000000, 1.000000000000000000, 0.000000000000000000 ) ) ;
#552 = ORIENTED_EDGE ( 'NONE', *, *, #979, .T. ) ;
#553 = VERTEX_POINT ( 'NONE', #595 ) ;
#554 = EDGE_CURVE ( 'NONE', #761, #511, #759, .T. ) ;
#555 = VECTOR ( 'NONE', #335, 1000.000000000000000 ) ;
#556 = CYLINDRICAL_SURFACE ( 'NONE', #841, 2.749999999999999112 ) ;
#557 = DIRECTION ( 'NONE',  ( 0.000000000000000000, 1.000000000000000000, 0.000000000000000000 ) ) ;
#558 = VERTEX_POINT ( 'NONE', #16 ) ;
#559 = EDGE_CURVE ( 'NONE', #713, #750, #829, .T. ) ;
#560 = PRODUCT_DEFINITION_SHAPE ( 'NONE', 'NONE',  #37 ) ;
#561 = DIRECTION ( 'NONE',  ( -0.000000000000000000, -1.000000000000000000, -0.000000000000000000 ) ) ;
#562 = FACE_OUTER_BOUND ( 'NONE', #111, .T. ) ;
#563 = ORIENTED_EDGE ( 'NONE', *, *, #743, .F. ) ;
#564 = SHAPE_REPRESENTATION ( 'M3\X2\51cf970767f1\X0\', ( #709 ), #726 ) ;
#565 = PRODUCT_DEFINITION ( 'æœ', '', #441, #636 ) ;
#566 = DIRECTION ( 'NONE',  ( -0.000000000000000000, -1.000000000000000000, -0.000000000000000000 ) ) ;
#567 = CARTESIAN_POINT ( 'NONE',  ( 15.25000000000000000, 1.500000000000000000, 15.25000000000000355 ) ) ;
#568 = MANIFOLD_SOLID_BREP ( 'Í¹Ì¨-À­Éì1', #745 ) ;
#569 = ORIENTED_EDGE ( 'NONE', *, *, #619, .F. ) ;
#570 = AXIS2_PLACEMENT_3D ( 'NONE', #940, #219, #544 ) ;
#571 = CARTESIAN_POINT ( 'NONE',  ( 0.000000000000000000, 8.000000000000000000, 0.000000000000000000 ) ) ;
#572 = AXIS2_PLACEMENT_3D ( 'NONE', #89, #987, #763 ) ;
#573 = EDGE_CURVE ( 'NONE', #934, #784, #75, .T. ) ;
#574 = DIRECTION ( 'NONE',  ( 0.000000000000000000, -0.000000000000000000, 1.000000000000000000 ) ) ;
#575 = CIRCLE ( 'NONE', #994, 3.000000000000000444 ) ;
#576 = ORIENTED_EDGE ( 'NONE', *, *, #516, .F. ) ;
#577 = AXIS2_PLACEMENT_3D ( 'NONE', #739, #721, #730 ) ;
#578 = FACE_OUTER_BOUND ( 'NONE', #1028, .T. ) ;
#579 = EDGE_CURVE ( 'NONE', #51, #496, #45, .T. ) ;
#580 = FILL_AREA_STYLE_COLOUR ( '', #646 ) ;
#581 = VERTEX_POINT ( 'NONE', #612 ) ;
#582 = DIRECTION ( 'NONE',  ( -0.000000000000000000, -1.000000000000000000, -0.000000000000000000 ) ) ;
#583 = DIRECTION ( 'NONE',  ( 0.000000000000000000, 0.000000000000000000, -1.000000000000000000 ) ) ;
#584 = DIRECTION ( 'NONE',  ( 0.000000000000000000, 1.000000000000000000, 0.000000000000000000 ) ) ;
#585 = ADVANCED_FACE ( 'NONE', ( #859 ), #774, .F. ) ;
#586 = ORIENTED_EDGE ( 'NONE', *, *, #959, .F. ) ;
#587 = FACE_OUTER_BOUND ( 'NONE', #593, .T. ) ;
#588 =( GEOMETRIC_REPRESENTATION_CONTEXT ( 3 ) GLOBAL_UNCERTAINTY_ASSIGNED_CONTEXT ( ( #301 ) ) GLOBAL_UNIT_ASSIGNED_CONTEXT ( ( #1000, #423, #268 ) ) REPRESENTATION_CONTEXT ( 'NONE', 'WORKASPACE' ) );
#589 = LINE ( 'NONE', #194, #626 ) ;
#590 = DIRECTION ( 'NONE',  ( 0.000000000000000000, 0.000000000000000000, -1.000000000000000000 ) ) ;
#591 = COLOUR_RGB ( '',0.7921568627450980005, 0.8196078431372548767, 0.9333333333333333481 ) ;
#592 = VERTEX_POINT ( 'NONE', #870 ) ;
#593 = EDGE_LOOP ( 'NONE', ( #682, #419, #292, #610 ) ) ;
#594 = DIRECTION ( 'NONE',  ( 0.000000000000000000, -0.000000000000000000, 1.000000000000000000 ) ) ;
#595 = CARTESIAN_POINT ( 'NONE',  ( 18.00000000000000000, 0.000000000000000000, -15.24999999999997691 ) ) ;
#596 = CARTESIAN_POINT ( 'NONE',  ( 0.000000000000000000, 5.500000000000000000, 0.000000000000000000 ) ) ;
#597 = VERTEX_POINT ( 'NONE', #866 ) ;
#598 = PRODUCT_RELATED_PRODUCT_CATEGORY ( 'part', '', ( #99 ) ) ;
#599 = DIRECTION ( 'NONE',  ( 0.000000000000000000, 0.000000000000000000, 1.000000000000000000 ) ) ;
#600 = CARTESIAN_POINT ( 'NONE',  ( 15.25000000000000178, 1.500000000000000000, 17.25000000000000000 ) ) ;
#601 = PLANE ( 'NONE',  #240 ) ;
#602 = PRODUCT_DEFINITION_SHAPE ( 'NONE', 'NONE',  #565 ) ;
#603 = EDGE_LOOP ( 'NONE', ( #873, #486, #640, #515 ) ) ;
#604 = FACE_OUTER_BOUND ( 'NONE', #432, .T. ) ;
#605 = ADVANCED_FACE ( 'NONE', ( #604 ), #383, .F. ) ;
#606 = CIRCLE ( 'NONE', #149, 2.000000000000000000 ) ;
#607 = DIRECTION ( 'NONE',  ( -1.000000000000000000, 0.000000000000000000, -0.000000000000000000 ) ) ;
#608 =( GEOMETRIC_REPRESENTATION_CONTEXT ( 3 ) GLOBAL_UNCERTAINTY_ASSIGNED_CONTEXT ( ( #457 ) ) GLOBAL_UNIT_ASSIGNED_CONTEXT ( ( #630, #1023, #707 ) ) REPRESENTATION_CONTEXT ( 'NONE', 'WORKASPACE' ) );
#609 = EDGE_LOOP ( 'NONE', ( #687, #188 ) ) ;
#610 = ORIENTED_EDGE ( 'NONE', *, *, #410, .F. ) ;
#611 = AXIS2_PLACEMENT_3D ( 'NONE', #842, #753, #670 ) ;
#612 = CARTESIAN_POINT ( 'NONE',  ( 0.000000000000000000, 5.500000000000000000, -2.000000000000000000 ) ) ;
#613 = EDGE_LOOP ( 'NONE', ( #782, #862, #908, #706 ) ) ;
#614 = EDGE_LOOP ( 'NONE', ( #944, #302, #411, #791 ) ) ;
#615 = LINE ( 'NONE', #897, #181 ) ;
#616 = FACE_OUTER_BOUND ( 'NONE', #613, .T. ) ;
#617 = ORIENTED_EDGE ( 'NONE', *, *, #155, .T. ) ;
#618 =( NAMED_UNIT ( * ) SI_UNIT ( $, .STERADIAN. ) SOLID_ANGLE_UNIT ( ) );
#619 = EDGE_CURVE ( 'NONE', #328, #305, #28, .T. ) ;
#620 = CARTESIAN_POINT ( 'NONE',  ( 1.836970198721030181E-16, 5.500000000000000000, 1.500000000000000222 ) ) ;
#621 = FACE_OUTER_BOUND ( 'NONE', #1019, .T. ) ;
#622 = ORIENTED_EDGE ( 'NONE', *, *, #63, .F. ) ;
#623 = DIRECTION ( 'NONE',  ( 0.000000000000000000, 0.000000000000000000, 1.000000000000000000 ) ) ;
#624 = CIRCLE ( 'NONE', #473, 3.000000000000000444 ) ;
#625 = CIRCLE ( 'NONE', #294, 2.000000000000000000 ) ;
#626 = VECTOR ( 'NONE', #911, 1000.000000000000000 ) ;
#627 = CARTESIAN_POINT ( 'NONE',  ( 15.25000000000000355, 1.500000000000000000, -15.25000000000000000 ) ) ;
#628 = CARTESIAN_POINT ( 'NONE',  ( 0.000000000000000000, 8.000000000000000000, 0.000000000000000000 ) ) ;
#629 = ORIENTED_EDGE ( 'NONE', *, *, #632, .F. ) ;
#630 =( LENGTH_UNIT ( ) NAMED_UNIT ( * ) SI_UNIT ( .MILLI., .METRE. ) );
#631 = DIRECTION ( 'NONE',  ( -0.000000000000000000, -1.000000000000000000, -0.000000000000000000 ) ) ;
#632 = EDGE_CURVE ( 'NONE', #868, #597, #145, .T. ) ;
#633 = DIRECTION ( 'NONE',  ( -0.000000000000000000, -1.000000000000000000, -0.000000000000000000 ) ) ;
#634 = VERTEX_POINT ( 'NONE', #211 ) ;
#635 =( NAMED_UNIT ( * ) PLANE_ANGLE_UNIT ( ) SI_UNIT ( $, .RADIAN. ) );
#636 = PRODUCT_DEFINITION_CONTEXT ( 'detailed design', #664, 'design' ) ;
#637 = CARTESIAN_POINT ( 'NONE',  ( 15.24999999999997868, 1.500000000000000000, -17.99999999999999645 ) ) ;
#638 = DIRECTION ( 'NONE',  ( 0.000000000000000000, 0.000000000000000000, 1.000000000000000000 ) ) ;
#639 = ADVANCED_FACE ( 'NONE', ( #299 ), #132, .F. ) ;
#640 = ORIENTED_EDGE ( 'NONE', *, *, #346, .F. ) ;
#641 = VERTEX_POINT ( 'NONE', #303 ) ;
#642 = APPLICATION_PROTOCOL_DEFINITION ( 'draft international standard', 'automotive_design', 1998, #259 ) ;
#643 = VECTOR ( 'NONE', #125, 1000.000000000000000 ) ;
#644 = LINE ( 'NONE', #394, #555 ) ;
#645 = AXIS2_PLACEMENT_3D ( 'NONE', #296, #775, #46 ) ;
#646 = COLOUR_RGB ( '',0.7921568627450980005, 0.8196078431372548767, 0.9333333333333333481 ) ;
#647 = CARTESIAN_POINT ( 'NONE',  ( -15.25000000000000000, 1.500000000000000000, -17.99999999999999645 ) ) ;
#648 = PRODUCT_RELATED_PRODUCT_CATEGORY ( 'part', '', ( #748 ) ) ;
#649 = DIRECTION ( 'NONE',  ( 0.000000000000000000, 1.000000000000000000, 0.000000000000000000 ) ) ;
#650 = SHAPE_DEFINITION_REPRESENTATION ( #1031, #144 ) ;
#651 = DIRECTION ( 'NONE',  ( 0.000000000000000000, 0.000000000000000000, 1.000000000000000000 ) ) ;
#652 = DIRECTION ( 'NONE',  ( 0.000000000000000000, 0.000000000000000000, 1.000000000000000000 ) ) ;
#653 = EDGE_LOOP ( 'NONE', ( #795, #35 ) ) ;
#654 = EDGE_CURVE ( 'NONE', #703, #784, #535, .T. ) ;
#655 = FACE_OUTER_BOUND ( 'NONE', #406, .T. ) ;
#656 = CARTESIAN_POINT ( 'NONE',  ( 0.000000000000000000, 5.500000000000000000, 0.000000000000000000 ) ) ;
#657 = ORIENTED_EDGE ( 'NONE', *, *, #47, .F. ) ;
#658 = CONTEXT_DEPENDENT_SHAPE_REPRESENTATION ( #86, #157 ) ;
#659 = VECTOR ( 'NONE', #1025, 1000.000000000000000 ) ;
#660 = CARTESIAN_POINT ( 'NONE',  ( 0.000000000000000000, 5.500000000000000000, 0.000000000000000000 ) ) ;
#661 = AXIS2_PLACEMENT_3D ( 'NONE', #796, #53, #147 ) ;
#662 = FACE_OUTER_BOUND ( 'NONE', #603, .T. ) ;
#663 = EDGE_LOOP ( 'NONE', ( #169, #975, #375, #231 ) ) ;
#664 = APPLICATION_CONTEXT ( 'automotive_design' ) ;
#665 = LINE ( 'NONE', #2, #356 ) ;
#666 = EDGE_CURVE ( 'NONE', #337, #66, #91, .T. ) ;
#667 = CARTESIAN_POINT ( 'NONE',  ( 15.25000000000000355, 0.000000000000000000, -17.24999999999999645 ) ) ;
#668 = ORIENTED_EDGE ( 'NONE', *, *, #715, .F. ) ;
#669 = PLANE ( 'NONE',  #572 ) ;
#670 = DIRECTION ( 'NONE',  ( 0.000000000000000000, 0.000000000000000000, -1.000000000000000000 ) ) ;
#671 = LINE ( 'NONE', #907, #491 ) ;
#672 = ORIENTED_EDGE ( 'NONE', *, *, #247, .T. ) ;
#673 = FACE_OUTER_BOUND ( 'NONE', #284, .T. ) ;
#674 = CIRCLE ( 'NONE', #570, 1.999999999999998224 ) ;
#675 = SURFACE_STYLE_FILL_AREA ( #826 ) ;
#676 = AXIS2_PLACEMENT_3D ( 'NONE', #261, #267, #293 ) ;
#677 = CARTESIAN_POINT ( 'NONE',  ( 3.673940397442060361E-16, 8.000000000000000000, 3.000000000000000444 ) ) ;
#678 = AXIS2_PLACEMENT_3D ( 'NONE', #824, #283, #92 ) ;
#679 = EDGE_LOOP ( 'NONE', ( #770, #397 ) ) ;
#680 = DIRECTION ( 'NONE',  ( 0.000000000000000000, 1.000000000000000000, 0.000000000000000000 ) ) ;
#681 = CARTESIAN_POINT ( 'NONE',  ( 15.25000000000000000, 1.500000000000000000, 15.25000000000000355 ) ) ;
#682 = ORIENTED_EDGE ( 'NONE', *, *, #966, .F. ) ;
#683 = EDGE_CURVE ( 'NONE', #794, #265, #295, .T. ) ;
#684 = DIRECTION ( 'NONE',  ( -0.000000000000000000, -0.000000000000000000, 1.000000000000000000 ) ) ;
#685 = CARTESIAN_POINT ( 'NONE',  ( -15.25000000000000178, 1.500000000000000000, 15.25000000000000178 ) ) ;
#686 = ORIENTED_EDGE ( 'NONE', *, *, #932, .T. ) ;
#687 = ORIENTED_EDGE ( 'NONE', *, *, #428, .F. ) ;
#688 = EDGE_CURVE ( 'NONE', #914, #368, #139, .T. ) ;
#689 = DIRECTION ( 'NONE',  ( 0.000000000000000000, 0.000000000000000000, 1.000000000000000000 ) ) ;
#690 = CYLINDRICAL_SURFACE ( 'NONE', #645, 2.000000000000001776 ) ;
#691 = EDGE_LOOP ( 'NONE', ( #900, #629, #1041, #806 ) ) ;
#692 = ORIENTED_EDGE ( 'NONE', *, *, #526, .T. ) ;
#693 = AXIS2_PLACEMENT_3D ( 'NONE', #126, #871, #146 ) ;
#694 = AXIS2_PLACEMENT_3D ( 'NONE', #717, #1035, #956 ) ;
#695 = CARTESIAN_POINT ( 'NONE',  ( 0.000000000000000000, 6.999999999999999112, -3.000000000000000444 ) ) ;
#696 = EDGE_CURVE ( 'NONE', #467, #700, #674, .T. ) ;
#697 = PRODUCT_DEFINITION_CONTEXT ( 'detailed design', #197, 'design' ) ;
#698 = ORIENTED_EDGE ( 'NONE', *, *, #97, .F. ) ;
#699 = CARTESIAN_POINT ( 'NONE',  ( 0.000000000000000000, 0.000000000000000000, 0.000000000000000000 ) ) ;
#700 = VERTEX_POINT ( 'NONE', #290 ) ;
#701 = DIRECTION ( 'NONE',  ( 1.000000000000000000, 0.000000000000000000, 0.000000000000000000 ) ) ;
#702 = CYLINDRICAL_SURFACE ( 'NONE', #577, 2.000000000000000000 ) ;
#703 = VERTEX_POINT ( 'NONE', #931 ) ;
#704 = DIRECTION ( 'NONE',  ( 0.000000000000000000, 1.000000000000000000, 0.000000000000000000 ) ) ;
#705 = AXIS2_PLACEMENT_3D ( 'NONE', #779, #547, #524 ) ;
#706 = ORIENTED_EDGE ( 'NONE', *, *, #392, .T. ) ;
#707 =( NAMED_UNIT ( * ) SI_UNIT ( $, .STERADIAN. ) SOLID_ANGLE_UNIT ( ) );
#708 = EDGE_CURVE ( 'NONE', #66, #914, #529, .T. ) ;
#709 = AXIS2_PLACEMENT_3D ( 'NONE', #699, #215, #223 ) ;
#710 = AXIS2_PLACEMENT_3D ( 'NONE', #162, #336, #734 ) ;
#711 = DIRECTION ( 'NONE',  ( 0.000000000000000000, 0.000000000000000000, 1.000000000000000000 ) ) ;
#712 = CARTESIAN_POINT ( 'NONE',  ( 15.25000000000000178, 1.500000000000000000, 17.25000000000000000 ) ) ;
#713 = VERTEX_POINT ( 'NONE', #771 ) ;
#714 =( NAMED_UNIT ( * ) PLANE_ANGLE_UNIT ( ) SI_UNIT ( $, .RADIAN. ) );
#715 = EDGE_CURVE ( 'NONE', #700, #467, #112, .T. ) ;
#716 = CARTESIAN_POINT ( 'NONE',  ( 3.673940397442060361E-16, 5.500000000000000000, 3.000000000000000444 ) ) ;
#717 = CARTESIAN_POINT ( 'NONE',  ( -15.25000000000000178, 0.000000000000000000, 15.25000000000000178 ) ) ;
#718 = ORIENTED_EDGE ( 'NONE', *, *, #732, .F. ) ;
#719 = CARTESIAN_POINT ( 'NONE',  ( 30.49964139487780557, -3.798009887873354362, -2.147223107169705436 ) ) ;
#720 = DIRECTION ( 'NONE',  ( -0.000000000000000000, -1.000000000000000000, -0.000000000000000000 ) ) ;
#721 = DIRECTION ( 'NONE',  ( -0.000000000000000000, -1.000000000000000000, -0.000000000000000000 ) ) ;
#722 = ORIENTED_EDGE ( 'NONE', *, *, #404, .F. ) ;
#723 = ORIENTED_EDGE ( 'NONE', *, *, #338, .T. ) ;
#724 = ITEM_DEFINED_TRANSFORMATION ( 'NONE', 'NONE', #21,  #709 ) ;
#725 = VECTOR ( 'NONE', #1030, 1000.000000000000000 ) ;
#726 =( GEOMETRIC_REPRESENTATION_CONTEXT ( 3 ) GLOBAL_UNCERTAINTY_ASSIGNED_CONTEXT ( ( #855 ) ) GLOBAL_UNIT_ASSIGNED_CONTEXT ( ( #478, #635, #463 ) ) REPRESENTATION_CONTEXT ( 'NONE', 'WORKASPACE' ) );
#727 = CARTESIAN_POINT ( 'NONE',  ( -15.25000000000000000, 1.500000000000000000, -15.24999999999999645 ) ) ;
#728 = STYLED_ITEM ( 'NONE', ( #781 ), #212 ) ;
#729 = CIRCLE ( 'NONE', #799, 2.749999999999999112 ) ;
#730 = DIRECTION ( 'NONE',  ( 0.000000000000000000, 0.000000000000000000, -1.000000000000000000 ) ) ;
#731 = CARTESIAN_POINT ( 'NONE',  ( -18.00000000000000000, 1.500000000000000000, 15.24999999999998401 ) ) ;
#732 = EDGE_CURVE ( 'NONE', #924, #152, #167, .T. ) ;
#733 = PLANE ( 'NONE',  #216 ) ;
#734 = DIRECTION ( 'NONE',  ( 0.000000000000000000, 0.000000000000000000, 1.000000000000000000 ) ) ;
#735 = EDGE_LOOP ( 'NONE', ( #209, #36 ) ) ;
#736 =( REPRESENTATION_RELATIONSHIP ('NONE','NONE', #534, #564 ) REPRESENTATION_RELATIONSHIP_WITH_TRANSFORMATION ( #266 )SHAPE_REPRESENTATION_RELATIONSHIP( ) );
#737 = DIRECTION ( 'NONE',  ( 0.000000000000000000, 1.000000000000000000, 0.000000000000000000 ) ) ;
#738 = VERTEX_POINT ( 'NONE', #695 ) ;
#739 = CARTESIAN_POINT ( 'NONE',  ( 0.000000000000000000, 6.999999999999999112, 0.000000000000000000 ) ) ;
#740 = ORIENTED_EDGE ( 'NONE', *, *, #18, .T. ) ;
#741 = CIRCLE ( 'NONE', #878, 1.500000000000000222 ) ;
#742 = DIRECTION ( 'NONE',  ( 0.000000000000000000, 0.000000000000000000, 1.000000000000000000 ) ) ;
#743 = EDGE_CURVE ( 'NONE', #367, #840, #606, .T. ) ;
#744 = AXIS2_PLACEMENT_3D ( 'NONE', #507, #512, #417 ) ;
#745 = CLOSED_SHELL ( 'NONE', ( #605, #189, #210, #286, #379, #68, #73, #928, #306, #639, #778, #61, #887, #230, #858, #798, #984, #585 ) ) ;
#746 = CARTESIAN_POINT ( 'NONE',  ( 15.25000000000000000, 0.000000000000000000, 15.25000000000000355 ) ) ;
#747 = VECTOR ( 'NONE', #833, 1000.000000000000000 ) ;
#748 = PRODUCT ( '\X2\98de63a7\X0\', '\X2\98de63a7\X0\', '', ( #420 ) ) ;
#749 = DIRECTION ( 'NONE',  ( 1.000000000000000000, 0.000000000000000000, 0.000000000000000000 ) ) ;
#750 = VERTEX_POINT ( 'NONE', #452 ) ;
#751 = CARTESIAN_POINT ( 'NONE',  ( 0.000000000000000000, 0.000000000000000000, -1.500000000000000222 ) ) ;
#752 = EDGE_CURVE ( 'NONE', #467, #142, #615, .T. ) ;
#753 = DIRECTION ( 'NONE',  ( 0.000000000000000000, 1.000000000000000000, -0.000000000000000000 ) ) ;
#754 = CYLINDRICAL_SURFACE ( 'NONE', #783, 2.000000000000000000 ) ;
#755 = ORIENTED_EDGE ( 'NONE', *, *, #654, .F. ) ;
#756 = CARTESIAN_POINT ( 'NONE',  ( 15.25000000000000178, 1.500000000000000000, 15.25000000000000178 ) ) ;
#757 = PRODUCT_DEFINITION_SHAPE ( 'NONE', 'NONE',  #1049 ) ;
#758 = PRODUCT_RELATED_PRODUCT_CATEGORY ( 'part', '', ( #271 ) ) ;
#759 = LINE ( 'NONE', #822, #747 ) ;
#760 = FACE_OUTER_BOUND ( 'NONE', #787, .T. ) ;
#761 = VERTEX_POINT ( 'NONE', #716 ) ;
#762 = ORIENTED_EDGE ( 'NONE', *, *, #270, .T. ) ;
#763 = DIRECTION ( 'NONE',  ( 0.000000000000000000, 0.000000000000000000, 1.000000000000000000 ) ) ;
#764 = DIRECTION ( 'NONE',  ( -0.000000000000000000, -1.000000000000000000, -0.000000000000000000 ) ) ;
#765 = FACE_OUTER_BOUND ( 'NONE', #342, .T. ) ;
#766 = AXIS2_PLACEMENT_3D ( 'NONE', #596, #584, #919 ) ;
#767 = CIRCLE ( 'NONE', #4, 3.000000000000000444 ) ;
#768 = ADVANCED_FACE ( 'NONE', ( #474 ), #973, .T. ) ;
#769 = EDGE_LOOP ( 'NONE', ( #527, #43 ) ) ;
#770 = ORIENTED_EDGE ( 'NONE', *, *, #155, .F. ) ;
#771 = CARTESIAN_POINT ( 'NONE',  ( -15.25000000000000178, 1.500000000000000000, 17.25000000000000000 ) ) ;
#772 = DIRECTION ( 'NONE',  ( 0.000000000000000000, 1.000000000000000000, 0.000000000000000000 ) ) ;
#773 = APPLICATION_CONTEXT ( 'automotive_design' ) ;
#774 = CYLINDRICAL_SURFACE ( 'NONE', #307, 1.999999999999998224 ) ;
#775 = DIRECTION ( 'NONE',  ( -0.000000000000000000, -1.000000000000000000, -0.000000000000000000 ) ) ;
#776 = ORIENTED_EDGE ( 'NONE', *, *, #526, .F. ) ;
#777 = ORIENTED_EDGE ( 'NONE', *, *, #852, .F. ) ;
#778 = ADVANCED_FACE ( 'NONE', ( #655 ), #556, .T. ) ;
#779 = CARTESIAN_POINT ( 'NONE',  ( 15.25000000000000000, 0.000000000000000000, 15.25000000000000355 ) ) ;
#780 = CIRCLE ( 'NONE', #744, 1.999999999999998224 ) ;
#781 = PRESENTATION_STYLE_ASSIGNMENT (( #395 ) ) ;
#782 = ORIENTED_EDGE ( 'NONE', *, *, #435, .T. ) ;
#783 = AXIS2_PLACEMENT_3D ( 'NONE', #685, #12, #351 ) ;
#784 = VERTEX_POINT ( 'NONE', #80 ) ;
#785 = CARTESIAN_POINT ( 'NONE',  ( -18.00000000000000000, 1.500000000000000000, -15.24999999999997513 ) ) ;
#786 = FACE_OUTER_BOUND ( 'NONE', #520, .T. ) ;
#787 = EDGE_LOOP ( 'NONE', ( #718, #816, #930, #128, #358, #698, #382, #19 ) ) ;
#788 = CARTESIAN_POINT ( 'NONE',  ( 2.449293598294706414E-16, 6.999999999999999112, 2.000000000000000000 ) ) ;
#789 = ADVANCED_FACE ( 'NONE', ( #54, #156 ), #733, .T. ) ;
#790 = CARTESIAN_POINT ( 'NONE',  ( -18.00000000000000000, 1.500000000000000000, 15.24999999999998224 ) ) ;
#791 = ORIENTED_EDGE ( 'NONE', *, *, #905, .F. ) ;
#792 = CARTESIAN_POINT ( 'NONE',  ( 15.25000000000000355, 1.500000000000000000, -15.25000000000000000 ) ) ;
#793 = CARTESIAN_POINT ( 'NONE',  ( 15.25000000000000000, 1.500000000000000000, -15.24999999999999645 ) ) ;
#794 = VERTEX_POINT ( 'NONE', #804 ) ;
#795 = ORIENTED_EDGE ( 'NONE', *, *, #270, .F. ) ;
#796 = CARTESIAN_POINT ( 'NONE',  ( -2.071904760275024682, -3.798009887873354362, -30.42432304798312259 ) ) ;
#797 = AXIS2_PLACEMENT_3D ( 'NONE', #983, #582, #15 ) ;
#798 = ADVANCED_FACE ( 'NONE', ( #483 ), #399, .F. ) ;
#799 = AXIS2_PLACEMENT_3D ( 'NONE', #24, #100, #282 ) ;
#800 = DIRECTION ( 'NONE',  ( 0.000000000000000000, 1.000000000000000000, 0.000000000000000000 ) ) ;
#801 = DIRECTION ( 'NONE',  ( 0.000000000000000000, 1.000000000000000000, 0.000000000000000000 ) ) ;
#802 = ORIENTED_EDGE ( 'NONE', *, *, #696, .F. ) ;
#803 = EDGE_CURVE ( 'NONE', #152, #553, #1047, .T. ) ;
#804 = CARTESIAN_POINT ( 'NONE',  ( 1.836970198721030181E-16, 8.000000000000000000, 1.500000000000000222 ) ) ;
#805 = DIRECTION ( 'NONE',  ( -0.000000000000000000, -1.000000000000000000, -0.000000000000000000 ) ) ;
#806 = ORIENTED_EDGE ( 'NONE', *, *, #831, .T. ) ;
#807 = LINE ( 'NONE', #876, #439 ) ;
#808 = EDGE_CURVE ( 'NONE', #713, #558, #807, .T. ) ;
#809 = LINE ( 'NONE', #893, #946 ) ;
#810 = ORIENTED_EDGE ( 'NONE', *, *, #262, .T. ) ;
#811 = AXIS2_PLACEMENT_3D ( 'NONE', #69, #800, #651 ) ;
#812 = FACE_BOUND ( 'NONE', #1003, .T. ) ;
#813 = AXIS2_PLACEMENT_3D ( 'NONE', #628, #225, #849 ) ;
#814 = AXIS2_PLACEMENT_3D ( 'NONE', #108, #354, #347 ) ;
#815 = LINE ( 'NONE', #490, #846 ) ;
#816 = ORIENTED_EDGE ( 'NONE', *, *, #435, .F. ) ;
#817 = CARTESIAN_POINT ( 'NONE',  ( -18.00000000000000000, 0.000000000000000000, -15.24999999999997513 ) ) ;
#818 = DIRECTION ( 'NONE',  ( 0.000000000000000000, 1.000000000000000000, 0.000000000000000000 ) ) ;
#819 = ORIENTED_EDGE ( 'NONE', *, *, #410, .T. ) ;
#820 = PRODUCT_CONTEXT ( 'NONE', #773, 'mechanical' ) ;
#821 = CARTESIAN_POINT ( 'NONE',  ( -18.00000000000000000, 1.500000000000000000, 15.24999999999998401 ) ) ;
#822 = CARTESIAN_POINT ( 'NONE',  ( 3.673940397442060361E-16, 5.500000000000000000, 3.000000000000000444 ) ) ;
#823 =( REPRESENTATION_RELATIONSHIP ('NONE','NONE', #534, #144 ) REPRESENTATION_RELATIONSHIP_WITH_TRANSFORMATION ( #498 )SHAPE_REPRESENTATION_RELATIONSHIP( ) );
#824 = CARTESIAN_POINT ( 'NONE',  ( 0.000000000000000000, 6.999999999999999112, 0.000000000000000000 ) ) ;
#825 = DIRECTION ( 'NONE',  ( 0.000000000000000000, 0.000000000000000000, -1.000000000000000000 ) ) ;
#826 = FILL_AREA_STYLE ('',( #580 ) ) ;
#827 = CIRCLE ( 'NONE', #678, 3.000000000000000444 ) ;
#828 = DIRECTION ( 'NONE',  ( 0.000000000000000000, 1.000000000000000000, 0.000000000000000000 ) ) ;
#829 = CIRCLE ( 'NONE', #814, 2.000000000000000000 ) ;
#830 = ORIENTED_EDGE ( 'NONE', *, *, #32, .T. ) ;
#831 = EDGE_CURVE ( 'NONE', #318, #553, #644, .T. ) ;
#832 = DIRECTION ( 'NONE',  ( -1.000000000000000000, -0.000000000000000000, -0.000000000000000000 ) ) ;
#833 = DIRECTION ( 'NONE',  ( -0.000000000000000000, -1.000000000000000000, -0.000000000000000000 ) ) ;
#834 = CARTESIAN_POINT ( 'NONE',  ( 18.00000000000000000, 0.000000000000000000, 15.24999999999998224 ) ) ;
#835 = ORIENTED_EDGE ( 'NONE', *, *, #83, .T. ) ;
#836 = FACE_OUTER_BOUND ( 'NONE', #663, .T. ) ;
#837 = CARTESIAN_POINT ( 'NONE',  ( 0.000000000000000000, 5.500000000000000000, 0.000000000000000000 ) ) ;
#838 = EDGE_CURVE ( 'NONE', #44, #934, #408, .T. ) ;
#839 = FACE_BOUND ( 'NONE', #769, .T. ) ;
#840 = VERTEX_POINT ( 'NONE', #1038 ) ;
#841 = AXIS2_PLACEMENT_3D ( 'NONE', #727, #331, #72 ) ;
#842 = CARTESIAN_POINT ( 'NONE',  ( 15.25000000000000000, 0.000000000000000000, -15.24999999999999645 ) ) ;
#843 = CIRCLE ( 'NONE', #256, 3.000000000000000444 ) ;
#844 = CARTESIAN_POINT ( 'NONE',  ( -18.00000000000000000, 1.500000000000000000, 15.24999999999998224 ) ) ;
#845 = AXIS2_PLACEMENT_3D ( 'NONE', #207, #530, #385 ) ;
#846 = VECTOR ( 'NONE', #885, 1000.000000000000000 ) ;
#847 = ORIENTED_EDGE ( 'NONE', *, *, #752, .F. ) ;
#848 = CARTESIAN_POINT ( 'NONE',  ( 15.25000000000000178, 0.000000000000000000, 15.25000000000000178 ) ) ;
#849 = DIRECTION ( 'NONE',  ( 0.000000000000000000, 0.000000000000000000, 1.000000000000000000 ) ) ;
#850 = ORIENTED_EDGE ( 'NONE', *, *, #195, .F. ) ;
#851 = ORIENTED_EDGE ( 'NONE', *, *, #497, .F. ) ;
#852 = EDGE_CURVE ( 'NONE', #634, #159, #55, .T. ) ;
#853 = DIRECTION ( 'NONE',  ( -0.000000000000000000, -1.000000000000000000, -0.000000000000000000 ) ) ;
#854 = CYLINDRICAL_SURFACE ( 'NONE', #693, 1.999999999999998224 ) ;
#855 = UNCERTAINTY_MEASURE_WITH_UNIT (LENGTH_MEASURE( 1.000000000000000082E-05 ), #478, 'distance_accuracy_value', 'NONE');
#856 = ORIENTED_EDGE ( 'NONE', *, *, #932, .F. ) ;
#857 = DIRECTION ( 'NONE',  ( 0.000000000000000000, 0.000000000000000000, 1.000000000000000000 ) ) ;
#858 = ADVANCED_FACE ( 'NONE', ( #164 ), #325, .F. ) ;
#859 = FACE_OUTER_BOUND ( 'NONE', #333, .T. ) ;
#860 = VECTOR ( 'NONE', #892, 1000.000000000000000 ) ;
#861 = CARTESIAN_POINT ( 'NONE',  ( 0.000000000000000000, 6.999999999999999112, -2.000000000000000000 ) ) ;
#862 = ORIENTED_EDGE ( 'NONE', *, *, #972, .F. ) ;
#863 = ORIENTED_EDGE ( 'NONE', *, *, #123, .T. ) ;
#864 = AXIS2_PLACEMENT_3D ( 'NONE', #39, #34, #607 ) ;
#865 = EDGE_CURVE ( 'NONE', #703, #44, #200, .T. ) ;
#866 = CARTESIAN_POINT ( 'NONE',  ( 15.24999999999997868, 0.000000000000000000, -17.99999999999999645 ) ) ;
#867 =( NAMED_UNIT ( * ) SI_UNIT ( $, .STERADIAN. ) SOLID_ANGLE_UNIT ( ) );
#868 = VERTEX_POINT ( 'NONE', #637 ) ;
#869 = DIRECTION ( 'NONE',  ( 0.9975187884584629794, 0.000000000000000000, -0.07040075761212150063 ) ) ;
#870 = CARTESIAN_POINT ( 'NONE',  ( 15.25000000000000355, 0.000000000000000000, -13.25000000000000178 ) ) ;
#871 = DIRECTION ( 'NONE',  ( -0.000000000000000000, -1.000000000000000000, -0.000000000000000000 ) ) ;
#872 = EDGE_CURVE ( 'NONE', #265, #945, #741, .T. ) ;
#873 = ORIENTED_EDGE ( 'NONE', *, *, #428, .T. ) ;
#874 = ORIENTED_EDGE ( 'NONE', *, *, #11, .T. ) ;
#875 = DIRECTION ( 'NONE',  ( 0.000000000000000000, 0.000000000000000000, -1.000000000000000000 ) ) ;
#876 = CARTESIAN_POINT ( 'NONE',  ( -15.25000000000000178, 1.500000000000000000, 17.25000000000000000 ) ) ;
#877 = CARTESIAN_POINT ( 'NONE',  ( 15.25000000000000355, 0.000000000000000000, -15.25000000000000000 ) ) ;
#878 = AXIS2_PLACEMENT_3D ( 'NONE', #480, #64, #1033 ) ;
#879 = ORIENTED_EDGE ( 'NONE', *, *, #508, .T. ) ;
#880 = DIRECTION ( 'NONE',  ( 1.000000000000000000, 0.000000000000000000, 0.000000000000000000 ) ) ;
#881 = PRODUCT_DEFINITION_FORMATION_WITH_SPECIFIED_SOURCE ( 'ä»', '', #748, .NOT_KNOWN. ) ;
#882 = CIRCLE ( 'NONE', #59, 2.000000000000000000 ) ;
#883 = VECTOR ( 'NONE', #517, 1000.000000000000000 ) ;
#884 = CARTESIAN_POINT ( 'NONE',  ( 0.000000000000000000, 8.000000000000000000, 0.000000000000000000 ) ) ;
#885 = DIRECTION ( 'NONE',  ( -0.000000000000000000, -1.000000000000000000, -0.000000000000000000 ) ) ;
#886 = EDGE_LOOP ( 'NONE', ( #257, #552 ) ) ;
#887 = ADVANCED_FACE ( 'NONE', ( #319 ), #488, .T. ) ;
#888 = DIRECTION ( 'NONE',  ( 0.000000000000000000, 1.000000000000000000, 0.000000000000000000 ) ) ;
#889 = DIRECTION ( 'NONE',  ( 0.000000000000000000, 0.000000000000000000, -1.000000000000000000 ) ) ;
#890 = EDGE_LOOP ( 'NONE', ( #851, #214, #830, #454 ) ) ;
#891 = ADVANCED_FACE ( 'NONE', ( #812, #248 ), #963, .F. ) ;
#892 = DIRECTION ( 'NONE',  ( -0.000000000000000000, -1.000000000000000000, -0.000000000000000000 ) ) ;
#893 = CARTESIAN_POINT ( 'NONE',  ( 18.00000000000000000, 1.500000000000000000, 15.24999999999998224 ) ) ;
#894 = DIRECTION ( 'NONE',  ( 0.000000000000000000, 0.000000000000000000, 1.000000000000000000 ) ) ;
#895 = AXIS2_PLACEMENT_3D ( 'NONE', #49, #1005, #948 ) ;
#896 = AXIS2_PLACEMENT_3D ( 'NONE', #982, #93, #749 ) ;
#897 = CARTESIAN_POINT ( 'NONE',  ( 15.25000000000000355, 1.500000000000000000, -17.24999999999999645 ) ) ;
#898 = PRESENTATION_LAYER_ASSIGNMENT (  '', '', ( #728 ) ) ;
#899 = CARTESIAN_POINT ( 'NONE',  ( 0.000000000000000000, 0.000000000000000000, 0.000000000000000000 ) ) ;
#900 = ORIENTED_EDGE ( 'NONE', *, *, #513, .T. ) ;
#901 = ITEM_DEFINED_TRANSFORMATION ( 'NONE', 'NONE', #661,  #709 ) ;
#902 = DIRECTION ( 'NONE',  ( -0.000000000000000000, -1.000000000000000000, -0.000000000000000000 ) ) ;
#903 = SURFACE_SIDE_STYLE ('',( #675 ) ) ;
#904 = CARTESIAN_POINT ( 'NONE',  ( -18.00000000000000000, 1.500000000000000000, -15.24999999999997513 ) ) ;
#905 = EDGE_CURVE ( 'NONE', #592, #142, #780, .T. ) ;
#906 = DIRECTION ( 'NONE',  ( -0.000000000000000000, -1.000000000000000000, -0.000000000000000000 ) ) ;
#907 = CARTESIAN_POINT ( 'NONE',  ( 0.000000000000000000, 5.500000000000000000, -1.500000000000000222 ) ) ;
#908 = ORIENTED_EDGE ( 'NONE', *, *, #579, .F. ) ;
#909 = LINE ( 'NONE', #185, #1040 ) ;
#910 = AXIS2_PLACEMENT_3D ( 'NONE', #922, #772, #26 ) ;
#911 = DIRECTION ( 'NONE',  ( -0.000000000000000000, -1.000000000000000000, -0.000000000000000000 ) ) ;
#912 = AXIS2_PLACEMENT_3D ( 'NONE', #567, #801, #574 ) ;
#913 = LINE ( 'NONE', #677, #376 ) ;
#914 = VERTEX_POINT ( 'NONE', #817 ) ;
#915 = EDGE_LOOP ( 'NONE', ( #686, #953 ) ) ;
#916 = PLANE ( 'NONE',  #150 ) ;
#917 = ADVANCED_FACE ( 'NONE', ( #836 ), #359, .T. ) ;
#918 = CARTESIAN_POINT ( 'NONE',  ( 15.25000000000000178, 1.500000000000000000, 15.25000000000000178 ) ) ;
#919 = DIRECTION ( 'NONE',  ( 0.000000000000000000, 0.000000000000000000, 1.000000000000000000 ) ) ;
#920 = ORIENTED_EDGE ( 'NONE', *, *, #392, .F. ) ;
#921 = CARTESIAN_POINT ( 'NONE',  ( 15.25000000000000355, 1.500000000000000000, -13.25000000000000178 ) ) ;
#922 = CARTESIAN_POINT ( 'NONE',  ( -15.25000000000000178, 1.500000000000000000, -15.25000000000000355 ) ) ;
#923 = ORIENTED_EDGE ( 'NONE', *, *, #579, .T. ) ;
#924 = VERTEX_POINT ( 'NONE', #429 ) ;
#925 = DIRECTION ( 'NONE',  ( 0.000000000000000000, 0.000000000000000000, -1.000000000000000000 ) ) ;
#926 = AXIS2_PLACEMENT_3D ( 'NONE', #756, #976, #599 ) ;
#927 = DIRECTION ( 'NONE',  ( 0.000000000000000000, 0.000000000000000000, -1.000000000000000000 ) ) ;
#928 = ADVANCED_FACE ( 'NONE', ( #349 ), #669, .F. ) ;
#929 = ORIENTED_EDGE ( 'NONE', *, *, #123, .F. ) ;
#930 = ORIENTED_EDGE ( 'NONE', *, *, #533, .F. ) ;
#931 = CARTESIAN_POINT ( 'NONE',  ( -15.25000000000000178, 1.500000000000000000, -17.25000000000000000 ) ) ;
#932 = EDGE_CURVE ( 'NONE', #1002, #761, #843, .T. ) ;
#933 = VERTEX_POINT ( 'NONE', #821 ) ;
#934 = VERTEX_POINT ( 'NONE', #433 ) ;
#935 = CARTESIAN_POINT ( 'NONE',  ( -15.25000000000000000, 1.500000000000000000, -15.24999999999999645 ) ) ;
#936 = FILL_AREA_STYLE ('',( #203 ) ) ;
#937 = UNCERTAINTY_MEASURE_WITH_UNIT (LENGTH_MEASURE( 1.000000000000000082E-05 ), #943, 'distance_accuracy_value', 'NONE');
#938 = ORIENTED_EDGE ( 'NONE', *, *, #118, .T. ) ;
#939 = PRODUCT_DEFINITION ( 'æœ', '', #540, #234 ) ;
#940 = CARTESIAN_POINT ( 'NONE',  ( 15.25000000000000355, 1.500000000000000000, -15.25000000000000000 ) ) ;
#941 = VECTOR ( 'NONE', #684, 1000.000000000000000 ) ;
#942 = AXIS2_PLACEMENT_3D ( 'NONE', #107, #680, #285 ) ;
#943 =( LENGTH_UNIT ( ) NAMED_UNIT ( * ) SI_UNIT ( .MILLI., .METRE. ) );
#944 = ORIENTED_EDGE ( 'NONE', *, *, #508, .F. ) ;
#945 = VERTEX_POINT ( 'NONE', #751 ) ;
#946 = VECTOR ( 'NONE', #74, 1000.000000000000000 ) ;
#947 = ADVANCED_FACE ( 'NONE', ( #587 ), #279, .T. ) ;
#948 = DIRECTION ( 'NONE',  ( 0.000000000000000000, 0.000000000000000000, -1.000000000000000000 ) ) ;
#949 = SURFACE_STYLE_FILL_AREA ( #936 ) ;
#950 = EDGE_LOOP ( 'NONE', ( #1007, #998 ) ) ;
#951 = CARTESIAN_POINT ( 'NONE',  ( 0.000000000000000000, 8.000000000000000000, 0.000000000000000000 ) ) ;
#952 = CARTESIAN_POINT ( 'NONE',  ( 0.000000000000000000, 8.000000000000000000, 0.000000000000000000 ) ) ;
#953 = ORIENTED_EDGE ( 'NONE', *, *, #966, .T. ) ;
#954 = DIRECTION ( 'NONE',  ( 1.000000000000000000, 0.000000000000000000, 0.000000000000000000 ) ) ;
#955 = DIRECTION ( 'NONE',  ( 0.000000000000000000, 0.000000000000000000, -1.000000000000000000 ) ) ;
#956 = DIRECTION ( 'NONE',  ( 0.000000000000000000, 0.000000000000000000, 1.000000000000000000 ) ) ;
#957 = AXIS2_PLACEMENT_3D ( 'NONE', #243, #888, #499 ) ;
#958 = EDGE_LOOP ( 'NONE', ( #119, #929 ) ) ;
#959 = EDGE_CURVE ( 'NONE', #868, #337, #909, .T. ) ;
#960 = APPLICATION_PROTOCOL_DEFINITION ( 'draft international standard', 'automotive_design', 1998, #175 ) ;
#961 = AXIS2_PLACEMENT_3D ( 'NONE', #269, #431, #362 ) ;
#962 = AXIS2_PLACEMENT_3D ( 'NONE', #837, #988, #583 ) ;
#963 = PLANE ( 'NONE',  #957 ) ;
#964 = FACE_OUTER_BOUND ( 'NONE', #373, .T. ) ;
#965 = ORIENTED_EDGE ( 'NONE', *, *, #32, .F. ) ;
#966 = EDGE_CURVE ( 'NONE', #761, #1002, #624, .T. ) ;
#967 = DIRECTION ( 'NONE',  ( -0.000000000000000000, -1.000000000000000000, -0.000000000000000000 ) ) ;
#968 = ORIENTED_EDGE ( 'NONE', *, *, #118, .F. ) ;
#969 = CARTESIAN_POINT ( 'NONE',  ( 15.25000000000000178, 0.000000000000000000, 13.25000000000000000 ) ) ;
#970 = EDGE_LOOP ( 'NONE', ( #968, #48, #692, #545 ) ) ;
#971 = CONTEXT_DEPENDENT_SHAPE_REPRESENTATION ( #823, #322 ) ;
#972 = EDGE_CURVE ( 'NONE', #496, #924, #665, .T. ) ;
#973 = CYLINDRICAL_SURFACE ( 'NONE', #372, 3.000000000000000444 ) ;
#974 = FACE_BOUND ( 'NONE', #653, .T. ) ;
#975 = ORIENTED_EDGE ( 'NONE', *, *, #619, .T. ) ;
#976 = DIRECTION ( 'NONE',  ( 0.000000000000000000, 1.000000000000000000, 0.000000000000000000 ) ) ;
#977 = CLOSED_SHELL ( 'NONE', ( #330, #917, #543, #947, #369, #1034, #341, #320, #315, #789, #891, #768 ) ) ;
#978 = AXIS2_PLACEMENT_3D ( 'NONE', #656, #551, #495 ) ;
#979 = EDGE_CURVE ( 'NONE', #840, #367, #237, .T. ) ;
#980 = CYLINDRICAL_SURFACE ( 'NONE', #962, 1.500000000000000222 ) ;
#981 = ORIENTED_EDGE ( 'NONE', *, *, #688, .T. ) ;
#982 = CARTESIAN_POINT ( 'NONE',  ( 0.000000000000000000, 0.000000000000000000, 0.000000000000000000 ) ) ;
#983 = CARTESIAN_POINT ( 'NONE',  ( -15.25000000000000178, 1.500000000000000000, 15.25000000000000178 ) ) ;
#984 = ADVANCED_FACE ( 'NONE', ( #95 ), #345, .F. ) ;
#985 = DIRECTION ( 'NONE',  ( 0.000000000000000000, -0.000000000000000000, 1.000000000000000000 ) ) ;
#986 = ORIENTED_EDGE ( 'NONE', *, *, #666, .T. ) ;
#987 = DIRECTION ( 'NONE',  ( -1.000000000000000000, 0.000000000000000000, 0.000000000000000000 ) ) ;
#988 = DIRECTION ( 'NONE',  ( -0.000000000000000000, -1.000000000000000000, -0.000000000000000000 ) ) ;
#989 = CYLINDRICAL_SURFACE ( 'NONE', #1042, 2.749999999999999112 ) ;
#990 = EDGE_CURVE ( 'NONE', #511, #1048, #489, .T. ) ;
#991 = EDGE_LOOP ( 'NONE', ( #850, #314 ) ) ;
#992 = VECTOR ( 'NONE', #33, 1000.000000000000000 ) ;
#993 = DIRECTION ( 'NONE',  ( 0.000000000000000000, 1.000000000000000000, 0.000000000000000000 ) ) ;
#994 = AXIS2_PLACEMENT_3D ( 'NONE', #71, #374, #401 ) ;
#995 = DIRECTION ( 'NONE',  ( 0.000000000000000000, 0.000000000000000000, 1.000000000000000000 ) ) ;
#996 = CIRCLE ( 'NONE', #79, 2.749999999999999112 ) ;
#997 = CARTESIAN_POINT ( 'NONE',  ( 0.000000000000000000, 8.000000000000000000, -3.000000000000000444 ) ) ;
#998 = ORIENTED_EDGE ( 'NONE', *, *, #1017, .F. ) ;
#999 = DIRECTION ( 'NONE',  ( 0.000000000000000000, 0.000000000000000000, 1.000000000000000000 ) ) ;
#1000 =( LENGTH_UNIT ( ) NAMED_UNIT ( * ) SI_UNIT ( .MILLI., .METRE. ) );
#1001 = CARTESIAN_POINT ( 'NONE',  ( -15.25000000000000178, 0.000000000000000000, 15.25000000000000178 ) ) ;
#1002 = VERTEX_POINT ( 'NONE', #176 ) ;
#1003 = EDGE_LOOP ( 'NONE', ( #77, #137 ) ) ;
#1004 = ADVANCED_BREP_SHAPE_REPRESENTATION ( '', ( #568, #709 ), #608 ) ;
#1005 = DIRECTION ( 'NONE',  ( -0.000000000000000000, -1.000000000000000000, -0.000000000000000000 ) ) ;
#1006 = CARTESIAN_POINT ( 'NONE',  ( -15.24999999999997868, 1.500000000000000000, 18.00000000000000355 ) ) ;
#1007 = ORIENTED_EDGE ( 'NONE', *, *, #465, .F. ) ;
#1008 = AXIS2_PLACEMENT_3D ( 'NONE', #236, #566, #316 ) ;
#1009 = AXIS2_PLACEMENT_3D ( 'NONE', #378, #387, #364 ) ;
#1010 = DIRECTION ( 'NONE',  ( 0.000000000000000000, 1.000000000000000000, -0.000000000000000000 ) ) ;
#1011 = AXIS2_PLACEMENT_3D ( 'NONE', #660, #902, #825 ) ;
#1012 = DIRECTION ( 'NONE',  ( 0.000000000000000000, 0.000000000000000000, -1.000000000000000000 ) ) ;
#1013 = MECHANICAL_DESIGN_GEOMETRIC_PRESENTATION_REPRESENTATION (  '', ( #728 ), #3 ) ;
#1014 = EDGE_LOOP ( 'NONE', ( #88, #458, #622, #198 ) ) ;
#1015 = ORIENTED_EDGE ( 'NONE', *, *, #872, .T. ) ;
#1016 = DIRECTION ( 'NONE',  ( 0.000000000000000000, 0.000000000000000000, 1.000000000000000000 ) ) ;
#1017 = EDGE_CURVE ( 'NONE', #222, #352, #1026, .T. ) ;
#1018 = CARTESIAN_POINT ( 'NONE',  ( 0.000000000000000000, 6.999999999999999112, 0.000000000000000000 ) ) ;
#1019 = EDGE_LOOP ( 'NONE', ( #449, #437, #563, #965 ) ) ;
#1020 = CARTESIAN_POINT ( 'NONE',  ( -15.24999999999997868, 1.500000000000000000, 18.00000000000000355 ) ) ;
#1021 = CARTESIAN_POINT ( 'NONE',  ( 15.25000000000000000, 1.500000000000000000, -15.24999999999999645 ) ) ;
#1022 = ORIENTED_EDGE ( 'NONE', *, *, #808, .T. ) ;
#1023 =( NAMED_UNIT ( * ) PLANE_ANGLE_UNIT ( ) SI_UNIT ( $, .RADIAN. ) );
#1024 = EDGE_CURVE ( 'NONE', #750, #466, #353, .T. ) ;
#1025 = DIRECTION ( 'NONE',  ( -0.000000000000000000, -1.000000000000000000, -0.000000000000000000 ) ) ;
#1026 = CIRCLE ( 'NONE', #926, 2.000000000000000000 ) ;
#1027 = DIRECTION ( 'NONE',  ( 0.000000000000000000, 1.000000000000000000, -0.000000000000000000 ) ) ;
#1028 = EDGE_LOOP ( 'NONE', ( #226, #856, #819, #874 ) ) ;
#1029 = CIRCLE ( 'NONE', #961, 2.000000000000000000 ) ;
#1030 = DIRECTION ( 'NONE',  ( 0.000000000000000000, 0.000000000000000000, -1.000000000000000000 ) ) ;
#1031 = PRODUCT_DEFINITION_SHAPE ( 'NONE', 'NONE',  #939 ) ;
#1032 = ORIENTED_EDGE ( 'NONE', *, *, #165, .T. ) ;
#1033 = DIRECTION ( 'NONE',  ( 0.000000000000000000, 0.000000000000000000, 1.000000000000000000 ) ) ;
#1034 = ADVANCED_FACE ( 'NONE', ( #673, #180 ), #916, .F. ) ;
#1035 = DIRECTION ( 'NONE',  ( 0.000000000000000000, 1.000000000000000000, 0.000000000000000000 ) ) ;
#1036 = CARTESIAN_POINT ( 'NONE',  ( 0.000000000000000000, 6.999999999999999112, -2.000000000000000000 ) ) ;
#1037 = CARTESIAN_POINT ( 'NONE',  ( 0.000000000000000000, 0.000000000000000000, 0.000000000000000000 ) ) ;
#1038 = CARTESIAN_POINT ( 'NONE',  ( 15.25000000000000178, 0.000000000000000000, 17.25000000000000000 ) ) ;
#1039 = CARTESIAN_POINT ( 'NONE',  ( 0.000000000000000000, 5.500000000000000000, -3.000000000000000444 ) ) ;
#1040 = VECTOR ( 'NONE', #832, 1000.000000000000000 ) ;
#1041 = ORIENTED_EDGE ( 'NONE', *, *, #217, .F. ) ;
#1042 = AXIS2_PLACEMENT_3D ( 'NONE', #681, #348, #288 ) ;
#1043 = CARTESIAN_POINT ( 'NONE',  ( -15.25000000000000178, 1.500000000000000000, -13.25000000000000355 ) ) ;
#1044 = CARTESIAN_POINT ( 'NONE',  ( 0.000000000000000000, 8.000000000000000000, 0.000000000000000000 ) ) ;
#1045 = VERTEX_POINT ( 'NONE', #190 ) ;
#1046 = APPLICATION_PROTOCOL_DEFINITION ( 'draft international standard', 'automotive_design', 1998, #664 ) ;
#1047 = LINE ( 'NONE', #414, #725 ) ;
#1048 = VERTEX_POINT ( 'NONE', #233 ) ;
#1049 = NEXT_ASSEMBLY_USAGE_OCCURRENCE ( 'NAUO1', ' ', ' ', #37, #565, $ ) ;
#1050 = NEXT_ASSEMBLY_USAGE_OCCURRENCE ( 'NAUO2', ' ', ' ', #37, #939, $ ) ;
#1051 = NEXT_ASSEMBLY_USAGE_OCCURRENCE ( 'NAUO3', ' ', ' ', #37, #565, $ ) ;
#1052 = NEXT_ASSEMBLY_USAGE_OCCURRENCE ( 'NAUO4', ' ', ' ', #37, #565, $ ) ;
#1053 = NEXT_ASSEMBLY_USAGE_OCCURRENCE ( 'NAUO5', ' ', ' ', #37, #565, $ ) ;
ENDSEC;
END-ISO-10303-21;
