ISO-10303-21;
HEADER;
FILE_DESCRIPTION(
  ('This file contains a STEP AP42 implementation'
    ,'as created by ZW3D STEP Interface translator.')
  ,'2;1'
  );
FILE_NAME(
  'Ωµ‘Î∞Â.stp'
  ,'221117. 9 551',
  (''),
  ('ZWCAD Software Co.'),
  'Version 1.0',
  'ZW3D to STEP translator',
  ''
  );
FILE_SCHEMA(('AUTOMOTIVE_DESIGN { 1 0 10303 214 1 1 1 1 }'));
ENDSEC;

DATA;

/**File Base Unit**/
#1 = (LENGTH_UNIT()NAMED_UNIT(*)SI_UNIT(.MILLI.,.METRE.));
#2 = (NAMED_UNIT(*)PLANE_ANGLE_UNIT()SI_UNIT($,.RADIAN.));
#3 = (NAMED_UNIT(*)SI_UNIT($,.STERADIAN.)SOLID_ANGLE_UNIT());
#4 = UNCERTAINTY_MEASURE_WITH_UNIT(LENGTH_MEASURE(0.01),#1,'DISTANCE_ACCURACY_VALUE','Maximum Tolerance applied to model');
#5 = (GEOMETRIC_REPRESENTATION_CONTEXT(3)GLOBAL_UNCERTAINTY_ASSIGNED_CONTEXT((#4))GLOBAL_UNIT_ASSIGNED_CONTEXT((#1,#2,#3))REPRESENTATION_CONTEXT('STEP 203','TOP_LEVEL_ASSEMBLY_PART'));

/**product_definition_shape**/
#6=APPLICATION_CONTEXT('mechanical parts and assemblies' );
#7=DESIGN_CONTEXT('NONE',#6,'design');
#8=MECHANICAL_CONTEXT('NONE',#6,'mechanical');
#9=PRODUCT('0','Part','',(#8));
#10=PRODUCT_DEFINITION_FORMATION_WITH_SPECIFIED_SOURCE('ANY','',#9,.NOT_KNOWN.);
#11=PRODUCT_DEFINITION('UNKNOWN','',#10,#7);
#12=PRODUCT_DEFINITION_SHAPE('NONE','NONE',#11);
#13=PRODUCT_RELATED_PRODUCT_CATEGORY('detail','',(#9));
/**geometry information**/
#14=CARTESIAN_POINT('',(0.,0.,0.));
#15=DIRECTION('',(0.,0.,1.));
#16=DIRECTION('',(1.,0.,0.));
#17=AXIS2_PLACEMENT_3D('',#14,#15,#16);
#18=APPLICATION_CONTEXT('part');
#19=MECHANICAL_CONTEXT('none',#18,'component');
#20=PRODUCT('Ωµ‘Î∞Â','Ωµ‘Î∞Â','',(#19));
#21=PRODUCT_RELATED_PRODUCT_CATEGORY('detail','',(#20));
#22=PRODUCT_DEFINITION_FORMATION_WITH_SPECIFIED_SOURCE('ANY','UNSPECIFIED',#20,.NOT_KNOWN.);
#23=APPLICATION_CONTEXT('part');
#24=APPLICATION_PROTOCOL_DEFINITION('international standard','config_control_design',1994,#23);
#25=DESIGN_CONTEXT('detailed',#23,'design');
#26=PRODUCT_DEFINITION('','UNSPECIFIED',#22,#25);
#27=PRODUCT_DEFINITION_SHAPE('NONE','NONE',#26);
#28=SHAPE_REPRESENTATION('Ωµ‘Î∞Â',(#17),#5);
#29=SHAPE_DEFINITION_REPRESENTATION(#27,#28);
#30=CARTESIAN_POINT('',(40.,-19.632586221349,1.2));
#31=DIRECTION('',(1.,0.,0.));
#32=DIRECTION('',(0.,0.,-1.));
#33=AXIS2_PLACEMENT_3D('',#30,#32,#31);
#34=PLANE('',#33);
#35=CARTESIAN_POINT('',(41.75,-20.,1.2));
#36=VERTEX_POINT('',#35);
#37=CARTESIAN_POINT('',(40.,-20.,1.2));
#38=DIRECTION('',(1.,-1.4355131050823E-15,-4.4859784533822E-17));
#39=DIRECTION('',(-4.4859784533822E-17,4.4859784533822E-17,-1.));
#40=AXIS2_PLACEMENT_3D('',#37,#39,#38);
#41=CIRCLE('',#40,1.75);
#42=EDGE_CURVE('',#36,#36,#41,.T.);
#43=ORIENTED_EDGE('',*,*,#42,.T.);
#44=EDGE_LOOP('',(#43));
#45=FACE_OUTER_BOUND('',#44,.T.);
#46=CARTESIAN_POINT('',(41.5,-20.,1.2));
#47=VERTEX_POINT('',#46);
#48=CARTESIAN_POINT('',(40.,-20.,1.2));
#49=DIRECTION('',(1.,-2.7391003653507E-33,-5.2336415289459E-17));
#50=DIRECTION('',(5.2336415289459E-17,5.2336415289459E-17,1.));
#51=AXIS2_PLACEMENT_3D('',#48,#50,#49);
#52=CIRCLE('',#51,1.5);
#53=EDGE_CURVE('',#47,#47,#52,.T.);
#54=ORIENTED_EDGE('',*,*,#53,.T.);
#55=EDGE_LOOP('',(#54));
#56=FACE_BOUND('',#55,.T.);
#57=ADVANCED_FACE('',(#45,#56),#34,.T.);
#58=CARTESIAN_POINT('',(40.,-19.632586221349,12.2));
#59=DIRECTION('',(1.,0.,0.));
#60=DIRECTION('',(0.,0.,1.));
#61=AXIS2_PLACEMENT_3D('',#58,#60,#59);
#62=PLANE('',#61);
#63=CARTESIAN_POINT('',(38.25,-20.,12.2));
#64=VERTEX_POINT('',#63);
#65=CARTESIAN_POINT('',(40.,-20.,12.2));
#66=DIRECTION('',(-1.,1.2879361717894E-31,3.5887827627058E-16));
#67=DIRECTION('',(3.5887827627058E-16,3.5887827627058E-16,1.));
#68=AXIS2_PLACEMENT_3D('',#65,#67,#66);
#69=CIRCLE('',#68,1.75);
#70=EDGE_CURVE('',#64,#64,#69,.T.);
#71=ORIENTED_EDGE('',*,*,#70,.T.);
#72=EDGE_LOOP('',(#71));
#73=FACE_OUTER_BOUND('',#72,.T.);
#74=CARTESIAN_POINT('',(41.5,-20.,12.2));
#75=VERTEX_POINT('',#74);
#76=CARTESIAN_POINT('',(40.,-20.,12.2));
#77=DIRECTION('',(1.,6.711325527111E-31,1.6029292152492E-15));
#78=DIRECTION('',(1.6029292152492E-15,-4.1869132231567E-16,-1.));
#79=AXIS2_PLACEMENT_3D('',#76,#78,#77);
#80=CIRCLE('',#79,1.5);
#81=EDGE_CURVE('',#75,#75,#80,.T.);
#82=ORIENTED_EDGE('',*,*,#81,.T.);
#83=EDGE_LOOP('',(#82));
#84=FACE_BOUND('',#83,.T.);
#85=ADVANCED_FACE('',(#73,#84),#62,.T.);
#86=CARTESIAN_POINT('',(42.056810333988,-18.8125,6.7));
#87=DIRECTION('',(-0.5,0.86602540378444,0.));
#88=DIRECTION('',(0.86602540378444,0.5,-0.));
#89=AXIS2_PLACEMENT_3D('',#86,#88,#87);
#90=PLANE('',#89);
#91=CARTESIAN_POINT('',(41.371206889325,-17.625,1.2));
#92=VERTEX_POINT('',#91);
#93=CARTESIAN_POINT('',(42.742413778651,-20.,1.2));
#94=VERTEX_POINT('',#93);
#95=CARTESIAN_POINT('',(41.371206889325,-17.625,1.2));
#96=DIRECTION('',(0.50000000000017,-0.86602540378434,0.));
#97=VECTOR('',#96,2.742413778651);
#98=LINE('',#95,#97);
#99=EDGE_CURVE('',#92,#94,#98,.T.);
#100=ORIENTED_EDGE('',*,*,#99,.F.);
#101=CARTESIAN_POINT('',(41.371206889325,-17.625,12.2));
#102=VERTEX_POINT('',#101);
#103=CARTESIAN_POINT('',(41.371206889325,-17.625,1.2));
#104=DIRECTION('',(0.,0.,1.));
#105=VECTOR('',#104,11.);
#106=LINE('',#103,#105);
#107=EDGE_CURVE('',#92,#102,#106,.T.);
#108=ORIENTED_EDGE('',*,*,#107,.T.);
#109=CARTESIAN_POINT('',(42.742413778651,-20.,12.2));
#110=VERTEX_POINT('',#109);
#111=CARTESIAN_POINT('',(42.742413778651,-20.,12.2));
#112=DIRECTION('',(-0.50000000000017,0.86602540378434,0.));
#113=VECTOR('',#112,2.742413778651);
#114=LINE('',#111,#113);
#115=EDGE_CURVE('',#110,#102,#114,.T.);
#116=ORIENTED_EDGE('',*,*,#115,.F.);
#117=CARTESIAN_POINT('',(42.742413778651,-20.,12.2));
#118=DIRECTION('',(0.,0.,-1.));
#119=VECTOR('',#118,11.);
#120=LINE('',#117,#119);
#121=EDGE_CURVE('',#110,#94,#120,.T.);
#122=ORIENTED_EDGE('',*,*,#121,.T.);
#123=EDGE_LOOP('',(#100,#108,#116,#122));
#124=FACE_OUTER_BOUND('',#123,.T.);
#125=ADVANCED_FACE('',(#124),#90,.T.);
#126=CARTESIAN_POINT('',(40.,-17.625,6.7));
#127=DIRECTION('',(-1.,0.,0.));
#128=DIRECTION('',(0.,1.,-0.));
#129=AXIS2_PLACEMENT_3D('',#126,#128,#127);
#130=PLANE('',#129);
#131=CARTESIAN_POINT('',(38.628793110675,-17.625,1.2));
#132=VERTEX_POINT('',#131);
#133=CARTESIAN_POINT('',(38.628793110675,-17.625,1.2));
#134=DIRECTION('',(1.,0.,0.));
#135=VECTOR('',#134,2.74241377865);
#136=LINE('',#133,#135);
#137=EDGE_CURVE('',#132,#92,#136,.T.);
#138=ORIENTED_EDGE('',*,*,#137,.F.);
#139=CARTESIAN_POINT('',(38.628793110675,-17.625,12.2));
#140=VERTEX_POINT('',#139);
#141=CARTESIAN_POINT('',(38.628793110675,-17.625,1.2));
#142=DIRECTION('',(0.,0.,1.));
#143=VECTOR('',#142,11.);
#144=LINE('',#141,#143);
#145=EDGE_CURVE('',#132,#140,#144,.T.);
#146=ORIENTED_EDGE('',*,*,#145,.T.);
#147=CARTESIAN_POINT('',(41.371206889325,-17.625,12.2));
#148=DIRECTION('',(-1.,0.,0.));
#149=VECTOR('',#148,2.74241377865);
#150=LINE('',#147,#149);
#151=EDGE_CURVE('',#102,#140,#150,.T.);
#152=ORIENTED_EDGE('',*,*,#151,.F.);
#153=ORIENTED_EDGE('',*,*,#107,.F.);
#154=EDGE_LOOP('',(#138,#146,#152,#153));
#155=FACE_OUTER_BOUND('',#154,.T.);
#156=ADVANCED_FACE('',(#155),#130,.T.);
#157=CARTESIAN_POINT('',(37.943189666012,-18.8125,6.7));
#158=DIRECTION('',(-0.5,-0.86602540378444,0.));
#159=DIRECTION('',(-0.86602540378444,0.5,0.));
#160=AXIS2_PLACEMENT_3D('',#157,#159,#158);
#161=PLANE('',#160);
#162=CARTESIAN_POINT('',(37.257586221349,-20.,1.2));
#163=VERTEX_POINT('',#162);
#164=CARTESIAN_POINT('',(37.257586221349,-20.,1.2));
#165=DIRECTION('',(0.50000000000017,0.86602540378434,0.));
#166=VECTOR('',#165,2.742413778651);
#167=LINE('',#164,#166);
#168=EDGE_CURVE('',#163,#132,#167,.T.);
#169=ORIENTED_EDGE('',*,*,#168,.F.);
#170=CARTESIAN_POINT('',(37.257586221349,-20.,12.2));
#171=VERTEX_POINT('',#170);
#172=CARTESIAN_POINT('',(37.257586221349,-20.,1.2));
#173=DIRECTION('',(0.,0.,1.));
#174=VECTOR('',#173,11.);
#175=LINE('',#172,#174);
#176=EDGE_CURVE('',#163,#171,#175,.T.);
#177=ORIENTED_EDGE('',*,*,#176,.T.);
#178=CARTESIAN_POINT('',(38.628793110675,-17.625,12.2));
#179=DIRECTION('',(-0.50000000000017,-0.86602540378434,0.));
#180=VECTOR('',#179,2.742413778651);
#181=LINE('',#178,#180);
#182=EDGE_CURVE('',#140,#171,#181,.T.);
#183=ORIENTED_EDGE('',*,*,#182,.F.);
#184=ORIENTED_EDGE('',*,*,#145,.F.);
#185=EDGE_LOOP('',(#169,#177,#183,#184));
#186=FACE_OUTER_BOUND('',#185,.T.);
#187=ADVANCED_FACE('',(#186),#161,.T.);
#188=CARTESIAN_POINT('',(37.943189666012,-21.1875,6.7));
#189=DIRECTION('',(0.5,-0.86602540378444,0.));
#190=DIRECTION('',(-0.86602540378444,-0.5,0.));
#191=AXIS2_PLACEMENT_3D('',#188,#190,#189);
#192=PLANE('',#191);
#193=CARTESIAN_POINT('',(38.628793110675,-22.375,1.2));
#194=VERTEX_POINT('',#193);
#195=CARTESIAN_POINT('',(38.628793110675,-22.375,1.2));
#196=DIRECTION('',(-0.50000000000017,0.86602540378434,0.));
#197=VECTOR('',#196,2.742413778651);
#198=LINE('',#195,#197);
#199=EDGE_CURVE('',#194,#163,#198,.T.);
#200=ORIENTED_EDGE('',*,*,#199,.F.);
#201=CARTESIAN_POINT('',(38.628793110675,-22.375,12.2));
#202=VERTEX_POINT('',#201);
#203=CARTESIAN_POINT('',(38.628793110675,-22.375,1.2));
#204=DIRECTION('',(0.,0.,1.));
#205=VECTOR('',#204,11.);
#206=LINE('',#203,#205);
#207=EDGE_CURVE('',#194,#202,#206,.T.);
#208=ORIENTED_EDGE('',*,*,#207,.T.);
#209=CARTESIAN_POINT('',(37.257586221349,-20.,12.2));
#210=DIRECTION('',(0.50000000000017,-0.86602540378434,0.));
#211=VECTOR('',#210,2.742413778651);
#212=LINE('',#209,#211);
#213=EDGE_CURVE('',#171,#202,#212,.T.);
#214=ORIENTED_EDGE('',*,*,#213,.F.);
#215=ORIENTED_EDGE('',*,*,#176,.F.);
#216=EDGE_LOOP('',(#200,#208,#214,#215));
#217=FACE_OUTER_BOUND('',#216,.T.);
#218=ADVANCED_FACE('',(#217),#192,.T.);
#219=CARTESIAN_POINT('',(40.,-22.375,6.7));
#220=DIRECTION('',(1.,0.,0.));
#221=DIRECTION('',(0.,-1.,0.));
#222=AXIS2_PLACEMENT_3D('',#219,#221,#220);
#223=PLANE('',#222);
#224=CARTESIAN_POINT('',(41.371206889325,-22.375,1.2));
#225=VERTEX_POINT('',#224);
#226=CARTESIAN_POINT('',(41.371206889325,-22.375,1.2));
#227=DIRECTION('',(-1.,0.,0.));
#228=VECTOR('',#227,2.74241377865);
#229=LINE('',#226,#228);
#230=EDGE_CURVE('',#225,#194,#229,.T.);
#231=ORIENTED_EDGE('',*,*,#230,.F.);
#232=CARTESIAN_POINT('',(41.371206889325,-22.375,12.2));
#233=VERTEX_POINT('',#232);
#234=CARTESIAN_POINT('',(41.371206889325,-22.375,1.2));
#235=DIRECTION('',(0.,0.,1.));
#236=VECTOR('',#235,11.);
#237=LINE('',#234,#236);
#238=EDGE_CURVE('',#225,#233,#237,.T.);
#239=ORIENTED_EDGE('',*,*,#238,.T.);
#240=CARTESIAN_POINT('',(38.628793110675,-22.375,12.2));
#241=DIRECTION('',(1.,0.,0.));
#242=VECTOR('',#241,2.74241377865);
#243=LINE('',#240,#242);
#244=EDGE_CURVE('',#202,#233,#243,.T.);
#245=ORIENTED_EDGE('',*,*,#244,.F.);
#246=ORIENTED_EDGE('',*,*,#207,.F.);
#247=EDGE_LOOP('',(#231,#239,#245,#246));
#248=FACE_OUTER_BOUND('',#247,.T.);
#249=ADVANCED_FACE('',(#248),#223,.T.);
#250=CARTESIAN_POINT('',(42.056810333988,-21.1875,6.7));
#251=DIRECTION('',(0.5,0.86602540378444,0.));
#252=DIRECTION('',(0.86602540378444,-0.5,0.));
#253=AXIS2_PLACEMENT_3D('',#250,#252,#251);
#254=PLANE('',#253);
#255=CARTESIAN_POINT('',(42.742413778651,-20.,1.2));
#256=DIRECTION('',(-0.50000000000017,-0.86602540378434,0.));
#257=VECTOR('',#256,2.742413778651);
#258=LINE('',#255,#257);
#259=EDGE_CURVE('',#94,#225,#258,.T.);
#260=ORIENTED_EDGE('',*,*,#259,.F.);
#261=ORIENTED_EDGE('',*,*,#121,.F.);
#262=CARTESIAN_POINT('',(41.371206889325,-22.375,12.2));
#263=DIRECTION('',(0.50000000000017,0.86602540378434,0.));
#264=VECTOR('',#263,2.742413778651);
#265=LINE('',#262,#264);
#266=EDGE_CURVE('',#233,#110,#265,.T.);
#267=ORIENTED_EDGE('',*,*,#266,.F.);
#268=ORIENTED_EDGE('',*,*,#238,.F.);
#269=EDGE_LOOP('',(#260,#261,#267,#268));
#270=FACE_OUTER_BOUND('',#269,.T.);
#271=ADVANCED_FACE('',(#270),#254,.T.);
#272=CARTESIAN_POINT('',(40.,-20.,1.2));
#273=DIRECTION('',(1.,0.,1.4802973661669E-16));
#274=DIRECTION('',(0.,0.,1.));
#275=AXIS2_PLACEMENT_3D('',#272,#274,#273);
#276=CYLINDRICAL_SURFACE('',#275,1.5);
#277=ORIENTED_EDGE('',*,*,#53,.F.);
#278=CARTESIAN_POINT('',(41.5,-20.,1.2));
#279=DIRECTION('',(0.,0.,1.));
#280=VECTOR('',#279,11.);
#281=LINE('',#278,#280);
#282=EDGE_CURVE('',#47,#75,#281,.T.);
#283=ORIENTED_EDGE('',*,*,#282,.T.);
#284=ORIENTED_EDGE('',*,*,#81,.F.);
#285=ORIENTED_EDGE('',*,*,#282,.F.);
#286=EDGE_LOOP('',(#277,#283,#284,#285));
#287=FACE_OUTER_BOUND('',#286,.T.);
#288=ADVANCED_FACE('',(#287),#276,.F.);
#289=CARTESIAN_POINT('',(7.105427357601E-15,20.,1.2));
#290=DIRECTION('',(1.,0.,0.));
#291=DIRECTION('',(0.,0.,1.));
#292=AXIS2_PLACEMENT_3D('',#289,#291,#290);
#293=PLANE('',#292);
#294=CARTESIAN_POINT('',(-43.,-25.,1.2));
#295=VERTEX_POINT('',#294);
#296=CARTESIAN_POINT('',(43.,-25.,1.2));
#297=VERTEX_POINT('',#296);
#298=CARTESIAN_POINT('',(-43.,-25.,1.2));
#299=DIRECTION('',(1.,0.,0.));
#300=VECTOR('',#299,86.);
#301=LINE('',#298,#300);
#302=EDGE_CURVE('',#295,#297,#301,.T.);
#303=ORIENTED_EDGE('',*,*,#302,.T.);
#304=CARTESIAN_POINT('',(45.,-23.,1.2));
#305=VERTEX_POINT('',#304);
#306=CARTESIAN_POINT('',(43.,-23.,1.2));
#307=DIRECTION('',(-3.5527136788005E-15,-1.,-1.1102230246252E-16));
#308=DIRECTION('',(1.0051183062408E-16,-1.0051183062408E-16,1.));
#309=AXIS2_PLACEMENT_3D('',#306,#308,#307);
#310=CIRCLE('',#309,2.);
#311=EDGE_CURVE('',#297,#305,#310,.T.);
#312=ORIENTED_EDGE('',*,*,#311,.T.);
#313=CARTESIAN_POINT('',(45.,23.,1.2));
#314=VERTEX_POINT('',#313);
#315=CARTESIAN_POINT('',(45.,-23.,1.2));
#316=DIRECTION('',(0.,1.,0.));
#317=VECTOR('',#316,46.);
#318=LINE('',#315,#317);
#319=EDGE_CURVE('',#305,#314,#318,.T.);
#320=ORIENTED_EDGE('',*,*,#319,.T.);
#321=CARTESIAN_POINT('',(43.,25.,1.2));
#322=VERTEX_POINT('',#321);
#323=CARTESIAN_POINT('',(43.,23.,1.2));
#324=DIRECTION('',(1.,0.,-1.1102230246252E-16));
#325=DIRECTION('',(1.0051183062408E-16,1.0051183062408E-16,1.));
#326=AXIS2_PLACEMENT_3D('',#323,#325,#324);
#327=CIRCLE('',#326,2.);
#328=EDGE_CURVE('',#314,#322,#327,.T.);
#329=ORIENTED_EDGE('',*,*,#328,.T.);
#330=CARTESIAN_POINT('',(-43.,25.,1.2));
#331=VERTEX_POINT('',#330);
#332=CARTESIAN_POINT('',(43.,25.,1.2));
#333=DIRECTION('',(-1.,0.,0.));
#334=VECTOR('',#333,86.);
#335=LINE('',#332,#334);
#336=EDGE_CURVE('',#322,#331,#335,.T.);
#337=ORIENTED_EDGE('',*,*,#336,.T.);
#338=CARTESIAN_POINT('',(-45.,23.,1.2));
#339=VERTEX_POINT('',#338);
#340=CARTESIAN_POINT('',(-43.,23.,1.2));
#341=DIRECTION('',(3.5527136788005E-15,1.,-1.1102230246252E-16));
#342=DIRECTION('',(-1.0051183062408E-16,1.0051183062408E-16,1.));
#343=AXIS2_PLACEMENT_3D('',#340,#342,#341);
#344=CIRCLE('',#343,2.);
#345=EDGE_CURVE('',#331,#339,#344,.T.);
#346=ORIENTED_EDGE('',*,*,#345,.T.);
#347=CARTESIAN_POINT('',(-45.,-23.,1.2));
#348=VERTEX_POINT('',#347);
#349=CARTESIAN_POINT('',(-45.,23.,1.2));
#350=DIRECTION('',(0.,-1.,0.));
#351=VECTOR('',#350,46.);
#352=LINE('',#349,#351);
#353=EDGE_CURVE('',#339,#348,#352,.T.);
#354=ORIENTED_EDGE('',*,*,#353,.T.);
#355=CARTESIAN_POINT('',(-43.,-23.,1.2));
#356=DIRECTION('',(-1.,0.,-1.1102230246252E-16));
#357=DIRECTION('',(-1.0051183062408E-16,-1.0051183062408E-16,1.));
#358=AXIS2_PLACEMENT_3D('',#355,#357,#356);
#359=CIRCLE('',#358,2.);
#360=EDGE_CURVE('',#348,#295,#359,.T.);
#361=ORIENTED_EDGE('',*,*,#360,.T.);
#362=EDGE_LOOP('',(#303,#312,#320,#329,#337,#346,#354,#361));
#363=FACE_OUTER_BOUND('',#362,.T.);
#364=CARTESIAN_POINT('',(-38.628793110675,-17.625,1.2));
#365=VERTEX_POINT('',#364);
#366=CARTESIAN_POINT('',(-37.257586221349,-20.,1.2));
#367=VERTEX_POINT('',#366);
#368=CARTESIAN_POINT('',(-38.628793110675,-17.625,1.2));
#369=DIRECTION('',(0.50000000000017,-0.86602540378434,0.));
#370=VECTOR('',#369,2.742413778651);
#371=LINE('',#368,#370);
#372=EDGE_CURVE('',#365,#367,#371,.T.);
#373=ORIENTED_EDGE('',*,*,#372,.T.);
#374=CARTESIAN_POINT('',(-38.628793110675,-22.375,1.2));
#375=VERTEX_POINT('',#374);
#376=CARTESIAN_POINT('',(-37.257586221349,-20.,1.2));
#377=DIRECTION('',(-0.50000000000017,-0.86602540378434,0.));
#378=VECTOR('',#377,2.742413778651);
#379=LINE('',#376,#378);
#380=EDGE_CURVE('',#367,#375,#379,.T.);
#381=ORIENTED_EDGE('',*,*,#380,.T.);
#382=CARTESIAN_POINT('',(-41.371206889325,-22.375,1.2));
#383=VERTEX_POINT('',#382);
#384=CARTESIAN_POINT('',(-38.628793110675,-22.375,1.2));
#385=DIRECTION('',(-1.,0.,0.));
#386=VECTOR('',#385,2.74241377865);
#387=LINE('',#384,#386);
#388=EDGE_CURVE('',#375,#383,#387,.T.);
#389=ORIENTED_EDGE('',*,*,#388,.T.);
#390=CARTESIAN_POINT('',(-42.742413778651,-20.,1.2));
#391=VERTEX_POINT('',#390);
#392=CARTESIAN_POINT('',(-41.371206889325,-22.375,1.2));
#393=DIRECTION('',(-0.50000000000017,0.86602540378434,0.));
#394=VECTOR('',#393,2.742413778651);
#395=LINE('',#392,#394);
#396=EDGE_CURVE('',#383,#391,#395,.T.);
#397=ORIENTED_EDGE('',*,*,#396,.T.);
#398=CARTESIAN_POINT('',(-41.371206889325,-17.625,1.2));
#399=VERTEX_POINT('',#398);
#400=CARTESIAN_POINT('',(-42.742413778651,-20.,1.2));
#401=DIRECTION('',(0.50000000000017,0.86602540378434,0.));
#402=VECTOR('',#401,2.742413778651);
#403=LINE('',#400,#402);
#404=EDGE_CURVE('',#391,#399,#403,.T.);
#405=ORIENTED_EDGE('',*,*,#404,.T.);
#406=CARTESIAN_POINT('',(-41.371206889325,-17.625,1.2));
#407=DIRECTION('',(1.,0.,0.));
#408=VECTOR('',#407,2.74241377865);
#409=LINE('',#406,#408);
#410=EDGE_CURVE('',#399,#365,#409,.T.);
#411=ORIENTED_EDGE('',*,*,#410,.T.);
#412=EDGE_LOOP('',(#373,#381,#389,#397,#405,#411));
#413=FACE_BOUND('',#412,.T.);
#414=CARTESIAN_POINT('',(-31.6,15.9,1.2));
#415=VERTEX_POINT('',#414);
#416=CARTESIAN_POINT('',(-31.6,23.7,1.2));
#417=VERTEX_POINT('',#416);
#418=CARTESIAN_POINT('',(-31.6,15.9,1.2));
#419=DIRECTION('',(0.,1.,0.));
#420=VECTOR('',#419,7.8);
#421=LINE('',#418,#420);
#422=EDGE_CURVE('',#415,#417,#421,.T.);
#423=ORIENTED_EDGE('',*,*,#422,.T.);
#424=CARTESIAN_POINT('',(-19.1,23.7,1.2));
#425=VERTEX_POINT('',#424);
#426=CARTESIAN_POINT('',(-31.6,23.7,1.2));
#427=DIRECTION('',(1.,0.,0.));
#428=VECTOR('',#427,12.5);
#429=LINE('',#426,#428);
#430=EDGE_CURVE('',#417,#425,#429,.T.);
#431=ORIENTED_EDGE('',*,*,#430,.T.);
#432=CARTESIAN_POINT('',(-19.1,15.9,1.2));
#433=VERTEX_POINT('',#432);
#434=CARTESIAN_POINT('',(-19.1,23.7,1.2));
#435=DIRECTION('',(0.,-1.,0.));
#436=VECTOR('',#435,7.8);
#437=LINE('',#434,#436);
#438=EDGE_CURVE('',#425,#433,#437,.T.);
#439=ORIENTED_EDGE('',*,*,#438,.T.);
#440=CARTESIAN_POINT('',(-19.1,15.9,1.2));
#441=DIRECTION('',(-1.,0.,0.));
#442=VECTOR('',#441,12.5);
#443=LINE('',#440,#442);
#444=EDGE_CURVE('',#433,#415,#443,.T.);
#445=ORIENTED_EDGE('',*,*,#444,.T.);
#446=EDGE_LOOP('',(#423,#431,#439,#445));
#447=FACE_BOUND('',#446,.T.);
#448=CARTESIAN_POINT('',(-36.7,8.5,1.2));
#449=VERTEX_POINT('',#448);
#450=CARTESIAN_POINT('',(-36.7,-5.5,1.2));
#451=VERTEX_POINT('',#450);
#452=CARTESIAN_POINT('',(-36.7,8.5,1.2));
#453=DIRECTION('',(0.,-1.,0.));
#454=VECTOR('',#453,14.);
#455=LINE('',#452,#454);
#456=EDGE_CURVE('',#449,#451,#455,.T.);
#457=ORIENTED_EDGE('',*,*,#456,.T.);
#458=CARTESIAN_POINT('',(-44.5,-5.5,1.2));
#459=VERTEX_POINT('',#458);
#460=CARTESIAN_POINT('',(-36.7,-5.5,1.2));
#461=DIRECTION('',(-1.,0.,0.));
#462=VECTOR('',#461,7.8);
#463=LINE('',#460,#462);
#464=EDGE_CURVE('',#451,#459,#463,.T.);
#465=ORIENTED_EDGE('',*,*,#464,.T.);
#466=CARTESIAN_POINT('',(-44.5,8.5,1.2));
#467=VERTEX_POINT('',#466);
#468=CARTESIAN_POINT('',(-44.5,-5.5,1.2));
#469=DIRECTION('',(0.,1.,0.));
#470=VECTOR('',#469,14.);
#471=LINE('',#468,#470);
#472=EDGE_CURVE('',#459,#467,#471,.T.);
#473=ORIENTED_EDGE('',*,*,#472,.T.);
#474=CARTESIAN_POINT('',(-44.5,8.5,1.2));
#475=DIRECTION('',(1.,0.,0.));
#476=VECTOR('',#475,7.8);
#477=LINE('',#474,#476);
#478=EDGE_CURVE('',#467,#449,#477,.T.);
#479=ORIENTED_EDGE('',*,*,#478,.T.);
#480=EDGE_LOOP('',(#457,#465,#473,#479));
#481=FACE_BOUND('',#480,.T.);
#482=CARTESIAN_POINT('',(35.5,-9.3,1.2));
#483=VERTEX_POINT('',#482);
#484=CARTESIAN_POINT('',(35.5,0.59999999999998,1.2));
#485=VERTEX_POINT('',#484);
#486=CARTESIAN_POINT('',(35.5,-9.3,1.2));
#487=DIRECTION('',(0.,1.,0.));
#488=VECTOR('',#487,9.9);
#489=LINE('',#486,#488);
#490=EDGE_CURVE('',#483,#485,#489,.T.);
#491=ORIENTED_EDGE('',*,*,#490,.T.);
#492=CARTESIAN_POINT('',(44.4,0.59999999999998,1.2));
#493=VERTEX_POINT('',#492);
#494=CARTESIAN_POINT('',(35.5,0.59999999999998,1.2));
#495=DIRECTION('',(1.,0.,0.));
#496=VECTOR('',#495,8.9);
#497=LINE('',#494,#496);
#498=EDGE_CURVE('',#485,#493,#497,.T.);
#499=ORIENTED_EDGE('',*,*,#498,.T.);
#500=CARTESIAN_POINT('',(44.4,-9.3,1.2));
#501=VERTEX_POINT('',#500);
#502=CARTESIAN_POINT('',(44.4,0.59999999999998,1.2));
#503=DIRECTION('',(0.,-1.,0.));
#504=VECTOR('',#503,9.9);
#505=LINE('',#502,#504);
#506=EDGE_CURVE('',#493,#501,#505,.T.);
#507=ORIENTED_EDGE('',*,*,#506,.T.);
#508=CARTESIAN_POINT('',(44.4,-9.3,1.2));
#509=DIRECTION('',(-1.,0.,0.));
#510=VECTOR('',#509,8.9);
#511=LINE('',#508,#510);
#512=EDGE_CURVE('',#501,#483,#511,.T.);
#513=ORIENTED_EDGE('',*,*,#512,.T.);
#514=EDGE_LOOP('',(#491,#499,#507,#513));
#515=FACE_BOUND('',#514,.T.);
#516=CARTESIAN_POINT('',(30.,16.3,1.2));
#517=VERTEX_POINT('',#516);
#518=CARTESIAN_POINT('',(18.1,16.3,1.2));
#519=VERTEX_POINT('',#518);
#520=CARTESIAN_POINT('',(30.,16.3,1.2));
#521=DIRECTION('',(-1.,0.,0.));
#522=VECTOR('',#521,11.9);
#523=LINE('',#520,#522);
#524=EDGE_CURVE('',#517,#519,#523,.T.);
#525=ORIENTED_EDGE('',*,*,#524,.T.);
#526=CARTESIAN_POINT('',(18.1,24.5,1.2));
#527=VERTEX_POINT('',#526);
#528=CARTESIAN_POINT('',(18.1,16.3,1.2));
#529=DIRECTION('',(0.,1.,0.));
#530=VECTOR('',#529,8.2);
#531=LINE('',#528,#530);
#532=EDGE_CURVE('',#519,#527,#531,.T.);
#533=ORIENTED_EDGE('',*,*,#532,.T.);
#534=CARTESIAN_POINT('',(30.,24.5,1.2));
#535=VERTEX_POINT('',#534);
#536=CARTESIAN_POINT('',(18.1,24.5,1.2));
#537=DIRECTION('',(1.,0.,0.));
#538=VECTOR('',#537,11.9);
#539=LINE('',#536,#538);
#540=EDGE_CURVE('',#527,#535,#539,.T.);
#541=ORIENTED_EDGE('',*,*,#540,.T.);
#542=CARTESIAN_POINT('',(30.,24.5,1.2));
#543=DIRECTION('',(0.,-1.,0.));
#544=VECTOR('',#543,8.2);
#545=LINE('',#542,#544);
#546=EDGE_CURVE('',#535,#517,#545,.T.);
#547=ORIENTED_EDGE('',*,*,#546,.T.);
#548=EDGE_LOOP('',(#525,#533,#541,#547));
#549=FACE_BOUND('',#548,.T.);
#550=CARTESIAN_POINT('',(41.75,20.,1.2));
#551=VERTEX_POINT('',#550);
#552=CARTESIAN_POINT('',(40.,20.,1.2));
#553=DIRECTION('',(1.,-1.4355131050823E-15,-4.4859784533822E-17));
#554=DIRECTION('',(-4.4859784533822E-17,4.4859784533822E-17,-1.));
#555=AXIS2_PLACEMENT_3D('',#552,#554,#553);
#556=CIRCLE('',#555,1.75);
#557=EDGE_CURVE('',#551,#551,#556,.T.);
#558=ORIENTED_EDGE('',*,*,#557,.T.);
#559=EDGE_LOOP('',(#558));
#560=FACE_BOUND('',#559,.T.);
#561=CARTESIAN_POINT('',(-38.25,20.,1.2));
#562=VERTEX_POINT('',#561);
#563=CARTESIAN_POINT('',(-40.,20.,1.2));
#564=DIRECTION('',(1.,1.8111602415789E-32,-1.3457935360147E-16));
#565=DIRECTION('',(-1.3457935360147E-16,1.3457935360147E-16,-1.));
#566=AXIS2_PLACEMENT_3D('',#563,#565,#564);
#567=CIRCLE('',#566,1.75);
#568=EDGE_CURVE('',#562,#562,#567,.T.);
#569=ORIENTED_EDGE('',*,*,#568,.T.);
#570=EDGE_LOOP('',(#569));
#571=FACE_BOUND('',#570,.T.);
#572=CARTESIAN_POINT('',(-31.6,-23.2,1.2));
#573=VERTEX_POINT('',#572);
#574=CARTESIAN_POINT('',(-31.6,-1.8,1.2));
#575=VERTEX_POINT('',#574);
#576=CARTESIAN_POINT('',(-31.6,-23.2,1.2));
#577=DIRECTION('',(0.,1.,0.));
#578=VECTOR('',#577,21.4);
#579=LINE('',#576,#578);
#580=EDGE_CURVE('',#573,#575,#579,.T.);
#581=ORIENTED_EDGE('',*,*,#580,.T.);
#582=CARTESIAN_POINT('',(31.6,-1.8,1.2));
#583=VERTEX_POINT('',#582);
#584=CARTESIAN_POINT('',(-31.6,-1.8,1.2));
#585=DIRECTION('',(1.,0.,0.));
#586=VECTOR('',#585,63.2);
#587=LINE('',#584,#586);
#588=EDGE_CURVE('',#575,#583,#587,.T.);
#589=ORIENTED_EDGE('',*,*,#588,.T.);
#590=CARTESIAN_POINT('',(31.6,-23.2,1.2));
#591=VERTEX_POINT('',#590);
#592=CARTESIAN_POINT('',(31.6,-1.8,1.2));
#593=DIRECTION('',(0.,-1.,0.));
#594=VECTOR('',#593,21.4);
#595=LINE('',#592,#594);
#596=EDGE_CURVE('',#583,#591,#595,.T.);
#597=ORIENTED_EDGE('',*,*,#596,.T.);
#598=CARTESIAN_POINT('',(31.6,-23.2,1.2));
#599=DIRECTION('',(-1.,0.,0.));
#600=VECTOR('',#599,63.2);
#601=LINE('',#598,#600);
#602=EDGE_CURVE('',#591,#573,#601,.T.);
#603=ORIENTED_EDGE('',*,*,#602,.T.);
#604=EDGE_LOOP('',(#581,#589,#597,#603));
#605=FACE_BOUND('',#604,.T.);
#606=ORIENTED_EDGE('',*,*,#168,.T.);
#607=ORIENTED_EDGE('',*,*,#137,.T.);
#608=ORIENTED_EDGE('',*,*,#99,.T.);
#609=ORIENTED_EDGE('',*,*,#259,.T.);
#610=ORIENTED_EDGE('',*,*,#230,.T.);
#611=ORIENTED_EDGE('',*,*,#199,.T.);
#612=EDGE_LOOP('',(#606,#607,#608,#609,#610,#611));
#613=FACE_BOUND('',#612,.T.);
#614=ADVANCED_FACE('',(#363,#413,#447,#481,#515,#549,#560,#571,#605,#613),#293,.T.);
#615=CARTESIAN_POINT('',(-1.4210854715202E-14,-50.35,12.2));
#616=DIRECTION('',(-1.,0.,0.));
#617=DIRECTION('',(0.,0.,-1.));
#618=AXIS2_PLACEMENT_3D('',#615,#617,#616);
#619=PLANE('',#618);
#620=CARTESIAN_POINT('',(44.85,-5.5,12.2));
#621=VERTEX_POINT('',#620);
#622=CARTESIAN_POINT('',(44.85,-24.5,12.2));
#623=VERTEX_POINT('',#622);
#624=CARTESIAN_POINT('',(44.85,-5.5,12.2));
#625=DIRECTION('',(0.,-1.,0.));
#626=VECTOR('',#625,19.);
#627=LINE('',#624,#626);
#628=EDGE_CURVE('',#621,#623,#627,.T.);
#629=ORIENTED_EDGE('',*,*,#628,.T.);
#630=CARTESIAN_POINT('',(-44.85,-24.5,12.2));
#631=VERTEX_POINT('',#630);
#632=CARTESIAN_POINT('',(44.85,-24.5,12.2));
#633=DIRECTION('',(-1.,0.,0.));
#634=VECTOR('',#633,89.7);
#635=LINE('',#632,#634);
#636=EDGE_CURVE('',#623,#631,#635,.T.);
#637=ORIENTED_EDGE('',*,*,#636,.T.);
#638=CARTESIAN_POINT('',(-44.85,-5.5,12.2));
#639=VERTEX_POINT('',#638);
#640=CARTESIAN_POINT('',(-44.85,-24.5,12.2));
#641=DIRECTION('',(0.,1.,0.));
#642=VECTOR('',#641,19.);
#643=LINE('',#640,#642);
#644=EDGE_CURVE('',#631,#639,#643,.T.);
#645=ORIENTED_EDGE('',*,*,#644,.T.);
#646=CARTESIAN_POINT('',(-44.85,-5.5,12.2));
#647=DIRECTION('',(1.,0.,0.));
#648=VECTOR('',#647,89.7);
#649=LINE('',#646,#648);
#650=EDGE_CURVE('',#639,#621,#649,.T.);
#651=ORIENTED_EDGE('',*,*,#650,.T.);
#652=EDGE_LOOP('',(#629,#637,#645,#651));
#653=FACE_OUTER_BOUND('',#652,.T.);
#654=CARTESIAN_POINT('',(-41.371206889325,-17.625,12.2));
#655=VERTEX_POINT('',#654);
#656=CARTESIAN_POINT('',(-42.742413778651,-20.,12.2));
#657=VERTEX_POINT('',#656);
#658=CARTESIAN_POINT('',(-41.371206889325,-17.625,12.2));
#659=DIRECTION('',(-0.50000000000017,-0.86602540378434,0.));
#660=VECTOR('',#659,2.742413778651);
#661=LINE('',#658,#660);
#662=EDGE_CURVE('',#655,#657,#661,.T.);
#663=ORIENTED_EDGE('',*,*,#662,.T.);
#664=CARTESIAN_POINT('',(-41.371206889325,-22.375,12.2));
#665=VERTEX_POINT('',#664);
#666=CARTESIAN_POINT('',(-42.742413778651,-20.,12.2));
#667=DIRECTION('',(0.50000000000017,-0.86602540378434,0.));
#668=VECTOR('',#667,2.742413778651);
#669=LINE('',#666,#668);
#670=EDGE_CURVE('',#657,#665,#669,.T.);
#671=ORIENTED_EDGE('',*,*,#670,.T.);
#672=CARTESIAN_POINT('',(-38.628793110675,-22.375,12.2));
#673=VERTEX_POINT('',#672);
#674=CARTESIAN_POINT('',(-41.371206889325,-22.375,12.2));
#675=DIRECTION('',(1.,0.,0.));
#676=VECTOR('',#675,2.74241377865);
#677=LINE('',#674,#676);
#678=EDGE_CURVE('',#665,#673,#677,.T.);
#679=ORIENTED_EDGE('',*,*,#678,.T.);
#680=CARTESIAN_POINT('',(-37.257586221349,-20.,12.2));
#681=VERTEX_POINT('',#680);
#682=CARTESIAN_POINT('',(-38.628793110675,-22.375,12.2));
#683=DIRECTION('',(0.50000000000017,0.86602540378434,0.));
#684=VECTOR('',#683,2.742413778651);
#685=LINE('',#682,#684);
#686=EDGE_CURVE('',#673,#681,#685,.T.);
#687=ORIENTED_EDGE('',*,*,#686,.T.);
#688=CARTESIAN_POINT('',(-38.628793110675,-17.625,12.2));
#689=VERTEX_POINT('',#688);
#690=CARTESIAN_POINT('',(-37.257586221349,-20.,12.2));
#691=DIRECTION('',(-0.50000000000017,0.86602540378434,0.));
#692=VECTOR('',#691,2.742413778651);
#693=LINE('',#690,#692);
#694=EDGE_CURVE('',#681,#689,#693,.T.);
#695=ORIENTED_EDGE('',*,*,#694,.T.);
#696=CARTESIAN_POINT('',(-38.628793110675,-17.625,12.2));
#697=DIRECTION('',(-1.,0.,0.));
#698=VECTOR('',#697,2.74241377865);
#699=LINE('',#696,#698);
#700=EDGE_CURVE('',#689,#655,#699,.T.);
#701=ORIENTED_EDGE('',*,*,#700,.T.);
#702=EDGE_LOOP('',(#663,#671,#679,#687,#695,#701));
#703=FACE_BOUND('',#702,.T.);
#704=ORIENTED_EDGE('',*,*,#182,.T.);
#705=ORIENTED_EDGE('',*,*,#213,.T.);
#706=ORIENTED_EDGE('',*,*,#244,.T.);
#707=ORIENTED_EDGE('',*,*,#266,.T.);
#708=ORIENTED_EDGE('',*,*,#115,.T.);
#709=ORIENTED_EDGE('',*,*,#151,.T.);
#710=EDGE_LOOP('',(#704,#705,#706,#707,#708,#709));
#711=FACE_BOUND('',#710,.T.);
#712=ADVANCED_FACE('',(#653,#703,#711),#619,.T.);
#713=CARTESIAN_POINT('',(1.4210854715202E-14,-25.,0.6));
#714=DIRECTION('',(1.,0.,0.));
#715=DIRECTION('',(0.,-1.,0.));
#716=AXIS2_PLACEMENT_3D('',#713,#715,#714);
#717=PLANE('',#716);
#718=CARTESIAN_POINT('',(43.,-25.,0.));
#719=VERTEX_POINT('',#718);
#720=CARTESIAN_POINT('',(-43.,-25.,0.));
#721=VERTEX_POINT('',#720);
#722=CARTESIAN_POINT('',(43.,-25.,0.));
#723=DIRECTION('',(-1.,0.,0.));
#724=VECTOR('',#723,86.);
#725=LINE('',#722,#724);
#726=EDGE_CURVE('',#719,#721,#725,.T.);
#727=ORIENTED_EDGE('',*,*,#726,.F.);
#728=CARTESIAN_POINT('',(43.,-25.,0.));
#729=DIRECTION('',(0.,0.,1.));
#730=VECTOR('',#729,1.2);
#731=LINE('',#728,#730);
#732=EDGE_CURVE('',#719,#297,#731,.T.);
#733=ORIENTED_EDGE('',*,*,#732,.T.);
#734=ORIENTED_EDGE('',*,*,#302,.F.);
#735=CARTESIAN_POINT('',(-43.,-25.,1.2));
#736=DIRECTION('',(0.,0.,-1.));
#737=VECTOR('',#736,1.2);
#738=LINE('',#735,#737);
#739=EDGE_CURVE('',#295,#721,#738,.T.);
#740=ORIENTED_EDGE('',*,*,#739,.T.);
#741=EDGE_LOOP('',(#727,#733,#734,#740));
#742=FACE_OUTER_BOUND('',#741,.T.);
#743=ADVANCED_FACE('',(#742),#717,.T.);
#744=CARTESIAN_POINT('',(43.,-23.,6.0765806998578E-17));
#745=DIRECTION('',(0.99999999999993,3.6550099835608E-07,-3.0382960886349E-17));
#746=DIRECTION('',(0.,0.,1.));
#747=AXIS2_PLACEMENT_3D('',#744,#746,#745);
#748=CYLINDRICAL_SURFACE('',#747,2.);
#749=CARTESIAN_POINT('',(45.,-23.,0.));
#750=VERTEX_POINT('',#749);
#751=CARTESIAN_POINT('',(43.,-23.,0.));
#752=DIRECTION('',(1.,0.,0.));
#753=DIRECTION('',(-0.,0.,-1.));
#754=AXIS2_PLACEMENT_3D('',#751,#753,#752);
#755=CIRCLE('',#754,2.);
#756=EDGE_CURVE('',#750,#719,#755,.T.);
#757=ORIENTED_EDGE('',*,*,#756,.F.);
#758=CARTESIAN_POINT('',(45.,-23.,1.2));
#759=DIRECTION('',(0.,0.,-1.));
#760=VECTOR('',#759,1.2);
#761=LINE('',#758,#760);
#762=EDGE_CURVE('',#305,#750,#761,.T.);
#763=ORIENTED_EDGE('',*,*,#762,.F.);
#764=ORIENTED_EDGE('',*,*,#311,.F.);
#765=ORIENTED_EDGE('',*,*,#732,.F.);
#766=EDGE_LOOP('',(#757,#763,#764,#765));
#767=FACE_OUTER_BOUND('',#766,.T.);
#768=ADVANCED_FACE('',(#767),#748,.T.);
#769=CARTESIAN_POINT('',(45.,-7.105427357601E-15,0.6));
#770=DIRECTION('',(-3.0893162424352E-16,1.,0.));
#771=DIRECTION('',(1.,3.0893162424352E-16,-0.));
#772=AXIS2_PLACEMENT_3D('',#769,#771,#770);
#773=PLANE('',#772);
#774=CARTESIAN_POINT('',(45.,23.,0.));
#775=VERTEX_POINT('',#774);
#776=CARTESIAN_POINT('',(45.,23.,0.));
#777=DIRECTION('',(0.,-1.,0.));
#778=VECTOR('',#777,46.);
#779=LINE('',#776,#778);
#780=EDGE_CURVE('',#775,#750,#779,.T.);
#781=ORIENTED_EDGE('',*,*,#780,.F.);
#782=CARTESIAN_POINT('',(45.,23.,0.));
#783=DIRECTION('',(0.,0.,1.));
#784=VECTOR('',#783,1.2);
#785=LINE('',#782,#784);
#786=EDGE_CURVE('',#775,#314,#785,.T.);
#787=ORIENTED_EDGE('',*,*,#786,.T.);
#788=ORIENTED_EDGE('',*,*,#319,.F.);
#789=ORIENTED_EDGE('',*,*,#762,.T.);
#790=EDGE_LOOP('',(#781,#787,#788,#789));
#791=FACE_OUTER_BOUND('',#790,.T.);
#792=ADVANCED_FACE('',(#791),#773,.T.);
#793=CARTESIAN_POINT('',(43.,23.,6.0765806998578E-17));
#794=DIRECTION('',(-3.6550099125067E-07,0.99999999999993,-3.0382960886351E-17));
#795=DIRECTION('',(0.,0.,1.));
#796=AXIS2_PLACEMENT_3D('',#793,#795,#794);
#797=CYLINDRICAL_SURFACE('',#796,1.9999999999999);
#798=CARTESIAN_POINT('',(43.,25.,0.));
#799=VERTEX_POINT('',#798);
#800=CARTESIAN_POINT('',(43.,23.,0.));
#801=DIRECTION('',(-3.5527136788005E-15,1.,0.));
#802=DIRECTION('',(0.,-0.,-1.));
#803=AXIS2_PLACEMENT_3D('',#800,#802,#801);
#804=CIRCLE('',#803,2.);
#805=EDGE_CURVE('',#799,#775,#804,.T.);
#806=ORIENTED_EDGE('',*,*,#805,.F.);
#807=CARTESIAN_POINT('',(43.,25.,1.2));
#808=DIRECTION('',(0.,0.,-1.));
#809=VECTOR('',#808,1.2);
#810=LINE('',#807,#809);
#811=EDGE_CURVE('',#322,#799,#810,.T.);
#812=ORIENTED_EDGE('',*,*,#811,.F.);
#813=ORIENTED_EDGE('',*,*,#328,.F.);
#814=ORIENTED_EDGE('',*,*,#786,.F.);
#815=EDGE_LOOP('',(#806,#812,#813,#814));
#816=FACE_OUTER_BOUND('',#815,.T.);
#817=ADVANCED_FACE('',(#816),#797,.T.);
#818=CARTESIAN_POINT('',(-7.105427357601E-15,25.,0.6));
#819=DIRECTION('',(-1.,-1.652424966884E-16,0.));
#820=DIRECTION('',(-1.652424966884E-16,1.,0.));
#821=AXIS2_PLACEMENT_3D('',#818,#820,#819);
#822=PLANE('',#821);
#823=CARTESIAN_POINT('',(-43.,25.,0.));
#824=VERTEX_POINT('',#823);
#825=CARTESIAN_POINT('',(-43.,25.,0.));
#826=DIRECTION('',(1.,0.,0.));
#827=VECTOR('',#826,86.);
#828=LINE('',#825,#827);
#829=EDGE_CURVE('',#824,#799,#828,.T.);
#830=ORIENTED_EDGE('',*,*,#829,.F.);
#831=CARTESIAN_POINT('',(-43.,25.,0.));
#832=DIRECTION('',(0.,0.,1.));
#833=VECTOR('',#832,1.2);
#834=LINE('',#831,#833);
#835=EDGE_CURVE('',#824,#331,#834,.T.);
#836=ORIENTED_EDGE('',*,*,#835,.T.);
#837=ORIENTED_EDGE('',*,*,#336,.F.);
#838=ORIENTED_EDGE('',*,*,#811,.T.);
#839=EDGE_LOOP('',(#830,#836,#837,#838));
#840=FACE_OUTER_BOUND('',#839,.T.);
#841=ADVANCED_FACE('',(#840),#822,.T.);
#842=CARTESIAN_POINT('',(-43.,23.,6.0765806998578E-17));
#843=DIRECTION('',(-0.99999999999993,-3.6550099835608E-07,-3.0382960886349E-17));
#844=DIRECTION('',(0.,0.,1.));
#845=AXIS2_PLACEMENT_3D('',#842,#844,#843);
#846=CYLINDRICAL_SURFACE('',#845,2.);
#847=CARTESIAN_POINT('',(-45.,23.,0.));
#848=VERTEX_POINT('',#847);
#849=CARTESIAN_POINT('',(-43.,23.,0.));
#850=DIRECTION('',(-1.,0.,0.));
#851=DIRECTION('',(0.,0.,-1.));
#852=AXIS2_PLACEMENT_3D('',#849,#851,#850);
#853=CIRCLE('',#852,2.);
#854=EDGE_CURVE('',#848,#824,#853,.T.);
#855=ORIENTED_EDGE('',*,*,#854,.F.);
#856=CARTESIAN_POINT('',(-45.,23.,1.2));
#857=DIRECTION('',(0.,0.,-1.));
#858=VECTOR('',#857,1.2);
#859=LINE('',#856,#858);
#860=EDGE_CURVE('',#339,#848,#859,.T.);
#861=ORIENTED_EDGE('',*,*,#860,.F.);
#862=ORIENTED_EDGE('',*,*,#345,.F.);
#863=ORIENTED_EDGE('',*,*,#835,.F.);
#864=EDGE_LOOP('',(#855,#861,#862,#863));
#865=FACE_OUTER_BOUND('',#864,.T.);
#866=ADVANCED_FACE('',(#865),#846,.T.);
#867=CARTESIAN_POINT('',(-45.,-1.4210854715202E-14,0.6));
#868=DIRECTION('',(0.,-1.,0.));
#869=DIRECTION('',(-1.,0.,0.));
#870=AXIS2_PLACEMENT_3D('',#867,#869,#868);
#871=PLANE('',#870);
#872=CARTESIAN_POINT('',(-45.,-23.,0.));
#873=VERTEX_POINT('',#872);
#874=CARTESIAN_POINT('',(-45.,-23.,0.));
#875=DIRECTION('',(0.,1.,0.));
#876=VECTOR('',#875,46.);
#877=LINE('',#874,#876);
#878=EDGE_CURVE('',#873,#848,#877,.T.);
#879=ORIENTED_EDGE('',*,*,#878,.F.);
#880=CARTESIAN_POINT('',(-45.,-23.,0.));
#881=DIRECTION('',(0.,0.,1.));
#882=VECTOR('',#881,1.2);
#883=LINE('',#880,#882);
#884=EDGE_CURVE('',#873,#348,#883,.T.);
#885=ORIENTED_EDGE('',*,*,#884,.T.);
#886=ORIENTED_EDGE('',*,*,#353,.F.);
#887=ORIENTED_EDGE('',*,*,#860,.T.);
#888=EDGE_LOOP('',(#879,#885,#886,#887));
#889=FACE_OUTER_BOUND('',#888,.T.);
#890=ADVANCED_FACE('',(#889),#871,.T.);
#891=CARTESIAN_POINT('',(-43.,-23.,6.0765806998578E-17));
#892=DIRECTION('',(3.6550099125067E-07,-0.99999999999993,-3.0382960886351E-17));
#893=DIRECTION('',(0.,0.,1.));
#894=AXIS2_PLACEMENT_3D('',#891,#893,#892);
#895=CYLINDRICAL_SURFACE('',#894,1.9999999999999);
#896=CARTESIAN_POINT('',(-43.,-23.,0.));
#897=DIRECTION('',(3.5527136788005E-15,-1.,0.));
#898=DIRECTION('',(0.,0.,-1.));
#899=AXIS2_PLACEMENT_3D('',#896,#898,#897);
#900=CIRCLE('',#899,2.);
#901=EDGE_CURVE('',#721,#873,#900,.T.);
#902=ORIENTED_EDGE('',*,*,#901,.F.);
#903=ORIENTED_EDGE('',*,*,#739,.F.);
#904=ORIENTED_EDGE('',*,*,#360,.F.);
#905=ORIENTED_EDGE('',*,*,#884,.F.);
#906=EDGE_LOOP('',(#902,#903,#904,#905));
#907=FACE_OUTER_BOUND('',#906,.T.);
#908=ADVANCED_FACE('',(#907),#895,.T.);
#909=CARTESIAN_POINT('',(-37.943189666012,-18.8125,6.7));
#910=DIRECTION('',(-0.5,0.86602540378444,0.));
#911=DIRECTION('',(0.86602540378444,0.5,-0.));
#912=AXIS2_PLACEMENT_3D('',#909,#911,#910);
#913=PLANE('',#912);
#914=ORIENTED_EDGE('',*,*,#372,.F.);
#915=CARTESIAN_POINT('',(-38.628793110675,-17.625,1.2));
#916=DIRECTION('',(0.,0.,1.));
#917=VECTOR('',#916,11.);
#918=LINE('',#915,#917);
#919=EDGE_CURVE('',#365,#689,#918,.T.);
#920=ORIENTED_EDGE('',*,*,#919,.T.);
#921=ORIENTED_EDGE('',*,*,#694,.F.);
#922=CARTESIAN_POINT('',(-37.257586221349,-20.,12.2));
#923=DIRECTION('',(0.,0.,-1.));
#924=VECTOR('',#923,11.);
#925=LINE('',#922,#924);
#926=EDGE_CURVE('',#681,#367,#925,.T.);
#927=ORIENTED_EDGE('',*,*,#926,.T.);
#928=EDGE_LOOP('',(#914,#920,#921,#927));
#929=FACE_OUTER_BOUND('',#928,.T.);
#930=ADVANCED_FACE('',(#929),#913,.T.);
#931=CARTESIAN_POINT('',(-37.943189666012,-21.1875,6.7));
#932=DIRECTION('',(0.5,0.86602540378444,0.));
#933=DIRECTION('',(0.86602540378444,-0.5,0.));
#934=AXIS2_PLACEMENT_3D('',#931,#933,#932);
#935=PLANE('',#934);
#936=ORIENTED_EDGE('',*,*,#380,.F.);
#937=ORIENTED_EDGE('',*,*,#926,.F.);
#938=ORIENTED_EDGE('',*,*,#686,.F.);
#939=CARTESIAN_POINT('',(-38.628793110675,-22.375,1.2));
#940=DIRECTION('',(0.,0.,1.));
#941=VECTOR('',#940,11.);
#942=LINE('',#939,#941);
#943=EDGE_CURVE('',#375,#673,#942,.T.);
#944=ORIENTED_EDGE('',*,*,#943,.F.);
#945=EDGE_LOOP('',(#936,#937,#938,#944));
#946=FACE_OUTER_BOUND('',#945,.T.);
#947=ADVANCED_FACE('',(#946),#935,.T.);
#948=CARTESIAN_POINT('',(-40.,-22.375,6.7));
#949=DIRECTION('',(1.,0.,0.));
#950=DIRECTION('',(0.,-1.,0.));
#951=AXIS2_PLACEMENT_3D('',#948,#950,#949);
#952=PLANE('',#951);
#953=ORIENTED_EDGE('',*,*,#388,.F.);
#954=ORIENTED_EDGE('',*,*,#943,.T.);
#955=ORIENTED_EDGE('',*,*,#678,.F.);
#956=CARTESIAN_POINT('',(-41.371206889325,-22.375,1.2));
#957=DIRECTION('',(0.,0.,1.));
#958=VECTOR('',#957,11.);
#959=LINE('',#956,#958);
#960=EDGE_CURVE('',#383,#665,#959,.T.);
#961=ORIENTED_EDGE('',*,*,#960,.F.);
#962=EDGE_LOOP('',(#953,#954,#955,#961));
#963=FACE_OUTER_BOUND('',#962,.T.);
#964=ADVANCED_FACE('',(#963),#952,.T.);
#965=CARTESIAN_POINT('',(-42.056810333988,-21.1875,6.7));
#966=DIRECTION('',(0.5,-0.86602540378444,0.));
#967=DIRECTION('',(-0.86602540378444,-0.5,0.));
#968=AXIS2_PLACEMENT_3D('',#965,#967,#966);
#969=PLANE('',#968);
#970=ORIENTED_EDGE('',*,*,#396,.F.);
#971=ORIENTED_EDGE('',*,*,#960,.T.);
#972=ORIENTED_EDGE('',*,*,#670,.F.);
#973=CARTESIAN_POINT('',(-42.742413778651,-20.,1.2));
#974=DIRECTION('',(0.,0.,1.));
#975=VECTOR('',#974,11.);
#976=LINE('',#973,#975);
#977=EDGE_CURVE('',#391,#657,#976,.T.);
#978=ORIENTED_EDGE('',*,*,#977,.F.);
#979=EDGE_LOOP('',(#970,#971,#972,#978));
#980=FACE_OUTER_BOUND('',#979,.T.);
#981=ADVANCED_FACE('',(#980),#969,.T.);
#982=CARTESIAN_POINT('',(-42.056810333988,-18.8125,6.7));
#983=DIRECTION('',(-0.5,-0.86602540378444,0.));
#984=DIRECTION('',(-0.86602540378444,0.5,0.));
#985=AXIS2_PLACEMENT_3D('',#982,#984,#983);
#986=PLANE('',#985);
#987=ORIENTED_EDGE('',*,*,#404,.F.);
#988=ORIENTED_EDGE('',*,*,#977,.T.);
#989=ORIENTED_EDGE('',*,*,#662,.F.);
#990=CARTESIAN_POINT('',(-41.371206889325,-17.625,1.2));
#991=DIRECTION('',(0.,0.,1.));
#992=VECTOR('',#991,11.);
#993=LINE('',#990,#992);
#994=EDGE_CURVE('',#399,#655,#993,.T.);
#995=ORIENTED_EDGE('',*,*,#994,.F.);
#996=EDGE_LOOP('',(#987,#988,#989,#995));
#997=FACE_OUTER_BOUND('',#996,.T.);
#998=ADVANCED_FACE('',(#997),#986,.T.);
#999=CARTESIAN_POINT('',(-40.,-17.625,6.7));
#1000=DIRECTION('',(-1.,0.,0.));
#1001=DIRECTION('',(0.,1.,-0.));
#1002=AXIS2_PLACEMENT_3D('',#999,#1001,#1000);
#1003=PLANE('',#1002);
#1004=ORIENTED_EDGE('',*,*,#410,.F.);
#1005=ORIENTED_EDGE('',*,*,#994,.T.);
#1006=ORIENTED_EDGE('',*,*,#700,.F.);
#1007=ORIENTED_EDGE('',*,*,#919,.F.);
#1008=EDGE_LOOP('',(#1004,#1005,#1006,#1007));
#1009=FACE_OUTER_BOUND('',#1008,.T.);
#1010=ADVANCED_FACE('',(#1009),#1003,.T.);
#1011=CARTESIAN_POINT('',(-31.6,19.8,4.375));
#1012=DIRECTION('',(0.,-1.,0.));
#1013=DIRECTION('',(-1.,0.,0.));
#1014=AXIS2_PLACEMENT_3D('',#1011,#1013,#1012);
#1015=PLANE('',#1014);
#1016=ORIENTED_EDGE('',*,*,#422,.F.);
#1017=CARTESIAN_POINT('',(-31.6,15.9,7.55));
#1018=VERTEX_POINT('',#1017);
#1019=CARTESIAN_POINT('',(-31.6,15.9,1.2));
#1020=DIRECTION('',(0.,0.,1.));
#1021=VECTOR('',#1020,6.35);
#1022=LINE('',#1019,#1021);
#1023=EDGE_CURVE('',#415,#1018,#1022,.T.);
#1024=ORIENTED_EDGE('',*,*,#1023,.T.);
#1025=CARTESIAN_POINT('',(-31.6,23.7,7.55));
#1026=VERTEX_POINT('',#1025);
#1027=CARTESIAN_POINT('',(-31.6,23.7,7.55));
#1028=DIRECTION('',(0.,-1.,0.));
#1029=VECTOR('',#1028,7.8);
#1030=LINE('',#1027,#1029);
#1031=EDGE_CURVE('',#1026,#1018,#1030,.T.);
#1032=ORIENTED_EDGE('',*,*,#1031,.F.);
#1033=CARTESIAN_POINT('',(-31.6,23.7,7.55));
#1034=DIRECTION('',(0.,0.,-1.));
#1035=VECTOR('',#1034,6.35);
#1036=LINE('',#1033,#1035);
#1037=EDGE_CURVE('',#1026,#417,#1036,.T.);
#1038=ORIENTED_EDGE('',*,*,#1037,.T.);
#1039=EDGE_LOOP('',(#1016,#1024,#1032,#1038));
#1040=FACE_OUTER_BOUND('',#1039,.T.);
#1041=ADVANCED_FACE('',(#1040),#1015,.T.);
#1042=CARTESIAN_POINT('',(-25.35,23.7,4.375));
#1043=DIRECTION('',(-1.,0.,0.));
#1044=DIRECTION('',(0.,1.,-0.));
#1045=AXIS2_PLACEMENT_3D('',#1042,#1044,#1043);
#1046=PLANE('',#1045);
#1047=ORIENTED_EDGE('',*,*,#430,.F.);
#1048=ORIENTED_EDGE('',*,*,#1037,.F.);
#1049=CARTESIAN_POINT('',(-19.1,23.7,7.55));
#1050=VERTEX_POINT('',#1049);
#1051=CARTESIAN_POINT('',(-19.1,23.7,7.55));
#1052=DIRECTION('',(-1.,0.,0.));
#1053=VECTOR('',#1052,12.5);
#1054=LINE('',#1051,#1053);
#1055=EDGE_CURVE('',#1050,#1026,#1054,.T.);
#1056=ORIENTED_EDGE('',*,*,#1055,.F.);
#1057=CARTESIAN_POINT('',(-19.1,23.7,1.2));
#1058=DIRECTION('',(0.,0.,1.));
#1059=VECTOR('',#1058,6.35);
#1060=LINE('',#1057,#1059);
#1061=EDGE_CURVE('',#425,#1050,#1060,.T.);
#1062=ORIENTED_EDGE('',*,*,#1061,.F.);
#1063=EDGE_LOOP('',(#1047,#1048,#1056,#1062));
#1064=FACE_OUTER_BOUND('',#1063,.T.);
#1065=ADVANCED_FACE('',(#1064),#1046,.T.);
#1066=CARTESIAN_POINT('',(-19.1,19.8,4.375));
#1067=DIRECTION('',(0.,1.,0.));
#1068=DIRECTION('',(1.,0.,0.));
#1069=AXIS2_PLACEMENT_3D('',#1066,#1068,#1067);
#1070=PLANE('',#1069);
#1071=ORIENTED_EDGE('',*,*,#438,.F.);
#1072=ORIENTED_EDGE('',*,*,#1061,.T.);
#1073=CARTESIAN_POINT('',(-19.1,15.9,7.55));
#1074=VERTEX_POINT('',#1073);
#1075=CARTESIAN_POINT('',(-19.1,15.9,7.55));
#1076=DIRECTION('',(0.,1.,0.));
#1077=VECTOR('',#1076,7.8);
#1078=LINE('',#1075,#1077);
#1079=EDGE_CURVE('',#1074,#1050,#1078,.T.);
#1080=ORIENTED_EDGE('',*,*,#1079,.F.);
#1081=CARTESIAN_POINT('',(-19.1,15.9,1.2));
#1082=DIRECTION('',(0.,0.,1.));
#1083=VECTOR('',#1082,6.35);
#1084=LINE('',#1081,#1083);
#1085=EDGE_CURVE('',#433,#1074,#1084,.T.);
#1086=ORIENTED_EDGE('',*,*,#1085,.F.);
#1087=EDGE_LOOP('',(#1071,#1072,#1080,#1086));
#1088=FACE_OUTER_BOUND('',#1087,.T.);
#1089=ADVANCED_FACE('',(#1088),#1070,.T.);
#1090=CARTESIAN_POINT('',(-25.35,15.9,4.375));
#1091=DIRECTION('',(1.,0.,0.));
#1092=DIRECTION('',(0.,-1.,0.));
#1093=AXIS2_PLACEMENT_3D('',#1090,#1092,#1091);
#1094=PLANE('',#1093);
#1095=ORIENTED_EDGE('',*,*,#444,.F.);
#1096=ORIENTED_EDGE('',*,*,#1085,.T.);
#1097=CARTESIAN_POINT('',(-31.6,15.9,7.55));
#1098=DIRECTION('',(1.,0.,0.));
#1099=VECTOR('',#1098,12.5);
#1100=LINE('',#1097,#1099);
#1101=EDGE_CURVE('',#1018,#1074,#1100,.T.);
#1102=ORIENTED_EDGE('',*,*,#1101,.F.);
#1103=ORIENTED_EDGE('',*,*,#1023,.F.);
#1104=EDGE_LOOP('',(#1095,#1096,#1102,#1103));
#1105=FACE_OUTER_BOUND('',#1104,.T.);
#1106=ADVANCED_FACE('',(#1105),#1094,.T.);
#1107=CARTESIAN_POINT('',(-36.7,1.5,3.85));
#1108=DIRECTION('',(0.,1.,0.));
#1109=DIRECTION('',(1.,0.,0.));
#1110=AXIS2_PLACEMENT_3D('',#1107,#1109,#1108);
#1111=PLANE('',#1110);
#1112=ORIENTED_EDGE('',*,*,#456,.F.);
#1113=CARTESIAN_POINT('',(-36.7,8.5,6.5));
#1114=VERTEX_POINT('',#1113);
#1115=CARTESIAN_POINT('',(-36.7,8.5,1.2));
#1116=DIRECTION('',(0.,0.,1.));
#1117=VECTOR('',#1116,5.3);
#1118=LINE('',#1115,#1117);
#1119=EDGE_CURVE('',#449,#1114,#1118,.T.);
#1120=ORIENTED_EDGE('',*,*,#1119,.T.);
#1121=CARTESIAN_POINT('',(-36.7,-5.5,6.5));
#1122=VERTEX_POINT('',#1121);
#1123=CARTESIAN_POINT('',(-36.7,-5.5,6.5));
#1124=DIRECTION('',(0.,1.,0.));
#1125=VECTOR('',#1124,14.);
#1126=LINE('',#1123,#1125);
#1127=EDGE_CURVE('',#1122,#1114,#1126,.T.);
#1128=ORIENTED_EDGE('',*,*,#1127,.F.);
#1129=CARTESIAN_POINT('',(-36.7,-5.5,1.2));
#1130=DIRECTION('',(0.,0.,1.));
#1131=VECTOR('',#1130,5.3);
#1132=LINE('',#1129,#1131);
#1133=EDGE_CURVE('',#451,#1122,#1132,.T.);
#1134=ORIENTED_EDGE('',*,*,#1133,.F.);
#1135=EDGE_LOOP('',(#1112,#1120,#1128,#1134));
#1136=FACE_OUTER_BOUND('',#1135,.T.);
#1137=ADVANCED_FACE('',(#1136),#1111,.T.);
#1138=CARTESIAN_POINT('',(-40.6,-5.5,3.85));
#1139=DIRECTION('',(1.,0.,0.));
#1140=DIRECTION('',(0.,-1.,0.));
#1141=AXIS2_PLACEMENT_3D('',#1138,#1140,#1139);
#1142=PLANE('',#1141);
#1143=ORIENTED_EDGE('',*,*,#464,.F.);
#1144=ORIENTED_EDGE('',*,*,#1133,.T.);
#1145=CARTESIAN_POINT('',(-44.5,-5.5,6.5));
#1146=VERTEX_POINT('',#1145);
#1147=CARTESIAN_POINT('',(-44.5,-5.5,6.5));
#1148=DIRECTION('',(1.,0.,0.));
#1149=VECTOR('',#1148,7.8);
#1150=LINE('',#1147,#1149);
#1151=EDGE_CURVE('',#1146,#1122,#1150,.T.);
#1152=ORIENTED_EDGE('',*,*,#1151,.F.);
#1153=CARTESIAN_POINT('',(-44.5,-5.5,6.5));
#1154=DIRECTION('',(0.,0.,-1.));
#1155=VECTOR('',#1154,5.3);
#1156=LINE('',#1153,#1155);
#1157=EDGE_CURVE('',#1146,#459,#1156,.T.);
#1158=ORIENTED_EDGE('',*,*,#1157,.T.);
#1159=EDGE_LOOP('',(#1143,#1144,#1152,#1158));
#1160=FACE_OUTER_BOUND('',#1159,.T.);
#1161=ADVANCED_FACE('',(#1160),#1142,.T.);
#1162=CARTESIAN_POINT('',(-44.5,1.5,3.85));
#1163=DIRECTION('',(0.,-1.,0.));
#1164=DIRECTION('',(-1.,0.,0.));
#1165=AXIS2_PLACEMENT_3D('',#1162,#1164,#1163);
#1166=PLANE('',#1165);
#1167=ORIENTED_EDGE('',*,*,#472,.F.);
#1168=ORIENTED_EDGE('',*,*,#1157,.F.);
#1169=CARTESIAN_POINT('',(-44.5,8.5,6.5));
#1170=VERTEX_POINT('',#1169);
#1171=CARTESIAN_POINT('',(-44.5,8.5,6.5));
#1172=DIRECTION('',(0.,-1.,0.));
#1173=VECTOR('',#1172,14.);
#1174=LINE('',#1171,#1173);
#1175=EDGE_CURVE('',#1170,#1146,#1174,.T.);
#1176=ORIENTED_EDGE('',*,*,#1175,.F.);
#1177=CARTESIAN_POINT('',(-44.5,8.5,1.2));
#1178=DIRECTION('',(0.,0.,1.));
#1179=VECTOR('',#1178,5.3);
#1180=LINE('',#1177,#1179);
#1181=EDGE_CURVE('',#467,#1170,#1180,.T.);
#1182=ORIENTED_EDGE('',*,*,#1181,.F.);
#1183=EDGE_LOOP('',(#1167,#1168,#1176,#1182));
#1184=FACE_OUTER_BOUND('',#1183,.T.);
#1185=ADVANCED_FACE('',(#1184),#1166,.T.);
#1186=CARTESIAN_POINT('',(-40.6,8.5,3.85));
#1187=DIRECTION('',(-1.,-4.5547611266673E-16,0.));
#1188=DIRECTION('',(-4.5547611266673E-16,1.,0.));
#1189=AXIS2_PLACEMENT_3D('',#1186,#1188,#1187);
#1190=PLANE('',#1189);
#1191=ORIENTED_EDGE('',*,*,#478,.F.);
#1192=ORIENTED_EDGE('',*,*,#1181,.T.);
#1193=CARTESIAN_POINT('',(-36.7,8.5,6.5));
#1194=DIRECTION('',(-1.,0.,0.));
#1195=VECTOR('',#1194,7.8);
#1196=LINE('',#1193,#1195);
#1197=EDGE_CURVE('',#1114,#1170,#1196,.T.);
#1198=ORIENTED_EDGE('',*,*,#1197,.F.);
#1199=ORIENTED_EDGE('',*,*,#1119,.F.);
#1200=EDGE_LOOP('',(#1191,#1192,#1198,#1199));
#1201=FACE_OUTER_BOUND('',#1200,.T.);
#1202=ADVANCED_FACE('',(#1201),#1190,.T.);
#1203=CARTESIAN_POINT('',(35.5,-4.35,3.95));
#1204=DIRECTION('',(0.,-1.,0.));
#1205=DIRECTION('',(-1.,0.,0.));
#1206=AXIS2_PLACEMENT_3D('',#1203,#1205,#1204);
#1207=PLANE('',#1206);
#1208=ORIENTED_EDGE('',*,*,#490,.F.);
#1209=CARTESIAN_POINT('',(35.5,-9.3,6.7));
#1210=VERTEX_POINT('',#1209);
#1211=CARTESIAN_POINT('',(35.5,-9.3,6.7));
#1212=DIRECTION('',(0.,0.,-1.));
#1213=VECTOR('',#1212,5.5);
#1214=LINE('',#1211,#1213);
#1215=EDGE_CURVE('',#1210,#483,#1214,.T.);
#1216=ORIENTED_EDGE('',*,*,#1215,.F.);
#1217=CARTESIAN_POINT('',(35.5,0.59999999999998,6.7));
#1218=VERTEX_POINT('',#1217);
#1219=CARTESIAN_POINT('',(35.5,0.59999999999998,6.7));
#1220=DIRECTION('',(0.,-1.,0.));
#1221=VECTOR('',#1220,9.9);
#1222=LINE('',#1219,#1221);
#1223=EDGE_CURVE('',#1218,#1210,#1222,.T.);
#1224=ORIENTED_EDGE('',*,*,#1223,.F.);
#1225=CARTESIAN_POINT('',(35.5,0.59999999999998,1.2));
#1226=DIRECTION('',(0.,0.,1.));
#1227=VECTOR('',#1226,5.5);
#1228=LINE('',#1225,#1227);
#1229=EDGE_CURVE('',#485,#1218,#1228,.T.);
#1230=ORIENTED_EDGE('',*,*,#1229,.F.);
#1231=EDGE_LOOP('',(#1208,#1216,#1224,#1230));
#1232=FACE_OUTER_BOUND('',#1231,.T.);
#1233=ADVANCED_FACE('',(#1232),#1207,.T.);
#1234=CARTESIAN_POINT('',(39.95,0.59999999999998,3.95));
#1235=DIRECTION('',(-1.,-1.2474416007024E-16,0.));
#1236=DIRECTION('',(-1.2474416007024E-16,1.,0.));
#1237=AXIS2_PLACEMENT_3D('',#1234,#1236,#1235);
#1238=PLANE('',#1237);
#1239=ORIENTED_EDGE('',*,*,#498,.F.);
#1240=ORIENTED_EDGE('',*,*,#1229,.T.);
#1241=CARTESIAN_POINT('',(44.4,0.59999999999998,6.7));
#1242=VERTEX_POINT('',#1241);
#1243=CARTESIAN_POINT('',(44.4,0.59999999999998,6.7));
#1244=DIRECTION('',(-1.,0.,0.));
#1245=VECTOR('',#1244,8.9);
#1246=LINE('',#1243,#1245);
#1247=EDGE_CURVE('',#1242,#1218,#1246,.T.);
#1248=ORIENTED_EDGE('',*,*,#1247,.F.);
#1249=CARTESIAN_POINT('',(44.4,0.59999999999998,1.2));
#1250=DIRECTION('',(0.,0.,1.));
#1251=VECTOR('',#1250,5.5);
#1252=LINE('',#1249,#1251);
#1253=EDGE_CURVE('',#493,#1242,#1252,.T.);
#1254=ORIENTED_EDGE('',*,*,#1253,.F.);
#1255=EDGE_LOOP('',(#1239,#1240,#1248,#1254));
#1256=FACE_OUTER_BOUND('',#1255,.T.);
#1257=ADVANCED_FACE('',(#1256),#1238,.T.);
#1258=CARTESIAN_POINT('',(44.4,-4.35,3.95));
#1259=DIRECTION('',(0.,1.,0.));
#1260=DIRECTION('',(1.,0.,0.));
#1261=AXIS2_PLACEMENT_3D('',#1258,#1260,#1259);
#1262=PLANE('',#1261);
#1263=ORIENTED_EDGE('',*,*,#506,.F.);
#1264=ORIENTED_EDGE('',*,*,#1253,.T.);
#1265=CARTESIAN_POINT('',(44.4,-9.3,6.7));
#1266=VERTEX_POINT('',#1265);
#1267=CARTESIAN_POINT('',(44.4,-9.3,6.7));
#1268=DIRECTION('',(0.,1.,0.));
#1269=VECTOR('',#1268,9.9);
#1270=LINE('',#1267,#1269);
#1271=EDGE_CURVE('',#1266,#1242,#1270,.T.);
#1272=ORIENTED_EDGE('',*,*,#1271,.F.);
#1273=CARTESIAN_POINT('',(44.4,-9.3,1.2));
#1274=DIRECTION('',(0.,0.,1.));
#1275=VECTOR('',#1274,5.5);
#1276=LINE('',#1273,#1275);
#1277=EDGE_CURVE('',#501,#1266,#1276,.T.);
#1278=ORIENTED_EDGE('',*,*,#1277,.F.);
#1279=EDGE_LOOP('',(#1263,#1264,#1272,#1278));
#1280=FACE_OUTER_BOUND('',#1279,.T.);
#1281=ADVANCED_FACE('',(#1280),#1262,.T.);
#1282=CARTESIAN_POINT('',(39.95,-9.3,3.95));
#1283=DIRECTION('',(1.,0.,0.));
#1284=DIRECTION('',(0.,-1.,0.));
#1285=AXIS2_PLACEMENT_3D('',#1282,#1284,#1283);
#1286=PLANE('',#1285);
#1287=ORIENTED_EDGE('',*,*,#512,.F.);
#1288=ORIENTED_EDGE('',*,*,#1277,.T.);
#1289=CARTESIAN_POINT('',(35.5,-9.3,6.7));
#1290=DIRECTION('',(1.,0.,0.));
#1291=VECTOR('',#1290,8.9);
#1292=LINE('',#1289,#1291);
#1293=EDGE_CURVE('',#1210,#1266,#1292,.T.);
#1294=ORIENTED_EDGE('',*,*,#1293,.F.);
#1295=ORIENTED_EDGE('',*,*,#1215,.T.);
#1296=EDGE_LOOP('',(#1287,#1288,#1294,#1295));
#1297=FACE_OUTER_BOUND('',#1296,.T.);
#1298=ADVANCED_FACE('',(#1297),#1286,.T.);
#1299=CARTESIAN_POINT('',(24.05,16.3,3.8));
#1300=DIRECTION('',(1.,0.,0.));
#1301=DIRECTION('',(0.,-1.,0.));
#1302=AXIS2_PLACEMENT_3D('',#1299,#1301,#1300);
#1303=PLANE('',#1302);
#1304=ORIENTED_EDGE('',*,*,#524,.F.);
#1305=CARTESIAN_POINT('',(30.,16.3,6.4));
#1306=VERTEX_POINT('',#1305);
#1307=CARTESIAN_POINT('',(30.,16.3,1.2));
#1308=DIRECTION('',(0.,0.,1.));
#1309=VECTOR('',#1308,5.2);
#1310=LINE('',#1307,#1309);
#1311=EDGE_CURVE('',#517,#1306,#1310,.T.);
#1312=ORIENTED_EDGE('',*,*,#1311,.T.);
#1313=CARTESIAN_POINT('',(18.1,16.3,6.4));
#1314=VERTEX_POINT('',#1313);
#1315=CARTESIAN_POINT('',(18.1,16.3,6.4));
#1316=DIRECTION('',(1.,0.,0.));
#1317=VECTOR('',#1316,11.9);
#1318=LINE('',#1315,#1317);
#1319=EDGE_CURVE('',#1314,#1306,#1318,.T.);
#1320=ORIENTED_EDGE('',*,*,#1319,.F.);
#1321=CARTESIAN_POINT('',(18.1,16.3,1.2));
#1322=DIRECTION('',(0.,0.,1.));
#1323=VECTOR('',#1322,5.2);
#1324=LINE('',#1321,#1323);
#1325=EDGE_CURVE('',#519,#1314,#1324,.T.);
#1326=ORIENTED_EDGE('',*,*,#1325,.F.);
#1327=EDGE_LOOP('',(#1304,#1312,#1320,#1326));
#1328=FACE_OUTER_BOUND('',#1327,.T.);
#1329=ADVANCED_FACE('',(#1328),#1303,.T.);
#1330=CARTESIAN_POINT('',(18.1,20.4,3.8));
#1331=DIRECTION('',(0.,-1.,0.));
#1332=DIRECTION('',(-1.,0.,0.));
#1333=AXIS2_PLACEMENT_3D('',#1330,#1332,#1331);
#1334=PLANE('',#1333);
#1335=ORIENTED_EDGE('',*,*,#532,.F.);
#1336=ORIENTED_EDGE('',*,*,#1325,.T.);
#1337=CARTESIAN_POINT('',(18.1,24.5,6.4));
#1338=VERTEX_POINT('',#1337);
#1339=CARTESIAN_POINT('',(18.1,24.5,6.4));
#1340=DIRECTION('',(0.,-1.,0.));
#1341=VECTOR('',#1340,8.2);
#1342=LINE('',#1339,#1341);
#1343=EDGE_CURVE('',#1338,#1314,#1342,.T.);
#1344=ORIENTED_EDGE('',*,*,#1343,.F.);
#1345=CARTESIAN_POINT('',(18.1,24.5,6.4));
#1346=DIRECTION('',(0.,0.,-1.));
#1347=VECTOR('',#1346,5.2);
#1348=LINE('',#1345,#1347);
#1349=EDGE_CURVE('',#1338,#527,#1348,.T.);
#1350=ORIENTED_EDGE('',*,*,#1349,.T.);
#1351=EDGE_LOOP('',(#1335,#1336,#1344,#1350));
#1352=FACE_OUTER_BOUND('',#1351,.T.);
#1353=ADVANCED_FACE('',(#1352),#1334,.T.);
#1354=CARTESIAN_POINT('',(24.05,24.5,3.8));
#1355=DIRECTION('',(-1.,0.,0.));
#1356=DIRECTION('',(0.,1.,-0.));
#1357=AXIS2_PLACEMENT_3D('',#1354,#1356,#1355);
#1358=PLANE('',#1357);
#1359=ORIENTED_EDGE('',*,*,#540,.F.);
#1360=ORIENTED_EDGE('',*,*,#1349,.F.);
#1361=CARTESIAN_POINT('',(30.,24.5,6.4));
#1362=VERTEX_POINT('',#1361);
#1363=CARTESIAN_POINT('',(30.,24.5,6.4));
#1364=DIRECTION('',(-1.,0.,0.));
#1365=VECTOR('',#1364,11.9);
#1366=LINE('',#1363,#1365);
#1367=EDGE_CURVE('',#1362,#1338,#1366,.T.);
#1368=ORIENTED_EDGE('',*,*,#1367,.F.);
#1369=CARTESIAN_POINT('',(30.,24.5,1.2));
#1370=DIRECTION('',(0.,0.,1.));
#1371=VECTOR('',#1370,5.2);
#1372=LINE('',#1369,#1371);
#1373=EDGE_CURVE('',#535,#1362,#1372,.T.);
#1374=ORIENTED_EDGE('',*,*,#1373,.F.);
#1375=EDGE_LOOP('',(#1359,#1360,#1368,#1374));
#1376=FACE_OUTER_BOUND('',#1375,.T.);
#1377=ADVANCED_FACE('',(#1376),#1358,.T.);
#1378=CARTESIAN_POINT('',(30.,20.4,3.8));
#1379=DIRECTION('',(0.,1.,0.));
#1380=DIRECTION('',(1.,0.,0.));
#1381=AXIS2_PLACEMENT_3D('',#1378,#1380,#1379);
#1382=PLANE('',#1381);
#1383=ORIENTED_EDGE('',*,*,#546,.F.);
#1384=ORIENTED_EDGE('',*,*,#1373,.T.);
#1385=CARTESIAN_POINT('',(30.,16.3,6.4));
#1386=DIRECTION('',(0.,1.,0.));
#1387=VECTOR('',#1386,8.2);
#1388=LINE('',#1385,#1387);
#1389=EDGE_CURVE('',#1306,#1362,#1388,.T.);
#1390=ORIENTED_EDGE('',*,*,#1389,.F.);
#1391=ORIENTED_EDGE('',*,*,#1311,.F.);
#1392=EDGE_LOOP('',(#1383,#1384,#1390,#1391));
#1393=FACE_OUTER_BOUND('',#1392,.T.);
#1394=ADVANCED_FACE('',(#1393),#1382,.T.);
#1395=CARTESIAN_POINT('',(40.,20.,0.));
#1396=DIRECTION('',(1.,-2.0301221021717E-15,0.));
#1397=DIRECTION('',(0.,0.,1.));
#1398=AXIS2_PLACEMENT_3D('',#1395,#1397,#1396);
#1399=CYLINDRICAL_SURFACE('',#1398,1.75);
#1400=CARTESIAN_POINT('',(41.75,20.,0.));
#1401=VERTEX_POINT('',#1400);
#1402=CARTESIAN_POINT('',(40.,20.,0.));
#1403=DIRECTION('',(1.,1.4355131050823E-15,-0.));
#1404=DIRECTION('',(0.,0.,1.));
#1405=AXIS2_PLACEMENT_3D('',#1402,#1404,#1403);
#1406=CIRCLE('',#1405,1.75);
#1407=EDGE_CURVE('',#1401,#1401,#1406,.T.);
#1408=ORIENTED_EDGE('',*,*,#1407,.F.);
#1409=CARTESIAN_POINT('',(41.75,20.,0.));
#1410=DIRECTION('',(0.,0.,1.));
#1411=VECTOR('',#1410,1.2);
#1412=LINE('',#1409,#1411);
#1413=EDGE_CURVE('',#1401,#551,#1412,.T.);
#1414=ORIENTED_EDGE('',*,*,#1413,.T.);
#1415=ORIENTED_EDGE('',*,*,#557,.F.);
#1416=ORIENTED_EDGE('',*,*,#1413,.F.);
#1417=EDGE_LOOP('',(#1408,#1414,#1415,#1416));
#1418=FACE_OUTER_BOUND('',#1417,.T.);
#1419=ADVANCED_FACE('',(#1418),#1399,.F.);
#1420=CARTESIAN_POINT('',(-40.,20.,-9.8003280808502E-16));
#1421=DIRECTION('',(1.,0.,5.2488221934228E-17));
#1422=DIRECTION('',(0.,0.,1.));
#1423=AXIS2_PLACEMENT_3D('',#1420,#1422,#1421);
#1424=CYLINDRICAL_SURFACE('',#1423,1.75);
#1425=CARTESIAN_POINT('',(-38.25,20.,0.));
#1426=VERTEX_POINT('',#1425);
#1427=CARTESIAN_POINT('',(-40.,20.,0.));
#1428=DIRECTION('',(1.,-0.,-0.));
#1429=DIRECTION('',(0.,-0.,1.));
#1430=AXIS2_PLACEMENT_3D('',#1427,#1429,#1428);
#1431=CIRCLE('',#1430,1.75);
#1432=EDGE_CURVE('',#1426,#1426,#1431,.T.);
#1433=ORIENTED_EDGE('',*,*,#1432,.F.);
#1434=CARTESIAN_POINT('',(-38.25,20.,0.));
#1435=DIRECTION('',(0.,0.,1.));
#1436=VECTOR('',#1435,1.2);
#1437=LINE('',#1434,#1436);
#1438=EDGE_CURVE('',#1426,#562,#1437,.T.);
#1439=ORIENTED_EDGE('',*,*,#1438,.T.);
#1440=ORIENTED_EDGE('',*,*,#568,.F.);
#1441=ORIENTED_EDGE('',*,*,#1438,.F.);
#1442=EDGE_LOOP('',(#1433,#1439,#1440,#1441));
#1443=FACE_OUTER_BOUND('',#1442,.T.);
#1444=ADVANCED_FACE('',(#1443),#1424,.F.);
#1445=CARTESIAN_POINT('',(-31.6,-12.5,2.2));
#1446=DIRECTION('',(0.,-1.,0.));
#1447=DIRECTION('',(-1.,0.,0.));
#1448=AXIS2_PLACEMENT_3D('',#1445,#1447,#1446);
#1449=PLANE('',#1448);
#1450=ORIENTED_EDGE('',*,*,#580,.F.);
#1451=CARTESIAN_POINT('',(-31.6,-23.2,3.2));
#1452=VERTEX_POINT('',#1451);
#1453=CARTESIAN_POINT('',(-31.6,-23.2,1.2));
#1454=DIRECTION('',(0.,0.,1.));
#1455=VECTOR('',#1454,2.);
#1456=LINE('',#1453,#1455);
#1457=EDGE_CURVE('',#573,#1452,#1456,.T.);
#1458=ORIENTED_EDGE('',*,*,#1457,.T.);
#1459=CARTESIAN_POINT('',(-31.6,-1.8,3.2));
#1460=VERTEX_POINT('',#1459);
#1461=CARTESIAN_POINT('',(-31.6,-23.2,3.2));
#1462=DIRECTION('',(0.,1.,0.));
#1463=VECTOR('',#1462,21.4);
#1464=LINE('',#1461,#1463);
#1465=EDGE_CURVE('',#1452,#1460,#1464,.T.);
#1466=ORIENTED_EDGE('',*,*,#1465,.T.);
#1467=CARTESIAN_POINT('',(-31.6,-1.8,3.2));
#1468=DIRECTION('',(0.,0.,-1.));
#1469=VECTOR('',#1468,2.);
#1470=LINE('',#1467,#1469);
#1471=EDGE_CURVE('',#1460,#575,#1470,.T.);
#1472=ORIENTED_EDGE('',*,*,#1471,.T.);
#1473=EDGE_LOOP('',(#1450,#1458,#1466,#1472));
#1474=FACE_OUTER_BOUND('',#1473,.T.);
#1475=ADVANCED_FACE('',(#1474),#1449,.T.);
#1476=CARTESIAN_POINT('',(3.5527136788005E-15,-1.8,2.2));
#1477=DIRECTION('',(-1.,-6.324055203561E-17,0.));
#1478=DIRECTION('',(-6.324055203561E-17,1.,0.));
#1479=AXIS2_PLACEMENT_3D('',#1476,#1478,#1477);
#1480=PLANE('',#1479);
#1481=ORIENTED_EDGE('',*,*,#588,.F.);
#1482=ORIENTED_EDGE('',*,*,#1471,.F.);
#1483=CARTESIAN_POINT('',(31.6,-1.8,3.2));
#1484=VERTEX_POINT('',#1483);
#1485=CARTESIAN_POINT('',(-31.6,-1.8,3.2));
#1486=DIRECTION('',(1.,0.,0.));
#1487=VECTOR('',#1486,63.2);
#1488=LINE('',#1485,#1487);
#1489=EDGE_CURVE('',#1460,#1484,#1488,.T.);
#1490=ORIENTED_EDGE('',*,*,#1489,.T.);
#1491=CARTESIAN_POINT('',(31.6,-1.8,3.2));
#1492=DIRECTION('',(0.,0.,-1.));
#1493=VECTOR('',#1492,2.);
#1494=LINE('',#1491,#1493);
#1495=EDGE_CURVE('',#1484,#583,#1494,.T.);
#1496=ORIENTED_EDGE('',*,*,#1495,.T.);
#1497=EDGE_LOOP('',(#1481,#1482,#1490,#1496));
#1498=FACE_OUTER_BOUND('',#1497,.T.);
#1499=ADVANCED_FACE('',(#1498),#1480,.T.);
#1500=CARTESIAN_POINT('',(31.6,-12.5,2.2));
#1501=DIRECTION('',(0.,1.,0.));
#1502=DIRECTION('',(1.,0.,0.));
#1503=AXIS2_PLACEMENT_3D('',#1500,#1502,#1501);
#1504=PLANE('',#1503);
#1505=ORIENTED_EDGE('',*,*,#596,.F.);
#1506=ORIENTED_EDGE('',*,*,#1495,.F.);
#1507=CARTESIAN_POINT('',(31.6,-23.2,3.2));
#1508=VERTEX_POINT('',#1507);
#1509=CARTESIAN_POINT('',(31.6,-1.8,3.2));
#1510=DIRECTION('',(0.,-1.,0.));
#1511=VECTOR('',#1510,21.4);
#1512=LINE('',#1509,#1511);
#1513=EDGE_CURVE('',#1484,#1508,#1512,.T.);
#1514=ORIENTED_EDGE('',*,*,#1513,.T.);
#1515=CARTESIAN_POINT('',(31.6,-23.2,3.2));
#1516=DIRECTION('',(0.,0.,-1.));
#1517=VECTOR('',#1516,2.);
#1518=LINE('',#1515,#1517);
#1519=EDGE_CURVE('',#1508,#591,#1518,.T.);
#1520=ORIENTED_EDGE('',*,*,#1519,.T.);
#1521=EDGE_LOOP('',(#1505,#1506,#1514,#1520));
#1522=FACE_OUTER_BOUND('',#1521,.T.);
#1523=ADVANCED_FACE('',(#1522),#1504,.T.);
#1524=CARTESIAN_POINT('',(-3.5527136788005E-15,-23.2,2.2));
#1525=DIRECTION('',(1.,1.1242764806331E-16,0.));
#1526=DIRECTION('',(1.1242764806331E-16,-1.,0.));
#1527=AXIS2_PLACEMENT_3D('',#1524,#1526,#1525);
#1528=PLANE('',#1527);
#1529=ORIENTED_EDGE('',*,*,#602,.F.);
#1530=ORIENTED_EDGE('',*,*,#1519,.F.);
#1531=CARTESIAN_POINT('',(31.6,-23.2,3.2));
#1532=DIRECTION('',(-1.,0.,0.));
#1533=VECTOR('',#1532,63.2);
#1534=LINE('',#1531,#1533);
#1535=EDGE_CURVE('',#1508,#1452,#1534,.T.);
#1536=ORIENTED_EDGE('',*,*,#1535,.T.);
#1537=ORIENTED_EDGE('',*,*,#1457,.F.);
#1538=EDGE_LOOP('',(#1529,#1530,#1536,#1537));
#1539=FACE_OUTER_BOUND('',#1538,.T.);
#1540=ADVANCED_FACE('',(#1539),#1528,.T.);
#1541=CARTESIAN_POINT('',(44.85,-15.,12.95));
#1542=DIRECTION('',(0.,1.,0.));
#1543=DIRECTION('',(1.,0.,0.));
#1544=AXIS2_PLACEMENT_3D('',#1541,#1543,#1542);
#1545=PLANE('',#1544);
#1546=ORIENTED_EDGE('',*,*,#628,.F.);
#1547=CARTESIAN_POINT('',(44.85,-5.5,13.7));
#1548=VERTEX_POINT('',#1547);
#1549=CARTESIAN_POINT('',(44.85,-5.5,13.7));
#1550=DIRECTION('',(0.,0.,-1.));
#1551=VECTOR('',#1550,1.5);
#1552=LINE('',#1549,#1551);
#1553=EDGE_CURVE('',#1548,#621,#1552,.T.);
#1554=ORIENTED_EDGE('',*,*,#1553,.F.);
#1555=CARTESIAN_POINT('',(44.85,-24.5,13.7));
#1556=VERTEX_POINT('',#1555);
#1557=CARTESIAN_POINT('',(44.85,-24.5,13.7));
#1558=DIRECTION('',(0.,1.,0.));
#1559=VECTOR('',#1558,19.);
#1560=LINE('',#1557,#1559);
#1561=EDGE_CURVE('',#1556,#1548,#1560,.T.);
#1562=ORIENTED_EDGE('',*,*,#1561,.F.);
#1563=CARTESIAN_POINT('',(44.85,-24.5,12.2));
#1564=DIRECTION('',(0.,0.,1.));
#1565=VECTOR('',#1564,1.5);
#1566=LINE('',#1563,#1565);
#1567=EDGE_CURVE('',#623,#1556,#1566,.T.);
#1568=ORIENTED_EDGE('',*,*,#1567,.F.);
#1569=EDGE_LOOP('',(#1546,#1554,#1562,#1568));
#1570=FACE_OUTER_BOUND('',#1569,.T.);
#1571=ADVANCED_FACE('',(#1570),#1545,.T.);
#1572=CARTESIAN_POINT('',(-1.4210854715202E-14,-24.5,15.55));
#1573=DIRECTION('',(1.,7.9213236985518E-17,0.));
#1574=DIRECTION('',(7.9213236985518E-17,-1.,0.));
#1575=AXIS2_PLACEMENT_3D('',#1572,#1574,#1573);
#1576=PLANE('',#1575);
#1577=ORIENTED_EDGE('',*,*,#636,.F.);
#1578=ORIENTED_EDGE('',*,*,#1567,.T.);
#1579=CARTESIAN_POINT('',(-9.35,-24.5,13.7));
#1580=VERTEX_POINT('',#1579);
#1581=CARTESIAN_POINT('',(-9.35,-24.5,13.7));
#1582=DIRECTION('',(1.,0.,0.));
#1583=VECTOR('',#1582,54.2);
#1584=LINE('',#1581,#1583);
#1585=EDGE_CURVE('',#1580,#1556,#1584,.T.);
#1586=ORIENTED_EDGE('',*,*,#1585,.F.);
#1587=CARTESIAN_POINT('',(-9.35,-24.5,18.9));
#1588=VERTEX_POINT('',#1587);
#1589=CARTESIAN_POINT('',(-9.35,-24.5,18.9));
#1590=DIRECTION('',(0.,0.,-1.));
#1591=VECTOR('',#1590,5.2);
#1592=LINE('',#1589,#1591);
#1593=EDGE_CURVE('',#1588,#1580,#1592,.T.);
#1594=ORIENTED_EDGE('',*,*,#1593,.F.);
#1595=CARTESIAN_POINT('',(-23.35,-24.5,18.9));
#1596=VERTEX_POINT('',#1595);
#1597=CARTESIAN_POINT('',(-23.35,-24.5,18.9));
#1598=DIRECTION('',(1.,0.,0.));
#1599=VECTOR('',#1598,14.);
#1600=LINE('',#1597,#1599);
#1601=EDGE_CURVE('',#1596,#1588,#1600,.T.);
#1602=ORIENTED_EDGE('',*,*,#1601,.F.);
#1603=CARTESIAN_POINT('',(-23.35,-24.5,13.7));
#1604=VERTEX_POINT('',#1603);
#1605=CARTESIAN_POINT('',(-23.35,-24.5,13.7));
#1606=DIRECTION('',(0.,0.,1.));
#1607=VECTOR('',#1606,5.2);
#1608=LINE('',#1605,#1607);
#1609=EDGE_CURVE('',#1604,#1596,#1608,.T.);
#1610=ORIENTED_EDGE('',*,*,#1609,.F.);
#1611=CARTESIAN_POINT('',(-44.85,-24.5,13.7));
#1612=VERTEX_POINT('',#1611);
#1613=CARTESIAN_POINT('',(-44.85,-24.5,13.7));
#1614=DIRECTION('',(1.,1.652424966884E-16,-8.2621248344198E-17));
#1615=VECTOR('',#1614,21.5);
#1616=LINE('',#1613,#1615);
#1617=EDGE_CURVE('',#1612,#1604,#1616,.T.);
#1618=ORIENTED_EDGE('',*,*,#1617,.F.);
#1619=CARTESIAN_POINT('',(-44.85,-24.5,12.2));
#1620=DIRECTION('',(0.,0.,1.));
#1621=VECTOR('',#1620,1.5);
#1622=LINE('',#1619,#1621);
#1623=EDGE_CURVE('',#631,#1612,#1622,.T.);
#1624=ORIENTED_EDGE('',*,*,#1623,.F.);
#1625=EDGE_LOOP('',(#1577,#1578,#1586,#1594,#1602,#1610,#1618,#1624));
#1626=FACE_OUTER_BOUND('',#1625,.T.);
#1627=ADVANCED_FACE('',(#1626),#1576,.T.);
#1628=CARTESIAN_POINT('',(-44.85,-15.,12.95));
#1629=DIRECTION('',(7.4793972185274E-16,-1.,0.));
#1630=DIRECTION('',(-1.,-7.4793972185274E-16,0.));
#1631=AXIS2_PLACEMENT_3D('',#1628,#1630,#1629);
#1632=PLANE('',#1631);
#1633=ORIENTED_EDGE('',*,*,#644,.F.);
#1634=ORIENTED_EDGE('',*,*,#1623,.T.);
#1635=CARTESIAN_POINT('',(-44.85,-5.5,13.7));
#1636=VERTEX_POINT('',#1635);
#1637=CARTESIAN_POINT('',(-44.85,-5.5,13.7));
#1638=DIRECTION('',(0.,-1.,0.));
#1639=VECTOR('',#1638,19.);
#1640=LINE('',#1637,#1639);
#1641=EDGE_CURVE('',#1636,#1612,#1640,.T.);
#1642=ORIENTED_EDGE('',*,*,#1641,.F.);
#1643=CARTESIAN_POINT('',(-44.85,-5.5,12.2));
#1644=DIRECTION('',(0.,0.,1.));
#1645=VECTOR('',#1644,1.5);
#1646=LINE('',#1643,#1645);
#1647=EDGE_CURVE('',#639,#1636,#1646,.T.);
#1648=ORIENTED_EDGE('',*,*,#1647,.F.);
#1649=EDGE_LOOP('',(#1633,#1634,#1642,#1648));
#1650=FACE_OUTER_BOUND('',#1649,.T.);
#1651=ADVANCED_FACE('',(#1650),#1632,.T.);
#1652=CARTESIAN_POINT('',(7.105427357601E-15,-5.5,12.95));
#1653=DIRECTION('',(-1.,3.9606618492759E-17,0.));
#1654=DIRECTION('',(3.9606618492759E-17,1.,-0.));
#1655=AXIS2_PLACEMENT_3D('',#1652,#1654,#1653);
#1656=PLANE('',#1655);
#1657=ORIENTED_EDGE('',*,*,#650,.F.);
#1658=ORIENTED_EDGE('',*,*,#1647,.T.);
#1659=CARTESIAN_POINT('',(44.85,-5.5,13.7));
#1660=DIRECTION('',(-1.,0.,0.));
#1661=VECTOR('',#1660,89.7);
#1662=LINE('',#1659,#1661);
#1663=EDGE_CURVE('',#1548,#1636,#1662,.T.);
#1664=ORIENTED_EDGE('',*,*,#1663,.F.);
#1665=ORIENTED_EDGE('',*,*,#1553,.T.);
#1666=EDGE_LOOP('',(#1657,#1658,#1664,#1665));
#1667=FACE_OUTER_BOUND('',#1666,.T.);
#1668=ADVANCED_FACE('',(#1667),#1656,.T.);
#1669=CARTESIAN_POINT('',(7.105427357601E-15,20.,0.));
#1670=DIRECTION('',(1.,0.,0.));
#1671=DIRECTION('',(0.,0.,-1.));
#1672=AXIS2_PLACEMENT_3D('',#1669,#1671,#1670);
#1673=PLANE('',#1672);
#1674=ORIENTED_EDGE('',*,*,#901,.T.);
#1675=ORIENTED_EDGE('',*,*,#878,.T.);
#1676=ORIENTED_EDGE('',*,*,#854,.T.);
#1677=ORIENTED_EDGE('',*,*,#829,.T.);
#1678=ORIENTED_EDGE('',*,*,#805,.T.);
#1679=ORIENTED_EDGE('',*,*,#780,.T.);
#1680=ORIENTED_EDGE('',*,*,#756,.T.);
#1681=ORIENTED_EDGE('',*,*,#726,.T.);
#1682=EDGE_LOOP('',(#1674,#1675,#1676,#1677,#1678,#1679,#1680,#1681));
#1683=FACE_OUTER_BOUND('',#1682,.T.);
#1684=CARTESIAN_POINT('',(-38.25,-20.,0.));
#1685=VERTEX_POINT('',#1684);
#1686=CARTESIAN_POINT('',(-40.,-20.,0.));
#1687=DIRECTION('',(1.,-0.,-0.));
#1688=DIRECTION('',(0.,-0.,1.));
#1689=AXIS2_PLACEMENT_3D('',#1686,#1688,#1687);
#1690=CIRCLE('',#1689,1.75);
#1691=EDGE_CURVE('',#1685,#1685,#1690,.T.);
#1692=ORIENTED_EDGE('',*,*,#1691,.T.);
#1693=EDGE_LOOP('',(#1692));
#1694=FACE_BOUND('',#1693,.T.);
#1695=ORIENTED_EDGE('',*,*,#1432,.T.);
#1696=EDGE_LOOP('',(#1695));
#1697=FACE_BOUND('',#1696,.T.);
#1698=ORIENTED_EDGE('',*,*,#1407,.T.);
#1699=EDGE_LOOP('',(#1698));
#1700=FACE_BOUND('',#1699,.T.);
#1701=CARTESIAN_POINT('',(41.75,-20.,0.));
#1702=VERTEX_POINT('',#1701);
#1703=CARTESIAN_POINT('',(40.,-20.,0.));
#1704=DIRECTION('',(1.,1.4355131050823E-15,-0.));
#1705=DIRECTION('',(0.,0.,1.));
#1706=AXIS2_PLACEMENT_3D('',#1703,#1705,#1704);
#1707=CIRCLE('',#1706,1.75);
#1708=EDGE_CURVE('',#1702,#1702,#1707,.T.);
#1709=ORIENTED_EDGE('',*,*,#1708,.T.);
#1710=EDGE_LOOP('',(#1709));
#1711=FACE_BOUND('',#1710,.T.);
#1712=ADVANCED_FACE('',(#1683,#1694,#1697,#1700,#1711),#1673,.T.);
#1713=CARTESIAN_POINT('',(-25.35,22.15,7.55));
#1714=DIRECTION('',(1.,0.,0.));
#1715=DIRECTION('',(0.,0.,1.));
#1716=AXIS2_PLACEMENT_3D('',#1713,#1715,#1714);
#1717=PLANE('',#1716);
#1718=ORIENTED_EDGE('',*,*,#1031,.T.);
#1719=ORIENTED_EDGE('',*,*,#1101,.T.);
#1720=ORIENTED_EDGE('',*,*,#1079,.T.);
#1721=ORIENTED_EDGE('',*,*,#1055,.T.);
#1722=EDGE_LOOP('',(#1718,#1719,#1720,#1721));
#1723=FACE_OUTER_BOUND('',#1722,.T.);
#1724=ADVANCED_FACE('',(#1723),#1717,.T.);
#1725=CARTESIAN_POINT('',(-37.5,1.5,6.5));
#1726=DIRECTION('',(1.,0.,0.));
#1727=DIRECTION('',(0.,0.,1.));
#1728=AXIS2_PLACEMENT_3D('',#1725,#1727,#1726);
#1729=PLANE('',#1728);
#1730=ORIENTED_EDGE('',*,*,#1151,.T.);
#1731=ORIENTED_EDGE('',*,*,#1127,.T.);
#1732=ORIENTED_EDGE('',*,*,#1197,.T.);
#1733=ORIENTED_EDGE('',*,*,#1175,.T.);
#1734=EDGE_LOOP('',(#1730,#1731,#1732,#1733));
#1735=FACE_OUTER_BOUND('',#1734,.T.);
#1736=ADVANCED_FACE('',(#1735),#1729,.T.);
#1737=CARTESIAN_POINT('',(40.45,-4.35,6.7));
#1738=DIRECTION('',(1.,0.,0.));
#1739=DIRECTION('',(0.,0.,1.));
#1740=AXIS2_PLACEMENT_3D('',#1737,#1739,#1738);
#1741=PLANE('',#1740);
#1742=ORIENTED_EDGE('',*,*,#1293,.T.);
#1743=ORIENTED_EDGE('',*,*,#1271,.T.);
#1744=ORIENTED_EDGE('',*,*,#1247,.T.);
#1745=ORIENTED_EDGE('',*,*,#1223,.T.);
#1746=EDGE_LOOP('',(#1742,#1743,#1744,#1745));
#1747=FACE_OUTER_BOUND('',#1746,.T.);
#1748=ADVANCED_FACE('',(#1747),#1741,.T.);
#1749=CARTESIAN_POINT('',(24.05,22.25,6.4));
#1750=DIRECTION('',(1.,0.,0.));
#1751=DIRECTION('',(0.,0.,1.));
#1752=AXIS2_PLACEMENT_3D('',#1749,#1751,#1750);
#1753=PLANE('',#1752);
#1754=ORIENTED_EDGE('',*,*,#1343,.T.);
#1755=ORIENTED_EDGE('',*,*,#1319,.T.);
#1756=ORIENTED_EDGE('',*,*,#1389,.T.);
#1757=ORIENTED_EDGE('',*,*,#1367,.T.);
#1758=EDGE_LOOP('',(#1754,#1755,#1756,#1757));
#1759=FACE_OUTER_BOUND('',#1758,.T.);
#1760=ADVANCED_FACE('',(#1759),#1753,.T.);
#1761=CARTESIAN_POINT('',(-2.8421709430404E-14,-33.4,3.2));
#1762=DIRECTION('',(1.1242764806331E-16,-1.,0.));
#1763=DIRECTION('',(-0.,0.,1.));
#1764=AXIS2_PLACEMENT_3D('',#1761,#1763,#1762);
#1765=PLANE('',#1764);
#1766=ORIENTED_EDGE('',*,*,#1489,.F.);
#1767=ORIENTED_EDGE('',*,*,#1465,.F.);
#1768=ORIENTED_EDGE('',*,*,#1535,.F.);
#1769=ORIENTED_EDGE('',*,*,#1513,.F.);
#1770=EDGE_LOOP('',(#1766,#1767,#1768,#1769));
#1771=FACE_OUTER_BOUND('',#1770,.T.);
#1772=ADVANCED_FACE('',(#1771),#1765,.T.);
#1773=CARTESIAN_POINT('',(-7.105427357601E-15,-50.35,13.7));
#1774=DIRECTION('',(-1.,0.,0.));
#1775=DIRECTION('',(0.,0.,1.));
#1776=AXIS2_PLACEMENT_3D('',#1773,#1775,#1774);
#1777=PLANE('',#1776);
#1778=ORIENTED_EDGE('',*,*,#1663,.T.);
#1779=ORIENTED_EDGE('',*,*,#1641,.T.);
#1780=ORIENTED_EDGE('',*,*,#1617,.T.);
#1781=CARTESIAN_POINT('',(-23.35,-16.3,13.7));
#1782=VERTEX_POINT('',#1781);
#1783=CARTESIAN_POINT('',(-23.35,-24.5,13.7));
#1784=DIRECTION('',(0.,1.,0.));
#1785=VECTOR('',#1784,8.2);
#1786=LINE('',#1783,#1785);
#1787=EDGE_CURVE('',#1604,#1782,#1786,.T.);
#1788=ORIENTED_EDGE('',*,*,#1787,.T.);
#1789=CARTESIAN_POINT('',(-9.35,-16.3,13.7));
#1790=VERTEX_POINT('',#1789);
#1791=CARTESIAN_POINT('',(-23.35,-16.3,13.7));
#1792=DIRECTION('',(1.,0.,0.));
#1793=VECTOR('',#1792,14.);
#1794=LINE('',#1791,#1793);
#1795=EDGE_CURVE('',#1782,#1790,#1794,.T.);
#1796=ORIENTED_EDGE('',*,*,#1795,.T.);
#1797=CARTESIAN_POINT('',(-9.35,-16.3,13.7));
#1798=DIRECTION('',(0.,-1.,0.));
#1799=VECTOR('',#1798,8.2);
#1800=LINE('',#1797,#1799);
#1801=EDGE_CURVE('',#1790,#1580,#1800,.T.);
#1802=ORIENTED_EDGE('',*,*,#1801,.T.);
#1803=ORIENTED_EDGE('',*,*,#1585,.T.);
#1804=ORIENTED_EDGE('',*,*,#1561,.T.);
#1805=EDGE_LOOP('',(#1778,#1779,#1780,#1788,#1796,#1802,#1803,#1804));
#1806=FACE_OUTER_BOUND('',#1805,.T.);
#1807=CARTESIAN_POINT('',(34.65,-16.2,13.7));
#1808=VERTEX_POINT('',#1807);
#1809=CARTESIAN_POINT('',(34.65,-6.2,13.7));
#1810=VERTEX_POINT('',#1809);
#1811=CARTESIAN_POINT('',(34.65,-16.2,13.7));
#1812=DIRECTION('',(0.,1.,0.));
#1813=VECTOR('',#1812,10.);
#1814=LINE('',#1811,#1813);
#1815=EDGE_CURVE('',#1808,#1810,#1814,.T.);
#1816=ORIENTED_EDGE('',*,*,#1815,.T.);
#1817=CARTESIAN_POINT('',(43.65,-6.2,13.7));
#1818=VERTEX_POINT('',#1817);
#1819=CARTESIAN_POINT('',(34.65,-6.2,13.7));
#1820=DIRECTION('',(1.,0.,0.));
#1821=VECTOR('',#1820,9.);
#1822=LINE('',#1819,#1821);
#1823=EDGE_CURVE('',#1810,#1818,#1822,.T.);
#1824=ORIENTED_EDGE('',*,*,#1823,.T.);
#1825=CARTESIAN_POINT('',(43.65,-16.2,13.7));
#1826=VERTEX_POINT('',#1825);
#1827=CARTESIAN_POINT('',(43.65,-6.2,13.7));
#1828=DIRECTION('',(0.,-1.,0.));
#1829=VECTOR('',#1828,10.);
#1830=LINE('',#1827,#1829);
#1831=EDGE_CURVE('',#1818,#1826,#1830,.T.);
#1832=ORIENTED_EDGE('',*,*,#1831,.T.);
#1833=CARTESIAN_POINT('',(43.65,-16.2,13.7));
#1834=DIRECTION('',(-1.,0.,0.));
#1835=VECTOR('',#1834,9.);
#1836=LINE('',#1833,#1835);
#1837=EDGE_CURVE('',#1826,#1808,#1836,.T.);
#1838=ORIENTED_EDGE('',*,*,#1837,.T.);
#1839=EDGE_LOOP('',(#1816,#1824,#1832,#1838));
#1840=FACE_BOUND('',#1839,.T.);
#1841=CARTESIAN_POINT('',(-41.75,-20.,13.7));
#1842=VERTEX_POINT('',#1841);
#1843=CARTESIAN_POINT('',(-40.,-20.,13.7));
#1844=DIRECTION('',(-1.,0.,-0.));
#1845=DIRECTION('',(0.,0.,-1.));
#1846=AXIS2_PLACEMENT_3D('',#1843,#1845,#1844);
#1847=CIRCLE('',#1846,1.75);
#1848=EDGE_CURVE('',#1842,#1842,#1847,.T.);
#1849=ORIENTED_EDGE('',*,*,#1848,.T.);
#1850=EDGE_LOOP('',(#1849));
#1851=FACE_BOUND('',#1850,.T.);
#1852=CARTESIAN_POINT('',(38.25,-20.,13.7));
#1853=VERTEX_POINT('',#1852);
#1854=CARTESIAN_POINT('',(40.,-20.,13.7));
#1855=DIRECTION('',(-1.,0.,-0.));
#1856=DIRECTION('',(0.,0.,-1.));
#1857=AXIS2_PLACEMENT_3D('',#1854,#1856,#1855);
#1858=CIRCLE('',#1857,1.75);
#1859=EDGE_CURVE('',#1853,#1853,#1858,.T.);
#1860=ORIENTED_EDGE('',*,*,#1859,.T.);
#1861=EDGE_LOOP('',(#1860));
#1862=FACE_BOUND('',#1861,.T.);
#1863=ADVANCED_FACE('',(#1806,#1840,#1851,#1862),#1777,.T.);
#1864=CARTESIAN_POINT('',(-9.35,-20.4,16.3));
#1865=DIRECTION('',(0.,1.,0.));
#1866=DIRECTION('',(1.,0.,0.));
#1867=AXIS2_PLACEMENT_3D('',#1864,#1866,#1865);
#1868=PLANE('',#1867);
#1869=ORIENTED_EDGE('',*,*,#1801,.F.);
#1870=CARTESIAN_POINT('',(-9.35,-16.3,18.9));
#1871=VERTEX_POINT('',#1870);
#1872=CARTESIAN_POINT('',(-9.35,-16.3,13.7));
#1873=DIRECTION('',(0.,0.,1.));
#1874=VECTOR('',#1873,5.2);
#1875=LINE('',#1872,#1874);
#1876=EDGE_CURVE('',#1790,#1871,#1875,.T.);
#1877=ORIENTED_EDGE('',*,*,#1876,.T.);
#1878=CARTESIAN_POINT('',(-9.35,-24.5,18.9));
#1879=DIRECTION('',(0.,1.,0.));
#1880=VECTOR('',#1879,8.2);
#1881=LINE('',#1878,#1880);
#1882=EDGE_CURVE('',#1588,#1871,#1881,.T.);
#1883=ORIENTED_EDGE('',*,*,#1882,.F.);
#1884=ORIENTED_EDGE('',*,*,#1593,.T.);
#1885=EDGE_LOOP('',(#1869,#1877,#1883,#1884));
#1886=FACE_OUTER_BOUND('',#1885,.T.);
#1887=ADVANCED_FACE('',(#1886),#1868,.T.);
#1888=CARTESIAN_POINT('',(-16.35,-23.3,18.9));
#1889=DIRECTION('',(-1.,2.5376526277146E-16,0.));
#1890=DIRECTION('',(0.,0.,1.));
#1891=AXIS2_PLACEMENT_3D('',#1888,#1890,#1889);
#1892=PLANE('',#1891);
#1893=ORIENTED_EDGE('',*,*,#1882,.T.);
#1894=CARTESIAN_POINT('',(-23.35,-16.3,18.9));
#1895=VERTEX_POINT('',#1894);
#1896=CARTESIAN_POINT('',(-9.35,-16.3,18.9));
#1897=DIRECTION('',(-1.,0.,0.));
#1898=VECTOR('',#1897,14.);
#1899=LINE('',#1896,#1898);
#1900=EDGE_CURVE('',#1871,#1895,#1899,.T.);
#1901=ORIENTED_EDGE('',*,*,#1900,.T.);
#1902=CARTESIAN_POINT('',(-23.35,-16.3,18.9));
#1903=DIRECTION('',(0.,-1.,0.));
#1904=VECTOR('',#1903,8.2);
#1905=LINE('',#1902,#1904);
#1906=EDGE_CURVE('',#1895,#1596,#1905,.T.);
#1907=ORIENTED_EDGE('',*,*,#1906,.T.);
#1908=ORIENTED_EDGE('',*,*,#1601,.T.);
#1909=EDGE_LOOP('',(#1893,#1901,#1907,#1908));
#1910=FACE_OUTER_BOUND('',#1909,.T.);
#1911=ADVANCED_FACE('',(#1910),#1892,.T.);
#1912=CARTESIAN_POINT('',(-23.35,-20.4,16.3));
#1913=DIRECTION('',(0.,-1.,0.));
#1914=DIRECTION('',(-1.,0.,0.));
#1915=AXIS2_PLACEMENT_3D('',#1912,#1914,#1913);
#1916=PLANE('',#1915);
#1917=ORIENTED_EDGE('',*,*,#1787,.F.);
#1918=ORIENTED_EDGE('',*,*,#1609,.T.);
#1919=ORIENTED_EDGE('',*,*,#1906,.F.);
#1920=CARTESIAN_POINT('',(-23.35,-16.3,13.7));
#1921=DIRECTION('',(0.,0.,1.));
#1922=VECTOR('',#1921,5.2);
#1923=LINE('',#1920,#1922);
#1924=EDGE_CURVE('',#1782,#1895,#1923,.T.);
#1925=ORIENTED_EDGE('',*,*,#1924,.F.);
#1926=EDGE_LOOP('',(#1917,#1918,#1919,#1925));
#1927=FACE_OUTER_BOUND('',#1926,.T.);
#1928=ADVANCED_FACE('',(#1927),#1916,.T.);
#1929=CARTESIAN_POINT('',(-40.,-20.,0.));
#1930=DIRECTION('',(1.,2.0301221021717E-15,0.));
#1931=DIRECTION('',(0.,0.,1.));
#1932=AXIS2_PLACEMENT_3D('',#1929,#1931,#1930);
#1933=CYLINDRICAL_SURFACE('',#1932,1.75);
#1934=ORIENTED_EDGE('',*,*,#1691,.F.);
#1935=CARTESIAN_POINT('',(-38.25,-20.,1.2));
#1936=VERTEX_POINT('',#1935);
#1937=CARTESIAN_POINT('',(-38.25,-20.,0.));
#1938=DIRECTION('',(0.,0.,1.));
#1939=VECTOR('',#1938,1.2);
#1940=LINE('',#1937,#1939);
#1941=EDGE_CURVE('',#1685,#1936,#1940,.T.);
#1942=ORIENTED_EDGE('',*,*,#1941,.T.);
#1943=CARTESIAN_POINT('',(-40.,-20.,1.2));
#1944=DIRECTION('',(1.,1.8111602415789E-32,-1.3457935360147E-16));
#1945=DIRECTION('',(-1.3457935360147E-16,1.3457935360147E-16,-1.));
#1946=AXIS2_PLACEMENT_3D('',#1943,#1945,#1944);
#1947=CIRCLE('',#1946,1.75);
#1948=EDGE_CURVE('',#1936,#1936,#1947,.T.);
#1949=ORIENTED_EDGE('',*,*,#1948,.F.);
#1950=ORIENTED_EDGE('',*,*,#1941,.F.);
#1951=EDGE_LOOP('',(#1934,#1942,#1949,#1950));
#1952=FACE_OUTER_BOUND('',#1951,.T.);
#1953=ADVANCED_FACE('',(#1952),#1933,.F.);
#1954=CARTESIAN_POINT('',(40.,-20.,0.));
#1955=DIRECTION('',(1.,-2.0301221021717E-15,0.));
#1956=DIRECTION('',(0.,0.,1.));
#1957=AXIS2_PLACEMENT_3D('',#1954,#1956,#1955);
#1958=CYLINDRICAL_SURFACE('',#1957,1.75);
#1959=ORIENTED_EDGE('',*,*,#1708,.F.);
#1960=CARTESIAN_POINT('',(41.75,-20.,0.));
#1961=DIRECTION('',(0.,0.,1.));
#1962=VECTOR('',#1961,1.2);
#1963=LINE('',#1960,#1962);
#1964=EDGE_CURVE('',#1702,#36,#1963,.T.);
#1965=ORIENTED_EDGE('',*,*,#1964,.T.);
#1966=ORIENTED_EDGE('',*,*,#42,.F.);
#1967=ORIENTED_EDGE('',*,*,#1964,.F.);
#1968=EDGE_LOOP('',(#1959,#1965,#1966,#1967));
#1969=FACE_OUTER_BOUND('',#1968,.T.);
#1970=ADVANCED_FACE('',(#1969),#1958,.F.);
#1971=CARTESIAN_POINT('',(-16.35,-16.3,16.3));
#1972=DIRECTION('',(-1.,0.,0.));
#1973=DIRECTION('',(0.,1.,-0.));
#1974=AXIS2_PLACEMENT_3D('',#1971,#1973,#1972);
#1975=PLANE('',#1974);
#1976=ORIENTED_EDGE('',*,*,#1795,.F.);
#1977=ORIENTED_EDGE('',*,*,#1924,.T.);
#1978=ORIENTED_EDGE('',*,*,#1900,.F.);
#1979=ORIENTED_EDGE('',*,*,#1876,.F.);
#1980=EDGE_LOOP('',(#1976,#1977,#1978,#1979));
#1981=FACE_OUTER_BOUND('',#1980,.T.);
#1982=ADVANCED_FACE('',(#1981),#1975,.T.);
#1983=CARTESIAN_POINT('',(34.65,-11.2,16.55));
#1984=DIRECTION('',(0.,-1.,0.));
#1985=DIRECTION('',(-1.,0.,0.));
#1986=AXIS2_PLACEMENT_3D('',#1983,#1985,#1984);
#1987=PLANE('',#1986);
#1988=ORIENTED_EDGE('',*,*,#1815,.F.);
#1989=CARTESIAN_POINT('',(34.65,-16.2,19.4));
#1990=VERTEX_POINT('',#1989);
#1991=CARTESIAN_POINT('',(34.65,-16.2,13.7));
#1992=DIRECTION('',(0.,0.,1.));
#1993=VECTOR('',#1992,5.7);
#1994=LINE('',#1991,#1993);
#1995=EDGE_CURVE('',#1808,#1990,#1994,.T.);
#1996=ORIENTED_EDGE('',*,*,#1995,.T.);
#1997=CARTESIAN_POINT('',(34.65,-6.2,19.4));
#1998=VERTEX_POINT('',#1997);
#1999=CARTESIAN_POINT('',(34.65,-6.2,19.4));
#2000=DIRECTION('',(0.,-1.,0.));
#2001=VECTOR('',#2000,10.);
#2002=LINE('',#1999,#2001);
#2003=EDGE_CURVE('',#1998,#1990,#2002,.T.);
#2004=ORIENTED_EDGE('',*,*,#2003,.F.);
#2005=CARTESIAN_POINT('',(34.65,-6.2,13.7));
#2006=DIRECTION('',(0.,0.,1.));
#2007=VECTOR('',#2006,5.7);
#2008=LINE('',#2005,#2007);
#2009=EDGE_CURVE('',#1810,#1998,#2008,.T.);
#2010=ORIENTED_EDGE('',*,*,#2009,.F.);
#2011=EDGE_LOOP('',(#1988,#1996,#2004,#2010));
#2012=FACE_OUTER_BOUND('',#2011,.T.);
#2013=ADVANCED_FACE('',(#2012),#1987,.T.);
#2014=CARTESIAN_POINT('',(39.15,-6.2,16.55));
#2015=DIRECTION('',(-1.,0.,0.));
#2016=DIRECTION('',(0.,1.,-0.));
#2017=AXIS2_PLACEMENT_3D('',#2014,#2016,#2015);
#2018=PLANE('',#2017);
#2019=ORIENTED_EDGE('',*,*,#1823,.F.);
#2020=ORIENTED_EDGE('',*,*,#2009,.T.);
#2021=CARTESIAN_POINT('',(43.65,-6.2,19.4));
#2022=VERTEX_POINT('',#2021);
#2023=CARTESIAN_POINT('',(43.65,-6.2,19.4));
#2024=DIRECTION('',(-1.,0.,0.));
#2025=VECTOR('',#2024,9.);
#2026=LINE('',#2023,#2025);
#2027=EDGE_CURVE('',#2022,#1998,#2026,.T.);
#2028=ORIENTED_EDGE('',*,*,#2027,.F.);
#2029=CARTESIAN_POINT('',(43.65,-6.2,19.4));
#2030=DIRECTION('',(0.,0.,-1.));
#2031=VECTOR('',#2030,5.7);
#2032=LINE('',#2029,#2031);
#2033=EDGE_CURVE('',#2022,#1818,#2032,.T.);
#2034=ORIENTED_EDGE('',*,*,#2033,.T.);
#2035=EDGE_LOOP('',(#2019,#2020,#2028,#2034));
#2036=FACE_OUTER_BOUND('',#2035,.T.);
#2037=ADVANCED_FACE('',(#2036),#2018,.T.);
#2038=CARTESIAN_POINT('',(43.65,-11.2,16.55));
#2039=DIRECTION('',(0.,1.,0.));
#2040=DIRECTION('',(1.,0.,0.));
#2041=AXIS2_PLACEMENT_3D('',#2038,#2040,#2039);
#2042=PLANE('',#2041);
#2043=ORIENTED_EDGE('',*,*,#1831,.F.);
#2044=ORIENTED_EDGE('',*,*,#2033,.F.);
#2045=CARTESIAN_POINT('',(43.65,-16.2,19.4));
#2046=VERTEX_POINT('',#2045);
#2047=CARTESIAN_POINT('',(43.65,-16.2,19.4));
#2048=DIRECTION('',(0.,1.,0.));
#2049=VECTOR('',#2048,10.);
#2050=LINE('',#2047,#2049);
#2051=EDGE_CURVE('',#2046,#2022,#2050,.T.);
#2052=ORIENTED_EDGE('',*,*,#2051,.F.);
#2053=CARTESIAN_POINT('',(43.65,-16.2,13.7));
#2054=DIRECTION('',(0.,0.,1.));
#2055=VECTOR('',#2054,5.7);
#2056=LINE('',#2053,#2055);
#2057=EDGE_CURVE('',#1826,#2046,#2056,.T.);
#2058=ORIENTED_EDGE('',*,*,#2057,.F.);
#2059=EDGE_LOOP('',(#2043,#2044,#2052,#2058));
#2060=FACE_OUTER_BOUND('',#2059,.T.);
#2061=ADVANCED_FACE('',(#2060),#2042,.T.);
#2062=CARTESIAN_POINT('',(39.15,-16.2,16.55));
#2063=DIRECTION('',(1.,0.,0.));
#2064=DIRECTION('',(0.,-1.,0.));
#2065=AXIS2_PLACEMENT_3D('',#2062,#2064,#2063);
#2066=PLANE('',#2065);
#2067=ORIENTED_EDGE('',*,*,#1837,.F.);
#2068=ORIENTED_EDGE('',*,*,#2057,.T.);
#2069=CARTESIAN_POINT('',(34.65,-16.2,19.4));
#2070=DIRECTION('',(1.,0.,0.));
#2071=VECTOR('',#2070,9.);
#2072=LINE('',#2069,#2071);
#2073=EDGE_CURVE('',#1990,#2046,#2072,.T.);
#2074=ORIENTED_EDGE('',*,*,#2073,.F.);
#2075=ORIENTED_EDGE('',*,*,#1995,.F.);
#2076=EDGE_LOOP('',(#2067,#2068,#2074,#2075));
#2077=FACE_OUTER_BOUND('',#2076,.T.);
#2078=ADVANCED_FACE('',(#2077),#2066,.T.);
#2079=CARTESIAN_POINT('',(-40.,-20.,12.2));
#2080=DIRECTION('',(-1.,2.0301221021717E-15,1.0150610510859E-15));
#2081=DIRECTION('',(0.,0.,1.));
#2082=AXIS2_PLACEMENT_3D('',#2079,#2081,#2080);
#2083=CYLINDRICAL_SURFACE('',#2082,1.75);
#2084=CARTESIAN_POINT('',(-41.75,-20.,12.2));
#2085=VERTEX_POINT('',#2084);
#2086=CARTESIAN_POINT('',(-40.,-20.,12.2));
#2087=DIRECTION('',(-1.,5.1517446871576E-31,-7.1775655254115E-16));
#2088=DIRECTION('',(-7.1775655254115E-16,-7.1775655254115E-16,1.));
#2089=AXIS2_PLACEMENT_3D('',#2086,#2088,#2087);
#2090=CIRCLE('',#2089,1.75);
#2091=EDGE_CURVE('',#2085,#2085,#2090,.T.);
#2092=ORIENTED_EDGE('',*,*,#2091,.F.);
#2093=CARTESIAN_POINT('',(-41.75,-20.,12.2));
#2094=DIRECTION('',(0.,0.,1.));
#2095=VECTOR('',#2094,1.5);
#2096=LINE('',#2093,#2095);
#2097=EDGE_CURVE('',#2085,#1842,#2096,.T.);
#2098=ORIENTED_EDGE('',*,*,#2097,.T.);
#2099=ORIENTED_EDGE('',*,*,#1848,.F.);
#2100=ORIENTED_EDGE('',*,*,#2097,.F.);
#2101=EDGE_LOOP('',(#2092,#2098,#2099,#2100));
#2102=FACE_OUTER_BOUND('',#2101,.T.);
#2103=ADVANCED_FACE('',(#2102),#2083,.F.);
#2104=CARTESIAN_POINT('',(40.,-20.,12.2));
#2105=DIRECTION('',(-1.,0.,0.));
#2106=DIRECTION('',(0.,0.,1.));
#2107=AXIS2_PLACEMENT_3D('',#2104,#2106,#2105);
#2108=CYLINDRICAL_SURFACE('',#2107,1.75);
#2109=ORIENTED_EDGE('',*,*,#70,.F.);
#2110=CARTESIAN_POINT('',(38.25,-20.,12.2));
#2111=DIRECTION('',(0.,0.,1.));
#2112=VECTOR('',#2111,1.5);
#2113=LINE('',#2110,#2112);
#2114=EDGE_CURVE('',#64,#1853,#2113,.T.);
#2115=ORIENTED_EDGE('',*,*,#2114,.T.);
#2116=ORIENTED_EDGE('',*,*,#1859,.F.);
#2117=ORIENTED_EDGE('',*,*,#2114,.F.);
#2118=EDGE_LOOP('',(#2109,#2115,#2116,#2117));
#2119=FACE_OUTER_BOUND('',#2118,.T.);
#2120=ADVANCED_FACE('',(#2119),#2108,.F.);
#2121=CARTESIAN_POINT('',(-40.,-19.632586221349,1.2));
#2122=DIRECTION('',(1.,0.,0.));
#2123=DIRECTION('',(0.,0.,-1.));
#2124=AXIS2_PLACEMENT_3D('',#2121,#2123,#2122);
#2125=PLANE('',#2124);
#2126=ORIENTED_EDGE('',*,*,#1948,.T.);
#2127=EDGE_LOOP('',(#2126));
#2128=FACE_OUTER_BOUND('',#2127,.T.);
#2129=CARTESIAN_POINT('',(-38.5,-20.,1.2));
#2130=VERTEX_POINT('',#2129);
#2131=CARTESIAN_POINT('',(-40.,-20.,1.2));
#2132=DIRECTION('',(1.,-1.6747652892627E-15,-5.2336415289459E-17));
#2133=DIRECTION('',(5.2336415289459E-17,5.2336415289459E-17,1.));
#2134=AXIS2_PLACEMENT_3D('',#2131,#2133,#2132);
#2135=CIRCLE('',#2134,1.5);
#2136=EDGE_CURVE('',#2130,#2130,#2135,.T.);
#2137=ORIENTED_EDGE('',*,*,#2136,.T.);
#2138=EDGE_LOOP('',(#2137));
#2139=FACE_BOUND('',#2138,.T.);
#2140=ADVANCED_FACE('',(#2128,#2139),#2125,.T.);
#2141=CARTESIAN_POINT('',(38.65,-11.2,19.4));
#2142=DIRECTION('',(-1.,0.,0.));
#2143=DIRECTION('',(0.,0.,1.));
#2144=AXIS2_PLACEMENT_3D('',#2141,#2143,#2142);
#2145=PLANE('',#2144);
#2146=ORIENTED_EDGE('',*,*,#2027,.T.);
#2147=ORIENTED_EDGE('',*,*,#2003,.T.);
#2148=ORIENTED_EDGE('',*,*,#2073,.T.);
#2149=ORIENTED_EDGE('',*,*,#2051,.T.);
#2150=EDGE_LOOP('',(#2146,#2147,#2148,#2149));
#2151=FACE_OUTER_BOUND('',#2150,.T.);
#2152=ADVANCED_FACE('',(#2151),#2145,.T.);
#2153=CARTESIAN_POINT('',(-40.,-19.632586221349,12.2));
#2154=DIRECTION('',(1.,0.,0.));
#2155=DIRECTION('',(0.,0.,1.));
#2156=AXIS2_PLACEMENT_3D('',#2153,#2155,#2154);
#2157=PLANE('',#2156);
#2158=ORIENTED_EDGE('',*,*,#2091,.T.);
#2159=EDGE_LOOP('',(#2158));
#2160=FACE_OUTER_BOUND('',#2159,.T.);
#2161=CARTESIAN_POINT('',(-38.5,-20.,12.2));
#2162=VERTEX_POINT('',#2161);
#2163=CARTESIAN_POINT('',(-40.,-20.,12.2));
#2164=DIRECTION('',(1.,1.6747652892627E-15,1.6029292152492E-15));
#2165=DIRECTION('',(1.6029292152492E-15,-4.1869132231567E-16,-1.));
#2166=AXIS2_PLACEMENT_3D('',#2163,#2165,#2164);
#2167=CIRCLE('',#2166,1.5);
#2168=EDGE_CURVE('',#2162,#2162,#2167,.T.);
#2169=ORIENTED_EDGE('',*,*,#2168,.T.);
#2170=EDGE_LOOP('',(#2169));
#2171=FACE_BOUND('',#2170,.T.);
#2172=ADVANCED_FACE('',(#2160,#2171),#2157,.T.);
#2173=CARTESIAN_POINT('',(-40.,-20.,1.2));
#2174=DIRECTION('',(1.,-4.736951571734E-15,1.4802973661669E-16));
#2175=DIRECTION('',(0.,0.,1.));
#2176=AXIS2_PLACEMENT_3D('',#2173,#2175,#2174);
#2177=CYLINDRICAL_SURFACE('',#2176,1.5);
#2178=ORIENTED_EDGE('',*,*,#2136,.F.);
#2179=CARTESIAN_POINT('',(-38.5,-20.,1.2));
#2180=DIRECTION('',(0.,0.,1.));
#2181=VECTOR('',#2180,11.);
#2182=LINE('',#2179,#2181);
#2183=EDGE_CURVE('',#2130,#2162,#2182,.T.);
#2184=ORIENTED_EDGE('',*,*,#2183,.T.);
#2185=ORIENTED_EDGE('',*,*,#2168,.F.);
#2186=ORIENTED_EDGE('',*,*,#2183,.F.);
#2187=EDGE_LOOP('',(#2178,#2184,#2185,#2186));
#2188=FACE_OUTER_BOUND('',#2187,.T.);
#2189=ADVANCED_FACE('',(#2188),#2177,.F.);
#2190=CLOSED_SHELL('',(#57,#85,#125,#156,#187,#218,#249,#271,#288,#614,#712,#743,#768,#792,#817,#841,#866,#890,#908,#930,#947,#964,#981,#998,#1010,#1041,#1065,#1089,#1106,#1137,#1161,#1185,#1202,#1233,#1257,#1281,#1298,#1329,#1353,#1377,#1394,#1419,#1444,#1475,#1499,#1523,#1540,#1571,#1627,#1651,#1668,#1712,#1724,#1736,#1748,#1760,#1772,#1863,#1887,#1911,#1928,#1953,#1970,#1982,#2013,#2037,#2061,#2078,#2103,#2120,#2140,#2152,#2172,#2189));
#2191=COLOUR_RGB('',0.745098,0.901961,0.960784);
#2192=FILL_AREA_STYLE_COLOUR('',#2191);
#2193=FILL_AREA_STYLE('',(#2192));
#2194=SURFACE_STYLE_FILL_AREA(#2193);
#2195=SURFACE_SIDE_STYLE('',(#2194));
#2196=SURFACE_STYLE_USAGE(.BOTH.,#2195);
#2197=PRESENTATION_STYLE_ASSIGNMENT((#2196));
#2198=OVER_RIDING_STYLED_ITEM('',(#2197),#57,#2190);
#2199=OVER_RIDING_STYLED_ITEM('',(#2197),#85,#2190);
#2200=OVER_RIDING_STYLED_ITEM('',(#2197),#125,#2190);
#2201=OVER_RIDING_STYLED_ITEM('',(#2197),#156,#2190);
#2202=OVER_RIDING_STYLED_ITEM('',(#2197),#187,#2190);
#2203=OVER_RIDING_STYLED_ITEM('',(#2197),#218,#2190);
#2204=OVER_RIDING_STYLED_ITEM('',(#2197),#249,#2190);
#2205=OVER_RIDING_STYLED_ITEM('',(#2197),#271,#2190);
#2206=OVER_RIDING_STYLED_ITEM('',(#2197),#288,#2190);
#2207=OVER_RIDING_STYLED_ITEM('',(#2197),#614,#2190);
#2208=OVER_RIDING_STYLED_ITEM('',(#2197),#712,#2190);
#2209=OVER_RIDING_STYLED_ITEM('',(#2197),#743,#2190);
#2210=OVER_RIDING_STYLED_ITEM('',(#2197),#768,#2190);
#2211=OVER_RIDING_STYLED_ITEM('',(#2197),#792,#2190);
#2212=OVER_RIDING_STYLED_ITEM('',(#2197),#817,#2190);
#2213=OVER_RIDING_STYLED_ITEM('',(#2197),#841,#2190);
#2214=OVER_RIDING_STYLED_ITEM('',(#2197),#866,#2190);
#2215=OVER_RIDING_STYLED_ITEM('',(#2197),#890,#2190);
#2216=OVER_RIDING_STYLED_ITEM('',(#2197),#908,#2190);
#2217=OVER_RIDING_STYLED_ITEM('',(#2197),#930,#2190);
#2218=OVER_RIDING_STYLED_ITEM('',(#2197),#947,#2190);
#2219=OVER_RIDING_STYLED_ITEM('',(#2197),#964,#2190);
#2220=OVER_RIDING_STYLED_ITEM('',(#2197),#981,#2190);
#2221=OVER_RIDING_STYLED_ITEM('',(#2197),#998,#2190);
#2222=OVER_RIDING_STYLED_ITEM('',(#2197),#1010,#2190);
#2223=OVER_RIDING_STYLED_ITEM('',(#2197),#1041,#2190);
#2224=OVER_RIDING_STYLED_ITEM('',(#2197),#1065,#2190);
#2225=OVER_RIDING_STYLED_ITEM('',(#2197),#1089,#2190);
#2226=OVER_RIDING_STYLED_ITEM('',(#2197),#1106,#2190);
#2227=OVER_RIDING_STYLED_ITEM('',(#2197),#1137,#2190);
#2228=OVER_RIDING_STYLED_ITEM('',(#2197),#1161,#2190);
#2229=OVER_RIDING_STYLED_ITEM('',(#2197),#1185,#2190);
#2230=OVER_RIDING_STYLED_ITEM('',(#2197),#1202,#2190);
#2231=OVER_RIDING_STYLED_ITEM('',(#2197),#1233,#2190);
#2232=OVER_RIDING_STYLED_ITEM('',(#2197),#1257,#2190);
#2233=OVER_RIDING_STYLED_ITEM('',(#2197),#1281,#2190);
#2234=OVER_RIDING_STYLED_ITEM('',(#2197),#1298,#2190);
#2235=OVER_RIDING_STYLED_ITEM('',(#2197),#1329,#2190);
#2236=OVER_RIDING_STYLED_ITEM('',(#2197),#1353,#2190);
#2237=OVER_RIDING_STYLED_ITEM('',(#2197),#1377,#2190);
#2238=OVER_RIDING_STYLED_ITEM('',(#2197),#1394,#2190);
#2239=OVER_RIDING_STYLED_ITEM('',(#2197),#1419,#2190);
#2240=OVER_RIDING_STYLED_ITEM('',(#2197),#1444,#2190);
#2241=OVER_RIDING_STYLED_ITEM('',(#2197),#1475,#2190);
#2242=OVER_RIDING_STYLED_ITEM('',(#2197),#1499,#2190);
#2243=OVER_RIDING_STYLED_ITEM('',(#2197),#1523,#2190);
#2244=OVER_RIDING_STYLED_ITEM('',(#2197),#1540,#2190);
#2245=OVER_RIDING_STYLED_ITEM('',(#2197),#1571,#2190);
#2246=OVER_RIDING_STYLED_ITEM('',(#2197),#1627,#2190);
#2247=OVER_RIDING_STYLED_ITEM('',(#2197),#1651,#2190);
#2248=OVER_RIDING_STYLED_ITEM('',(#2197),#1668,#2190);
#2249=OVER_RIDING_STYLED_ITEM('',(#2197),#1712,#2190);
#2250=OVER_RIDING_STYLED_ITEM('',(#2197),#1724,#2190);
#2251=OVER_RIDING_STYLED_ITEM('',(#2197),#1736,#2190);
#2252=OVER_RIDING_STYLED_ITEM('',(#2197),#1748,#2190);
#2253=OVER_RIDING_STYLED_ITEM('',(#2197),#1760,#2190);
#2254=OVER_RIDING_STYLED_ITEM('',(#2197),#1772,#2190);
#2255=OVER_RIDING_STYLED_ITEM('',(#2197),#1863,#2190);
#2256=OVER_RIDING_STYLED_ITEM('',(#2197),#1887,#2190);
#2257=OVER_RIDING_STYLED_ITEM('',(#2197),#1911,#2190);
#2258=OVER_RIDING_STYLED_ITEM('',(#2197),#1928,#2190);
#2259=OVER_RIDING_STYLED_ITEM('',(#2197),#1953,#2190);
#2260=OVER_RIDING_STYLED_ITEM('',(#2197),#1970,#2190);
#2261=OVER_RIDING_STYLED_ITEM('',(#2197),#1982,#2190);
#2262=OVER_RIDING_STYLED_ITEM('',(#2197),#2013,#2190);
#2263=OVER_RIDING_STYLED_ITEM('',(#2197),#2037,#2190);
#2264=OVER_RIDING_STYLED_ITEM('',(#2197),#2061,#2190);
#2265=OVER_RIDING_STYLED_ITEM('',(#2197),#2078,#2190);
#2266=OVER_RIDING_STYLED_ITEM('',(#2197),#2103,#2190);
#2267=OVER_RIDING_STYLED_ITEM('',(#2197),#2120,#2190);
#2268=OVER_RIDING_STYLED_ITEM('',(#2197),#2140,#2190);
#2269=OVER_RIDING_STYLED_ITEM('',(#2197),#2152,#2190);
#2270=OVER_RIDING_STYLED_ITEM('',(#2197),#2172,#2190);
#2271=OVER_RIDING_STYLED_ITEM('',(#2197),#2189,#2190);
#2272=MANIFOLD_SOLID_BREP('S10',#2190);
#2273=ADVANCED_BREP_SHAPE_REPRESENTATION('',(#2272),#5);
#2274=SHAPE_REPRESENTATION_RELATIONSHIP('NONE', 'NONE', #28, #2273);
#2275=PRESENTATION_LAYER_ASSIGNMENT('Õº≤„000','',(#2272));
#2276=MECHANICAL_DESIGN_GEOMETRIC_PRESENTATION_REPRESENTATION('',(#2198,#2199,#2200,#2201,#2202,#2203,#2204,#2205,#2206,#2207,#2208,#2209,#2210,#2211,#2212,#2213,#2214,#2215,#2216,#2217,#2218,#2219,#2220,#2221,#2222,#2223,#2224,#2225,#2226,#2227,#2228,#2229,#2230,#2231,#2232,#2233,#2234,#2235,#2236,#2237,#2238,#2239,#2240,#2241,#2242,#2243,#2244,#2245,#2246,#2247,#2248,#2249,#2250,#2251,#2252,#2253,#2254,#2255,#2256,#2257,#2258,#2259,#2260,#2261,#2262,#2263,#2264,#2265,#2266,#2267,#2268,#2269,#2270,#2271),#5);
ENDSEC;
END-ISO-10303-21;
