ISO-10303-21;
HEADER;
FILE_DESCRIPTION(
  ('This file contains a STEP AP42 implementation'
    ,'as created by ZW3D STEP Interface translator.')
  ,'2;1'
  );
FILE_NAME(
  '”Ô“Ùƒ£øÈ M260Cª∑–Œ¡˘¬Û.stp'
  ,'221117. 85747',
  (''),
  ('ZWCAD Software Co.'),
  'Version 1.0',
  'ZW3D to STEP translator',
  ''
  );
FILE_SCHEMA(('AUTOMOTIVE_DESIGN { 1 0 10303 214 1 1 1 1 }'));
ENDSEC;

DATA;

/**File Base Unit**/
#1 = (LENGTH_UNIT()NAMED_UNIT(*)SI_UNIT(.MILLI.,.METRE.));
#2 = (NAMED_UNIT(*)PLANE_ANGLE_UNIT()SI_UNIT($,.RADIAN.));
#3 = (NAMED_UNIT(*)SI_UNIT($,.STERADIAN.)SOLID_ANGLE_UNIT());
#4 = UNCERTAINTY_MEASURE_WITH_UNIT(LENGTH_MEASURE(0.01),#1,'DISTANCE_ACCURACY_VALUE','Maximum Tolerance applied to model');
#5 = (GEOMETRIC_REPRESENTATION_CONTEXT(3)GLOBAL_UNCERTAINTY_ASSIGNED_CONTEXT((#4))GLOBAL_UNIT_ASSIGNED_CONTEXT((#1,#2,#3))REPRESENTATION_CONTEXT('STEP 203','TOP_LEVEL_ASSEMBLY_PART'));

/**product_definition_shape**/
#6=APPLICATION_CONTEXT('mechanical parts and assemblies' );
#7=DESIGN_CONTEXT('NONE',#6,'design');
#8=MECHANICAL_CONTEXT('NONE',#6,'mechanical');
#9=PRODUCT('0','Part','',(#8));
#10=PRODUCT_DEFINITION_FORMATION_WITH_SPECIFIED_SOURCE('ANY','',#9,.NOT_KNOWN.);
#11=PRODUCT_DEFINITION('UNKNOWN','',#10,#7);
#12=PRODUCT_DEFINITION_SHAPE('NONE','NONE',#11);
#13=PRODUCT_RELATED_PRODUCT_CATEGORY('detail','',(#9));
/**geometry information**/
#14=CARTESIAN_POINT('',(0.,0.,0.));
#15=DIRECTION('',(0.,0.,1.));
#16=DIRECTION('',(1.,0.,0.));
#17=AXIS2_PLACEMENT_3D('',#14,#15,#16);
#18=APPLICATION_CONTEXT('part');
#19=MECHANICAL_CONTEXT('none',#18,'component');
#20=PRODUCT('”Ô“Ùƒ£øÈ M260Cª∑–Œ¡˘¬Û','”Ô“Ùƒ£øÈ M260Cª∑–Œ¡˘¬Û','',(#19));
#21=PRODUCT_RELATED_PRODUCT_CATEGORY('detail','',(#20));
#22=PRODUCT_DEFINITION_FORMATION_WITH_SPECIFIED_SOURCE('ANY','UNSPECIFIED',#20,.NOT_KNOWN.);
#23=APPLICATION_CONTEXT('part');
#24=APPLICATION_PROTOCOL_DEFINITION('international standard','config_control_design',1994,#23);
#25=DESIGN_CONTEXT('detailed',#23,'design');
#26=PRODUCT_DEFINITION('','UNSPECIFIED',#22,#25);
#27=PRODUCT_DEFINITION_SHAPE('NONE','NONE',#26);
#28=SHAPE_REPRESENTATION('”Ô“Ùƒ£øÈ M260Cª∑–Œ¡˘¬Û',(#17),#5);
#29=SHAPE_DEFINITION_REPRESENTATION(#27,#28);
#30=CARTESIAN_POINT('',(7.105427357601E-15,1.0658141036402E-14,-1.2982129492915E-13));
#31=DIRECTION('',(-1.1752054954203E-16,1.,2.9084387475206E-15));
#32=DIRECTION('',(0.,-8.5265128291204E-15,1.));
#33=AXIS2_PLACEMENT_3D('',#30,#32,#31);
#34=CYLINDRICAL_SURFACE('',#33,39.75);
#35=CARTESIAN_POINT('',(2.4339855133054E-15,39.75,0.));
#36=VERTEX_POINT('',#35);
#37=CARTESIAN_POINT('',(2.4339855133054E-15,0.,0.));
#38=DIRECTION('',(-0.,1.,-0.));
#39=DIRECTION('',(0.,0.,1.));
#40=AXIS2_PLACEMENT_3D('',#37,#39,#38);
#41=CIRCLE('',#40,39.75);
#42=EDGE_CURVE('',#36,#36,#41,.T.);
#43=ORIENTED_EDGE('',*,*,#42,.T.);
#44=CARTESIAN_POINT('',(2.4339855133054E-15,39.75,1.25));
#45=VERTEX_POINT('',#44);
#46=CARTESIAN_POINT('',(2.4339855133054E-15,39.75,0.));
#47=DIRECTION('',(0.,0.,1.));
#48=VECTOR('',#47,1.25);
#49=LINE('',#46,#48);
#50=EDGE_CURVE('',#36,#45,#49,.T.);
#51=ORIENTED_EDGE('',*,*,#50,.T.);
#52=CARTESIAN_POINT('',(-7.6146062222708E-15,-4.2632564145606E-14,1.25));
#53=DIRECTION('',(2.5279476064343E-16,1.,0.));
#54=DIRECTION('',(0.,0.,-1.));
#55=AXIS2_PLACEMENT_3D('',#52,#54,#53);
#56=CIRCLE('',#55,39.75);
#57=EDGE_CURVE('',#45,#45,#56,.T.);
#58=ORIENTED_EDGE('',*,*,#57,.T.);
#59=ORIENTED_EDGE('',*,*,#50,.F.);
#60=EDGE_LOOP('',(#43,#51,#58,#59));
#61=FACE_OUTER_BOUND('',#60,.T.);
#62=ADVANCED_FACE('',(#61),#34,.T.);
#63=CARTESIAN_POINT('',(17.5,30.310889132455,0.));
#64=DIRECTION('',(2.368475785867E-15,1.,0.));
#65=DIRECTION('',(0.,0.,1.));
#66=AXIS2_PLACEMENT_3D('',#63,#65,#64);
#67=CYLINDRICAL_SURFACE('',#66,1.5);
#68=CARTESIAN_POINT('',(17.5,31.810889132455,0.));
#69=VERTEX_POINT('',#68);
#70=CARTESIAN_POINT('',(17.5,30.310889132455,0.));
#71=DIRECTION('',(-1.6747652892627E-15,1.,-0.));
#72=DIRECTION('',(0.,0.,-1.));
#73=AXIS2_PLACEMENT_3D('',#70,#72,#71);
#74=CIRCLE('',#73,1.5);
#75=EDGE_CURVE('',#69,#69,#74,.T.);
#76=ORIENTED_EDGE('',*,*,#75,.T.);
#77=CARTESIAN_POINT('',(17.5,31.810889132455,1.25));
#78=VERTEX_POINT('',#77);
#79=CARTESIAN_POINT('',(17.5,31.810889132455,0.));
#80=DIRECTION('',(0.,0.,1.));
#81=VECTOR('',#80,1.25);
#82=LINE('',#79,#81);
#83=EDGE_CURVE('',#69,#78,#82,.T.);
#84=ORIENTED_EDGE('',*,*,#83,.T.);
#85=CARTESIAN_POINT('',(17.5,30.310889132455,1.25));
#86=DIRECTION('',(1.6747652892627E-15,1.,-0.));
#87=DIRECTION('',(0.,0.,1.));
#88=AXIS2_PLACEMENT_3D('',#85,#87,#86);
#89=CIRCLE('',#88,1.5);
#90=EDGE_CURVE('',#78,#78,#89,.T.);
#91=ORIENTED_EDGE('',*,*,#90,.T.);
#92=ORIENTED_EDGE('',*,*,#83,.F.);
#93=EDGE_LOOP('',(#76,#84,#91,#92));
#94=FACE_OUTER_BOUND('',#93,.T.);
#95=ADVANCED_FACE('',(#94),#67,.F.);
#96=CARTESIAN_POINT('',(-35.,5.5511151231258E-17,-2.1390756590544E-17));
#97=DIRECTION('',(0.,1.,1.4260504393696E-17));
#98=DIRECTION('',(0.,-4.4408920985006E-17,1.));
#99=AXIS2_PLACEMENT_3D('',#96,#98,#97);
#100=CYLINDRICAL_SURFACE('',#99,1.5);
#101=CARTESIAN_POINT('',(-35.,1.5,0.));
#102=VERTEX_POINT('',#101);
#103=CARTESIAN_POINT('',(-35.,3.9968028886506E-15,0.));
#104=DIRECTION('',(-0.,1.,-0.));
#105=DIRECTION('',(0.,0.,-1.));
#106=AXIS2_PLACEMENT_3D('',#103,#105,#104);
#107=CIRCLE('',#106,1.5);
#108=EDGE_CURVE('',#102,#102,#107,.T.);
#109=ORIENTED_EDGE('',*,*,#108,.T.);
#110=CARTESIAN_POINT('',(-35.,1.5,1.25));
#111=VERTEX_POINT('',#110);
#112=CARTESIAN_POINT('',(-35.,1.5,0.));
#113=DIRECTION('',(0.,0.,1.));
#114=VECTOR('',#113,1.25);
#115=LINE('',#112,#114);
#116=EDGE_CURVE('',#102,#111,#115,.T.);
#117=ORIENTED_EDGE('',*,*,#116,.T.);
#118=CARTESIAN_POINT('',(-35.,4.6629367034257E-15,1.25));
#119=DIRECTION('',(2.0934566115784E-16,1.,-0.));
#120=DIRECTION('',(0.,0.,1.));
#121=AXIS2_PLACEMENT_3D('',#118,#120,#119);
#122=CIRCLE('',#121,1.5);
#123=EDGE_CURVE('',#111,#111,#122,.T.);
#124=ORIENTED_EDGE('',*,*,#123,.T.);
#125=ORIENTED_EDGE('',*,*,#116,.F.);
#126=EDGE_LOOP('',(#109,#117,#124,#125));
#127=FACE_OUTER_BOUND('',#126,.T.);
#128=ADVANCED_FACE('',(#127),#100,.F.);
#129=CARTESIAN_POINT('',(-1.7763568394003E-14,-1.5987211554602E-14,-1.8503019416645E-14));
#130=DIRECTION('',(8.9828064625359E-16,1.,8.5361489247488E-16));
#131=DIRECTION('',(2.5243548967072E-30,-1.4210854715202E-15,1.));
#132=AXIS2_PLACEMENT_3D('',#129,#131,#130);
#133=CYLINDRICAL_SURFACE('',#132,30.);
#134=CARTESIAN_POINT('',(9.1848509936052E-15,30.,0.));
#135=VERTEX_POINT('',#134);
#136=CARTESIAN_POINT('',(-1.5936628345335E-14,1.0658141036402E-14,0.));
#137=DIRECTION('',(8.3738264463135E-16,1.,0.));
#138=DIRECTION('',(0.,0.,-1.));
#139=AXIS2_PLACEMENT_3D('',#136,#138,#137);
#140=CIRCLE('',#139,30.);
#141=EDGE_CURVE('',#135,#135,#140,.T.);
#142=ORIENTED_EDGE('',*,*,#141,.T.);
#143=CARTESIAN_POINT('',(9.1848509936052E-15,30.,1.25));
#144=VERTEX_POINT('',#143);
#145=CARTESIAN_POINT('',(9.1848509936052E-15,30.,0.));
#146=DIRECTION('',(0.,0.,1.));
#147=VECTOR('',#146,1.25);
#148=LINE('',#145,#147);
#149=EDGE_CURVE('',#135,#144,#148,.T.);
#150=ORIENTED_EDGE('',*,*,#149,.T.);
#151=CARTESIAN_POINT('',(-1.5936628345335E-14,-3.9079850466806E-14,1.25));
#152=DIRECTION('',(8.3738264463135E-16,1.,-0.));
#153=DIRECTION('',(0.,0.,1.));
#154=AXIS2_PLACEMENT_3D('',#151,#153,#152);
#155=CIRCLE('',#154,30.);
#156=EDGE_CURVE('',#144,#144,#155,.T.);
#157=ORIENTED_EDGE('',*,*,#156,.T.);
#158=ORIENTED_EDGE('',*,*,#149,.F.);
#159=EDGE_LOOP('',(#142,#150,#157,#158));
#160=FACE_OUTER_BOUND('',#159,.T.);
#161=ADVANCED_FACE('',(#160),#133,.F.);
#162=CARTESIAN_POINT('',(17.5,-30.310889132455,0.));
#163=DIRECTION('',(4.736951571734E-15,1.,0.));
#164=DIRECTION('',(0.,0.,1.));
#165=AXIS2_PLACEMENT_3D('',#162,#164,#163);
#166=CYLINDRICAL_SURFACE('',#165,1.5);
#167=CARTESIAN_POINT('',(17.5,-28.810889132455,0.));
#168=VERTEX_POINT('',#167);
#169=CARTESIAN_POINT('',(17.5,-30.310889132455,0.));
#170=DIRECTION('',(-1.6747652892627E-15,1.,-0.));
#171=DIRECTION('',(0.,0.,-1.));
#172=AXIS2_PLACEMENT_3D('',#169,#171,#170);
#173=CIRCLE('',#172,1.5);
#174=EDGE_CURVE('',#168,#168,#173,.T.);
#175=ORIENTED_EDGE('',*,*,#174,.T.);
#176=CARTESIAN_POINT('',(17.5,-28.810889132455,1.25));
#177=VERTEX_POINT('',#176);
#178=CARTESIAN_POINT('',(17.5,-28.810889132455,0.));
#179=DIRECTION('',(0.,0.,1.));
#180=VECTOR('',#179,1.25);
#181=LINE('',#178,#180);
#182=EDGE_CURVE('',#168,#177,#181,.T.);
#183=ORIENTED_EDGE('',*,*,#182,.T.);
#184=CARTESIAN_POINT('',(17.5,-30.310889132455,1.25));
#185=DIRECTION('',(1.6747652892627E-15,1.,-0.));
#186=DIRECTION('',(0.,0.,1.));
#187=AXIS2_PLACEMENT_3D('',#184,#186,#185);
#188=CIRCLE('',#187,1.5);
#189=EDGE_CURVE('',#177,#177,#188,.T.);
#190=ORIENTED_EDGE('',*,*,#189,.T.);
#191=ORIENTED_EDGE('',*,*,#182,.F.);
#192=EDGE_LOOP('',(#175,#183,#190,#191));
#193=FACE_OUTER_BOUND('',#192,.T.);
#194=ADVANCED_FACE('',(#193),#166,.F.);
#195=CARTESIAN_POINT('',(35.,11.75,-1.));
#196=DIRECTION('',(-1.,0.,0.));
#197=DIRECTION('',(0.,1.,-0.));
#198=AXIS2_PLACEMENT_3D('',#195,#197,#196);
#199=PLANE('',#198);
#200=CARTESIAN_POINT('',(37.9,11.75,0.));
#201=VERTEX_POINT('',#200);
#202=CARTESIAN_POINT('',(37.9,11.75,-2.));
#203=VERTEX_POINT('',#202);
#204=CARTESIAN_POINT('',(37.9,11.75,0.));
#205=DIRECTION('',(0.,0.,-1.));
#206=VECTOR('',#205,2.);
#207=LINE('',#204,#206);
#208=EDGE_CURVE('',#201,#203,#207,.T.);
#209=ORIENTED_EDGE('',*,*,#208,.T.);
#210=CARTESIAN_POINT('',(32.1,11.75,-2.));
#211=VERTEX_POINT('',#210);
#212=CARTESIAN_POINT('',(37.9,11.75,-2.));
#213=DIRECTION('',(-1.,0.,0.));
#214=VECTOR('',#213,5.8);
#215=LINE('',#212,#214);
#216=EDGE_CURVE('',#203,#211,#215,.T.);
#217=ORIENTED_EDGE('',*,*,#216,.T.);
#218=CARTESIAN_POINT('',(32.1,11.75,0.));
#219=VERTEX_POINT('',#218);
#220=CARTESIAN_POINT('',(32.1,11.75,-2.));
#221=DIRECTION('',(0.,0.,1.));
#222=VECTOR('',#221,2.);
#223=LINE('',#220,#222);
#224=EDGE_CURVE('',#211,#219,#223,.T.);
#225=ORIENTED_EDGE('',*,*,#224,.T.);
#226=CARTESIAN_POINT('',(32.1,11.75,0.));
#227=DIRECTION('',(1.,0.,0.));
#228=VECTOR('',#227,5.8);
#229=LINE('',#226,#228);
#230=EDGE_CURVE('',#219,#201,#229,.T.);
#231=ORIENTED_EDGE('',*,*,#230,.T.);
#232=EDGE_LOOP('',(#209,#217,#225,#231));
#233=FACE_OUTER_BOUND('',#232,.T.);
#234=ADVANCED_FACE('',(#233),#199,.T.);
#235=CARTESIAN_POINT('',(37.9,0.,-1.));
#236=DIRECTION('',(-6.0471722192349E-16,1.,0.));
#237=DIRECTION('',(1.,6.0471722192349E-16,-0.));
#238=AXIS2_PLACEMENT_3D('',#235,#237,#236);
#239=PLANE('',#238);
#240=CARTESIAN_POINT('',(37.9,-11.75,0.));
#241=VERTEX_POINT('',#240);
#242=CARTESIAN_POINT('',(37.9,-11.75,-2.));
#243=VERTEX_POINT('',#242);
#244=CARTESIAN_POINT('',(37.9,-11.75,0.));
#245=DIRECTION('',(0.,0.,-1.));
#246=VECTOR('',#245,2.);
#247=LINE('',#244,#246);
#248=EDGE_CURVE('',#241,#243,#247,.T.);
#249=ORIENTED_EDGE('',*,*,#248,.T.);
#250=CARTESIAN_POINT('',(37.9,-11.75,-2.));
#251=DIRECTION('',(0.,1.,0.));
#252=VECTOR('',#251,23.5);
#253=LINE('',#250,#252);
#254=EDGE_CURVE('',#243,#203,#253,.T.);
#255=ORIENTED_EDGE('',*,*,#254,.T.);
#256=ORIENTED_EDGE('',*,*,#208,.F.);
#257=CARTESIAN_POINT('',(37.9,11.75,0.));
#258=DIRECTION('',(0.,-1.,0.));
#259=VECTOR('',#258,23.5);
#260=LINE('',#257,#259);
#261=EDGE_CURVE('',#201,#241,#260,.T.);
#262=ORIENTED_EDGE('',*,*,#261,.T.);
#263=EDGE_LOOP('',(#249,#255,#256,#262));
#264=FACE_OUTER_BOUND('',#263,.T.);
#265=ADVANCED_FACE('',(#264),#239,.T.);
#266=CARTESIAN_POINT('',(35.,-11.75,-1.));
#267=DIRECTION('',(1.,0.,0.));
#268=DIRECTION('',(0.,-1.,0.));
#269=AXIS2_PLACEMENT_3D('',#266,#268,#267);
#270=PLANE('',#269);
#271=CARTESIAN_POINT('',(32.1,-11.75,0.));
#272=VERTEX_POINT('',#271);
#273=CARTESIAN_POINT('',(32.1,-11.75,-2.));
#274=VERTEX_POINT('',#273);
#275=CARTESIAN_POINT('',(32.1,-11.75,0.));
#276=DIRECTION('',(0.,0.,-1.));
#277=VECTOR('',#276,2.);
#278=LINE('',#275,#277);
#279=EDGE_CURVE('',#272,#274,#278,.T.);
#280=ORIENTED_EDGE('',*,*,#279,.T.);
#281=CARTESIAN_POINT('',(32.1,-11.75,-2.));
#282=DIRECTION('',(1.,0.,0.));
#283=VECTOR('',#282,5.8);
#284=LINE('',#281,#283);
#285=EDGE_CURVE('',#274,#243,#284,.T.);
#286=ORIENTED_EDGE('',*,*,#285,.T.);
#287=ORIENTED_EDGE('',*,*,#248,.F.);
#288=CARTESIAN_POINT('',(37.9,-11.75,0.));
#289=DIRECTION('',(-1.,0.,0.));
#290=VECTOR('',#289,5.8);
#291=LINE('',#288,#290);
#292=EDGE_CURVE('',#241,#272,#291,.T.);
#293=ORIENTED_EDGE('',*,*,#292,.T.);
#294=EDGE_LOOP('',(#280,#286,#287,#293));
#295=FACE_OUTER_BOUND('',#294,.T.);
#296=ADVANCED_FACE('',(#295),#270,.T.);
#297=CARTESIAN_POINT('',(32.1,-1.7763568394003E-15,-1.));
#298=DIRECTION('',(6.0471722192349E-16,-1.,0.));
#299=DIRECTION('',(-1.,-6.0471722192349E-16,0.));
#300=AXIS2_PLACEMENT_3D('',#297,#299,#298);
#301=PLANE('',#300);
#302=ORIENTED_EDGE('',*,*,#224,.F.);
#303=CARTESIAN_POINT('',(32.1,11.75,-2.));
#304=DIRECTION('',(0.,-1.,0.));
#305=VECTOR('',#304,23.5);
#306=LINE('',#303,#305);
#307=EDGE_CURVE('',#211,#274,#306,.T.);
#308=ORIENTED_EDGE('',*,*,#307,.T.);
#309=ORIENTED_EDGE('',*,*,#279,.F.);
#310=CARTESIAN_POINT('',(32.1,-11.75,0.));
#311=DIRECTION('',(0.,1.,0.));
#312=VECTOR('',#311,23.5);
#313=LINE('',#310,#312);
#314=EDGE_CURVE('',#272,#219,#313,.T.);
#315=ORIENTED_EDGE('',*,*,#314,.T.);
#316=EDGE_LOOP('',(#302,#308,#309,#315));
#317=FACE_OUTER_BOUND('',#316,.T.);
#318=ADVANCED_FACE('',(#317),#301,.T.);
#319=CARTESIAN_POINT('',(26.15,0.,-2.));
#320=DIRECTION('',(0.,1.,0.));
#321=DIRECTION('',(0.,0.,-1.));
#322=AXIS2_PLACEMENT_3D('',#319,#321,#320);
#323=PLANE('',#322);
#324=ORIENTED_EDGE('',*,*,#285,.F.);
#325=ORIENTED_EDGE('',*,*,#307,.F.);
#326=ORIENTED_EDGE('',*,*,#216,.F.);
#327=ORIENTED_EDGE('',*,*,#254,.F.);
#328=EDGE_LOOP('',(#324,#325,#326,#327));
#329=FACE_OUTER_BOUND('',#328,.T.);
#330=ADVANCED_FACE('',(#329),#323,.T.);
#331=CARTESIAN_POINT('',(1.4210854715202E-14,-10.650980399137,1.25));
#332=DIRECTION('',(0.,1.,0.));
#333=DIRECTION('',(0.,-0.,1.));
#334=AXIS2_PLACEMENT_3D('',#331,#333,#332);
#335=PLANE('',#334);
#336=ORIENTED_EDGE('',*,*,#57,.F.);
#337=EDGE_LOOP('',(#336));
#338=FACE_OUTER_BOUND('',#337,.T.);
#339=CARTESIAN_POINT('',(-30.166206257997,17.75,1.25));
#340=VERTEX_POINT('',#339);
#341=CARTESIAN_POINT('',(-30.166206257997,17.25,1.25));
#342=DIRECTION('',(2.5121479338941E-15,1.,0.));
#343=DIRECTION('',(0.,0.,-1.));
#344=AXIS2_PLACEMENT_3D('',#341,#343,#342);
#345=CIRCLE('',#344,0.49999999999999);
#346=EDGE_CURVE('',#340,#340,#345,.T.);
#347=ORIENTED_EDGE('',*,*,#346,.T.);
#348=EDGE_LOOP('',(#347));
#349=FACE_BOUND('',#348,.T.);
#350=CARTESIAN_POINT('',(-30.166206257997,-16.75,1.25));
#351=VERTEX_POINT('',#350);
#352=CARTESIAN_POINT('',(-30.166206257997,-17.25,1.25));
#353=DIRECTION('',(2.5121479338941E-15,1.,0.));
#354=DIRECTION('',(0.,0.,-1.));
#355=AXIS2_PLACEMENT_3D('',#352,#354,#353);
#356=CIRCLE('',#355,0.49999999999999);
#357=EDGE_CURVE('',#351,#351,#356,.T.);
#358=ORIENTED_EDGE('',*,*,#357,.T.);
#359=EDGE_LOOP('',(#358));
#360=FACE_BOUND('',#359,.T.);
#361=CARTESIAN_POINT('',(30.02204134428,17.999700955226,1.25));
#362=VERTEX_POINT('',#361);
#363=CARTESIAN_POINT('',(30.02204134428,17.499700955226,1.25));
#364=DIRECTION('',(2.512147933894E-15,1.,0.));
#365=DIRECTION('',(0.,0.,-1.));
#366=AXIS2_PLACEMENT_3D('',#363,#365,#364);
#367=CIRCLE('',#366,0.5);
#368=EDGE_CURVE('',#362,#362,#367,.T.);
#369=ORIENTED_EDGE('',*,*,#368,.T.);
#370=EDGE_LOOP('',(#369));
#371=FACE_BOUND('',#370,.T.);
#372=CARTESIAN_POINT('',(30.02204134428,-16.999700955226,1.25));
#373=VERTEX_POINT('',#372);
#374=CARTESIAN_POINT('',(30.02204134428,-17.499700955226,1.25));
#375=DIRECTION('',(2.512147933894E-15,1.,0.));
#376=DIRECTION('',(0.,0.,-1.));
#377=AXIS2_PLACEMENT_3D('',#374,#376,#375);
#378=CIRCLE('',#377,0.5);
#379=EDGE_CURVE('',#373,#373,#378,.T.);
#380=ORIENTED_EDGE('',*,*,#379,.T.);
#381=EDGE_LOOP('',(#380));
#382=FACE_BOUND('',#381,.T.);
#383=CARTESIAN_POINT('',(0.14416491371681,35.249700955226,1.25));
#384=VERTEX_POINT('',#383);
#385=CARTESIAN_POINT('',(0.14416491371681,34.749700955226,1.25));
#386=DIRECTION('',(5.0242958677881E-15,1.,0.));
#387=DIRECTION('',(0.,0.,-1.));
#388=AXIS2_PLACEMENT_3D('',#385,#387,#386);
#389=CIRCLE('',#388,0.5);
#390=EDGE_CURVE('',#384,#384,#389,.T.);
#391=ORIENTED_EDGE('',*,*,#390,.T.);
#392=EDGE_LOOP('',(#391));
#393=FACE_BOUND('',#392,.T.);
#394=CARTESIAN_POINT('',(0.14416491371678,-34.249700955226,1.25));
#395=VERTEX_POINT('',#394);
#396=CARTESIAN_POINT('',(0.14416491371678,-34.749700955226,1.25));
#397=DIRECTION('',(-0.,1.,-0.));
#398=DIRECTION('',(0.,0.,-1.));
#399=AXIS2_PLACEMENT_3D('',#396,#398,#397);
#400=CIRCLE('',#399,0.5);
#401=EDGE_CURVE('',#395,#395,#400,.T.);
#402=ORIENTED_EDGE('',*,*,#401,.T.);
#403=EDGE_LOOP('',(#402));
#404=FACE_BOUND('',#403,.T.);
#405=ORIENTED_EDGE('',*,*,#90,.F.);
#406=EDGE_LOOP('',(#405));
#407=FACE_BOUND('',#406,.T.);
#408=ORIENTED_EDGE('',*,*,#123,.F.);
#409=EDGE_LOOP('',(#408));
#410=FACE_BOUND('',#409,.T.);
#411=ORIENTED_EDGE('',*,*,#156,.F.);
#412=EDGE_LOOP('',(#411));
#413=FACE_BOUND('',#412,.T.);
#414=ORIENTED_EDGE('',*,*,#189,.F.);
#415=EDGE_LOOP('',(#414));
#416=FACE_BOUND('',#415,.T.);
#417=ADVANCED_FACE('',(#338,#349,#360,#371,#382,#393,#404,#407,#410,#413,#416),#335,.T.);
#418=CARTESIAN_POINT('',(0.14416491371678,-34.749700955226,1.25));
#419=DIRECTION('',(1.0047518372858E-14,1.,4.4408920985006E-16));
#420=DIRECTION('',(0.,0.,-1.));
#421=AXIS2_PLACEMENT_3D('',#418,#420,#419);
#422=CYLINDRICAL_SURFACE('',#421,0.5);
#423=ORIENTED_EDGE('',*,*,#401,.F.);
#424=CARTESIAN_POINT('',(0.14416491371678,-34.249700955226,0.25));
#425=VERTEX_POINT('',#424);
#426=CARTESIAN_POINT('',(0.14416491371678,-34.249700955226,1.25));
#427=DIRECTION('',(0.,0.,-1.));
#428=VECTOR('',#427,1.);
#429=LINE('',#426,#428);
#430=EDGE_CURVE('',#395,#425,#429,.T.);
#431=ORIENTED_EDGE('',*,*,#430,.T.);
#432=CARTESIAN_POINT('',(0.14416491371678,-34.749700955226,0.25));
#433=DIRECTION('',(2.5527881700661E-33,1.,-3.2517679528327E-17));
#434=DIRECTION('',(7.8504622934189E-17,-3.2517679528327E-17,-1.));
#435=AXIS2_PLACEMENT_3D('',#432,#434,#433);
#436=CIRCLE('',#435,0.5);
#437=EDGE_CURVE('',#425,#425,#436,.T.);
#438=ORIENTED_EDGE('',*,*,#437,.T.);
#439=ORIENTED_EDGE('',*,*,#430,.F.);
#440=EDGE_LOOP('',(#423,#431,#438,#439));
#441=FACE_OUTER_BOUND('',#440,.T.);
#442=ADVANCED_FACE('',(#441),#422,.F.);
#443=CARTESIAN_POINT('',(0.14416491371681,34.749700955226,1.25));
#444=DIRECTION('',(-5.1070259132758E-15,1.,0.));
#445=DIRECTION('',(0.,0.,-1.));
#446=AXIS2_PLACEMENT_3D('',#443,#445,#444);
#447=CYLINDRICAL_SURFACE('',#446,0.5);
#448=ORIENTED_EDGE('',*,*,#390,.F.);
#449=CARTESIAN_POINT('',(0.14416491371681,35.249700955226,0.25));
#450=VERTEX_POINT('',#449);
#451=CARTESIAN_POINT('',(0.14416491371681,35.249700955226,1.25));
#452=DIRECTION('',(0.,0.,-1.));
#453=VECTOR('',#452,1.);
#454=LINE('',#451,#453);
#455=EDGE_CURVE('',#384,#450,#454,.T.);
#456=ORIENTED_EDGE('',*,*,#455,.T.);
#457=CARTESIAN_POINT('',(0.14416491371681,34.749700955226,0.25));
#458=DIRECTION('',(5.0242958677881E-15,1.,-3.2517679528327E-17));
#459=DIRECTION('',(7.8504622934189E-17,-3.2517679528327E-17,-1.));
#460=AXIS2_PLACEMENT_3D('',#457,#459,#458);
#461=CIRCLE('',#460,0.5);
#462=EDGE_CURVE('',#450,#450,#461,.T.);
#463=ORIENTED_EDGE('',*,*,#462,.T.);
#464=ORIENTED_EDGE('',*,*,#455,.F.);
#465=EDGE_LOOP('',(#448,#456,#463,#464));
#466=FACE_OUTER_BOUND('',#465,.T.);
#467=ADVANCED_FACE('',(#466),#447,.F.);
#468=CARTESIAN_POINT('',(30.02204134428,-17.499700955226,1.25));
#469=DIRECTION('',(7.105427357601E-15,1.,4.4408920985006E-16));
#470=DIRECTION('',(3.5527136788005E-15,0.,-1.));
#471=AXIS2_PLACEMENT_3D('',#468,#470,#469);
#472=CYLINDRICAL_SURFACE('',#471,0.5);
#473=ORIENTED_EDGE('',*,*,#379,.F.);
#474=CARTESIAN_POINT('',(30.02204134428,-16.999700955226,0.25));
#475=VERTEX_POINT('',#474);
#476=CARTESIAN_POINT('',(30.02204134428,-16.999700955226,1.25));
#477=DIRECTION('',(0.,0.,-1.));
#478=VECTOR('',#477,1.);
#479=LINE('',#476,#478);
#480=EDGE_CURVE('',#373,#475,#479,.T.);
#481=ORIENTED_EDGE('',*,*,#480,.T.);
#482=CARTESIAN_POINT('',(30.02204134428,-17.499700955226,0.25));
#483=DIRECTION('',(2.512147933894E-15,1.,-3.2517679528327E-17));
#484=DIRECTION('',(7.8504622934189E-17,-3.2517679528327E-17,-1.));
#485=AXIS2_PLACEMENT_3D('',#482,#484,#483);
#486=CIRCLE('',#485,0.5);
#487=EDGE_CURVE('',#475,#475,#486,.T.);
#488=ORIENTED_EDGE('',*,*,#487,.T.);
#489=ORIENTED_EDGE('',*,*,#480,.F.);
#490=EDGE_LOOP('',(#473,#481,#488,#489));
#491=FACE_OUTER_BOUND('',#490,.T.);
#492=ADVANCED_FACE('',(#491),#472,.F.);
#493=CARTESIAN_POINT('',(30.02204134428,17.499700955226,1.25));
#494=DIRECTION('',(-7.105427357601E-15,1.,0.));
#495=DIRECTION('',(0.,0.,-1.));
#496=AXIS2_PLACEMENT_3D('',#493,#495,#494);
#497=CYLINDRICAL_SURFACE('',#496,0.5);
#498=ORIENTED_EDGE('',*,*,#368,.F.);
#499=CARTESIAN_POINT('',(30.02204134428,17.999700955226,0.25));
#500=VERTEX_POINT('',#499);
#501=CARTESIAN_POINT('',(30.02204134428,17.999700955226,1.25));
#502=DIRECTION('',(0.,0.,-1.));
#503=VECTOR('',#502,1.);
#504=LINE('',#501,#503);
#505=EDGE_CURVE('',#362,#500,#504,.T.);
#506=ORIENTED_EDGE('',*,*,#505,.T.);
#507=CARTESIAN_POINT('',(30.02204134428,17.499700955226,0.25));
#508=DIRECTION('',(2.512147933894E-15,1.,-3.2517679528327E-17));
#509=DIRECTION('',(7.8504622934189E-17,-3.2517679528327E-17,-1.));
#510=AXIS2_PLACEMENT_3D('',#507,#509,#508);
#511=CIRCLE('',#510,0.5);
#512=EDGE_CURVE('',#500,#500,#511,.T.);
#513=ORIENTED_EDGE('',*,*,#512,.T.);
#514=ORIENTED_EDGE('',*,*,#505,.F.);
#515=EDGE_LOOP('',(#498,#506,#513,#514));
#516=FACE_OUTER_BOUND('',#515,.T.);
#517=ADVANCED_FACE('',(#516),#497,.F.);
#518=CARTESIAN_POINT('',(-30.166206257997,17.25,1.25));
#519=DIRECTION('',(0.,1.,4.4408920985006E-16));
#520=DIRECTION('',(0.,0.,-1.));
#521=AXIS2_PLACEMENT_3D('',#518,#520,#519);
#522=CYLINDRICAL_SURFACE('',#521,0.49999999999999);
#523=ORIENTED_EDGE('',*,*,#346,.F.);
#524=CARTESIAN_POINT('',(-30.166206257997,17.75,0.25));
#525=VERTEX_POINT('',#524);
#526=CARTESIAN_POINT('',(-30.166206257997,17.75,1.25));
#527=DIRECTION('',(0.,0.,-1.));
#528=VECTOR('',#527,1.);
#529=LINE('',#526,#528);
#530=EDGE_CURVE('',#340,#525,#529,.T.);
#531=ORIENTED_EDGE('',*,*,#530,.T.);
#532=CARTESIAN_POINT('',(-30.166206257997,17.25,0.25));
#533=DIRECTION('',(2.5121479338941E-15,1.,-3.2517679528326E-17));
#534=DIRECTION('',(7.8504622934189E-17,-3.2517679528326E-17,-1.));
#535=AXIS2_PLACEMENT_3D('',#532,#534,#533);
#536=CIRCLE('',#535,0.49999999999999);
#537=EDGE_CURVE('',#525,#525,#536,.T.);
#538=ORIENTED_EDGE('',*,*,#537,.T.);
#539=ORIENTED_EDGE('',*,*,#530,.F.);
#540=EDGE_LOOP('',(#523,#531,#538,#539));
#541=FACE_OUTER_BOUND('',#540,.T.);
#542=ADVANCED_FACE('',(#541),#522,.F.);
#543=CARTESIAN_POINT('',(0.14416491371678,-34.883675551442,0.25));
#544=DIRECTION('',(0.,1.,0.));
#545=DIRECTION('',(0.,-0.,1.));
#546=AXIS2_PLACEMENT_3D('',#543,#545,#544);
#547=PLANE('',#546);
#548=ORIENTED_EDGE('',*,*,#437,.F.);
#549=EDGE_LOOP('',(#548));
#550=FACE_OUTER_BOUND('',#549,.T.);
#551=ADVANCED_FACE('',(#550),#547,.T.);
#552=CARTESIAN_POINT('',(0.14416491371681,34.615726359011,0.25));
#553=DIRECTION('',(0.,1.,0.));
#554=DIRECTION('',(0.,-0.,1.));
#555=AXIS2_PLACEMENT_3D('',#552,#554,#553);
#556=PLANE('',#555);
#557=ORIENTED_EDGE('',*,*,#462,.F.);
#558=EDGE_LOOP('',(#557));
#559=FACE_OUTER_BOUND('',#558,.T.);
#560=ADVANCED_FACE('',(#559),#556,.T.);
#561=CARTESIAN_POINT('',(30.02204134428,-17.633675551442,0.25));
#562=DIRECTION('',(0.,1.,0.));
#563=DIRECTION('',(0.,-0.,1.));
#564=AXIS2_PLACEMENT_3D('',#561,#563,#562);
#565=PLANE('',#564);
#566=ORIENTED_EDGE('',*,*,#487,.F.);
#567=EDGE_LOOP('',(#566));
#568=FACE_OUTER_BOUND('',#567,.T.);
#569=ADVANCED_FACE('',(#568),#565,.T.);
#570=CARTESIAN_POINT('',(30.02204134428,17.365726359011,0.25));
#571=DIRECTION('',(0.,1.,0.));
#572=DIRECTION('',(0.,-0.,1.));
#573=AXIS2_PLACEMENT_3D('',#570,#572,#571);
#574=PLANE('',#573);
#575=ORIENTED_EDGE('',*,*,#512,.F.);
#576=EDGE_LOOP('',(#575));
#577=FACE_OUTER_BOUND('',#576,.T.);
#578=ADVANCED_FACE('',(#577),#574,.T.);
#579=CARTESIAN_POINT('',(-30.166206257997,17.116025403784,0.25));
#580=DIRECTION('',(0.,1.,0.));
#581=DIRECTION('',(0.,-0.,1.));
#582=AXIS2_PLACEMENT_3D('',#579,#581,#580);
#583=PLANE('',#582);
#584=ORIENTED_EDGE('',*,*,#537,.F.);
#585=EDGE_LOOP('',(#584));
#586=FACE_OUTER_BOUND('',#585,.T.);
#587=ADVANCED_FACE('',(#586),#583,.T.);
#588=CARTESIAN_POINT('',(1.4210854715202E-14,-10.650980399137,0.));
#589=DIRECTION('',(0.,1.,0.));
#590=DIRECTION('',(0.,0.,-1.));
#591=AXIS2_PLACEMENT_3D('',#588,#590,#589);
#592=PLANE('',#591);
#593=ORIENTED_EDGE('',*,*,#42,.F.);
#594=EDGE_LOOP('',(#593));
#595=FACE_OUTER_BOUND('',#594,.T.);
#596=CARTESIAN_POINT('',(-1.5058350862832,33.499700955226,0.));
#597=VERTEX_POINT('',#596);
#598=CARTESIAN_POINT('',(1.7941649137168,33.499700955226,0.));
#599=VERTEX_POINT('',#598);
#600=CARTESIAN_POINT('',(-1.5058350862832,33.499700955226,0.));
#601=DIRECTION('',(1.,0.,0.));
#602=VECTOR('',#601,3.3);
#603=LINE('',#600,#602);
#604=EDGE_CURVE('',#597,#599,#603,.T.);
#605=ORIENTED_EDGE('',*,*,#604,.T.);
#606=CARTESIAN_POINT('',(1.7941649137168,35.999700955226,0.));
#607=VERTEX_POINT('',#606);
#608=CARTESIAN_POINT('',(1.7941649137168,33.499700955226,0.));
#609=DIRECTION('',(0.,1.,0.));
#610=VECTOR('',#609,2.5);
#611=LINE('',#608,#610);
#612=EDGE_CURVE('',#599,#607,#611,.T.);
#613=ORIENTED_EDGE('',*,*,#612,.T.);
#614=CARTESIAN_POINT('',(-1.5058350862832,35.999700955226,0.));
#615=VERTEX_POINT('',#614);
#616=CARTESIAN_POINT('',(1.7941649137168,35.999700955226,0.));
#617=DIRECTION('',(-1.,0.,0.));
#618=VECTOR('',#617,3.3);
#619=LINE('',#616,#618);
#620=EDGE_CURVE('',#607,#615,#619,.T.);
#621=ORIENTED_EDGE('',*,*,#620,.T.);
#622=CARTESIAN_POINT('',(-1.5058350862832,35.999700955226,0.));
#623=DIRECTION('',(0.,-1.,0.));
#624=VECTOR('',#623,2.5);
#625=LINE('',#622,#624);
#626=EDGE_CURVE('',#615,#597,#625,.T.);
#627=ORIENTED_EDGE('',*,*,#626,.T.);
#628=EDGE_LOOP('',(#605,#613,#621,#627));
#629=FACE_BOUND('',#628,.T.);
#630=CARTESIAN_POINT('',(-28.258674503266,18.053941916244,0.));
#631=VERTEX_POINT('',#630);
#632=CARTESIAN_POINT('',(-30.423738012727,19.303941916244,0.));
#633=VERTEX_POINT('',#632);
#634=CARTESIAN_POINT('',(-28.258674503266,18.053941916244,0.));
#635=DIRECTION('',(-0.86602540378443,0.50000000000002,0.));
#636=VECTOR('',#635,2.4999999999999);
#637=LINE('',#634,#636);
#638=EDGE_CURVE('',#631,#633,#637,.T.);
#639=ORIENTED_EDGE('',*,*,#638,.T.);
#640=CARTESIAN_POINT('',(-32.073738012727,16.446058083756,0.));
#641=VERTEX_POINT('',#640);
#642=CARTESIAN_POINT('',(-30.423738012727,19.303941916244,0.));
#643=DIRECTION('',(-0.50000000000008,-0.86602540378439,0.));
#644=VECTOR('',#643,3.2999999999994);
#645=LINE('',#642,#644);
#646=EDGE_CURVE('',#633,#641,#645,.T.);
#647=ORIENTED_EDGE('',*,*,#646,.T.);
#648=CARTESIAN_POINT('',(-29.908674503266,15.196058083756,0.));
#649=VERTEX_POINT('',#648);
#650=CARTESIAN_POINT('',(-32.073738012727,16.446058083756,0.));
#651=DIRECTION('',(0.86602540378443,-0.50000000000002,0.));
#652=VECTOR('',#651,2.4999999999999);
#653=LINE('',#650,#652);
#654=EDGE_CURVE('',#641,#649,#653,.T.);
#655=ORIENTED_EDGE('',*,*,#654,.T.);
#656=CARTESIAN_POINT('',(-29.908674503266,15.196058083756,0.));
#657=DIRECTION('',(0.50000000000008,0.86602540378439,0.));
#658=VECTOR('',#657,3.2999999999994);
#659=LINE('',#656,#658);
#660=EDGE_CURVE('',#649,#631,#659,.T.);
#661=ORIENTED_EDGE('',*,*,#660,.T.);
#662=EDGE_LOOP('',(#639,#647,#655,#661));
#663=FACE_BOUND('',#662,.T.);
#664=CARTESIAN_POINT('',(-30.423738012727,-19.303941916244,0.));
#665=VERTEX_POINT('',#664);
#666=CARTESIAN_POINT('',(-28.258674503266,-18.053941916244,0.));
#667=VERTEX_POINT('',#666);
#668=CARTESIAN_POINT('',(-30.423738012727,-19.303941916244,0.));
#669=DIRECTION('',(0.86602540378443,0.50000000000002,0.));
#670=VECTOR('',#669,2.4999999999999);
#671=LINE('',#668,#670);
#672=EDGE_CURVE('',#665,#667,#671,.T.);
#673=ORIENTED_EDGE('',*,*,#672,.T.);
#674=CARTESIAN_POINT('',(-29.908674503266,-15.196058083756,0.));
#675=VERTEX_POINT('',#674);
#676=CARTESIAN_POINT('',(-28.258674503266,-18.053941916244,0.));
#677=DIRECTION('',(-0.50000000000008,0.86602540378439,0.));
#678=VECTOR('',#677,3.2999999999994);
#679=LINE('',#676,#678);
#680=EDGE_CURVE('',#667,#675,#679,.T.);
#681=ORIENTED_EDGE('',*,*,#680,.T.);
#682=CARTESIAN_POINT('',(-32.073738012727,-16.446058083756,0.));
#683=VERTEX_POINT('',#682);
#684=CARTESIAN_POINT('',(-29.908674503266,-15.196058083756,0.));
#685=DIRECTION('',(-0.86602540378443,-0.50000000000002,0.));
#686=VECTOR('',#685,2.4999999999999);
#687=LINE('',#684,#686);
#688=EDGE_CURVE('',#675,#683,#687,.T.);
#689=ORIENTED_EDGE('',*,*,#688,.T.);
#690=CARTESIAN_POINT('',(-32.073738012727,-16.446058083756,0.));
#691=DIRECTION('',(0.50000000000008,-0.86602540378439,0.));
#692=VECTOR('',#691,3.2999999999994);
#693=LINE('',#690,#692);
#694=EDGE_CURVE('',#683,#665,#693,.T.);
#695=ORIENTED_EDGE('',*,*,#694,.T.);
#696=EDGE_LOOP('',(#673,#681,#689,#695));
#697=FACE_BOUND('',#696,.T.);
#698=CARTESIAN_POINT('',(1.7941649137168,-35.999700955226,0.));
#699=VERTEX_POINT('',#698);
#700=CARTESIAN_POINT('',(1.7941649137168,-33.499700955226,0.));
#701=VERTEX_POINT('',#700);
#702=CARTESIAN_POINT('',(1.7941649137168,-35.999700955226,0.));
#703=DIRECTION('',(0.,1.,0.));
#704=VECTOR('',#703,2.5);
#705=LINE('',#702,#704);
#706=EDGE_CURVE('',#699,#701,#705,.T.);
#707=ORIENTED_EDGE('',*,*,#706,.T.);
#708=CARTESIAN_POINT('',(-1.5058350862832,-33.499700955226,0.));
#709=VERTEX_POINT('',#708);
#710=CARTESIAN_POINT('',(1.7941649137168,-33.499700955226,0.));
#711=DIRECTION('',(-1.,0.,0.));
#712=VECTOR('',#711,3.3);
#713=LINE('',#710,#712);
#714=EDGE_CURVE('',#701,#709,#713,.T.);
#715=ORIENTED_EDGE('',*,*,#714,.T.);
#716=CARTESIAN_POINT('',(-1.5058350862832,-35.999700955226,0.));
#717=VERTEX_POINT('',#716);
#718=CARTESIAN_POINT('',(-1.5058350862832,-33.499700955226,0.));
#719=DIRECTION('',(0.,-1.,0.));
#720=VECTOR('',#719,2.5);
#721=LINE('',#718,#720);
#722=EDGE_CURVE('',#709,#717,#721,.T.);
#723=ORIENTED_EDGE('',*,*,#722,.T.);
#724=CARTESIAN_POINT('',(-1.5058350862832,-35.999700955226,0.));
#725=DIRECTION('',(1.,0.,0.));
#726=VECTOR('',#725,3.3);
#727=LINE('',#724,#726);
#728=EDGE_CURVE('',#717,#699,#727,.T.);
#729=ORIENTED_EDGE('',*,*,#728,.T.);
#730=EDGE_LOOP('',(#707,#715,#723,#729));
#731=FACE_BOUND('',#730,.T.);
#732=CARTESIAN_POINT('',(29.764509589549,15.445759038982,0.));
#733=VERTEX_POINT('',#732);
#734=CARTESIAN_POINT('',(31.92957309901,16.695759038982,0.));
#735=VERTEX_POINT('',#734);
#736=CARTESIAN_POINT('',(29.764509589549,15.445759038982,0.));
#737=DIRECTION('',(0.86602540378443,0.50000000000002,0.));
#738=VECTOR('',#737,2.4999999999999);
#739=LINE('',#736,#738);
#740=EDGE_CURVE('',#733,#735,#739,.T.);
#741=ORIENTED_EDGE('',*,*,#740,.T.);
#742=CARTESIAN_POINT('',(30.27957309901,19.553642871471,0.));
#743=VERTEX_POINT('',#742);
#744=CARTESIAN_POINT('',(31.92957309901,16.695759038982,0.));
#745=DIRECTION('',(-0.49999999999995,0.86602540378447,0.));
#746=VECTOR('',#745,3.3000000000003);
#747=LINE('',#744,#746);
#748=EDGE_CURVE('',#735,#743,#747,.T.);
#749=ORIENTED_EDGE('',*,*,#748,.T.);
#750=CARTESIAN_POINT('',(28.114509589549,18.303642871471,0.));
#751=VERTEX_POINT('',#750);
#752=CARTESIAN_POINT('',(30.27957309901,19.553642871471,0.));
#753=DIRECTION('',(-0.86602540378443,-0.50000000000002,0.));
#754=VECTOR('',#753,2.4999999999999);
#755=LINE('',#752,#754);
#756=EDGE_CURVE('',#743,#751,#755,.T.);
#757=ORIENTED_EDGE('',*,*,#756,.T.);
#758=CARTESIAN_POINT('',(28.114509589549,18.303642871471,0.));
#759=DIRECTION('',(0.49999999999995,-0.86602540378447,0.));
#760=VECTOR('',#759,3.3000000000003);
#761=LINE('',#758,#760);
#762=EDGE_CURVE('',#751,#733,#761,.T.);
#763=ORIENTED_EDGE('',*,*,#762,.T.);
#764=EDGE_LOOP('',(#741,#749,#757,#763));
#765=FACE_BOUND('',#764,.T.);
#766=CARTESIAN_POINT('',(28.114509589549,-18.303642871471,0.));
#767=VERTEX_POINT('',#766);
#768=CARTESIAN_POINT('',(30.27957309901,-19.553642871471,0.));
#769=VERTEX_POINT('',#768);
#770=CARTESIAN_POINT('',(28.114509589549,-18.303642871471,0.));
#771=DIRECTION('',(0.86602540378443,-0.50000000000002,0.));
#772=VECTOR('',#771,2.4999999999999);
#773=LINE('',#770,#772);
#774=EDGE_CURVE('',#767,#769,#773,.T.);
#775=ORIENTED_EDGE('',*,*,#774,.T.);
#776=CARTESIAN_POINT('',(31.92957309901,-16.695759038982,0.));
#777=VERTEX_POINT('',#776);
#778=CARTESIAN_POINT('',(30.27957309901,-19.553642871471,0.));
#779=DIRECTION('',(0.49999999999995,0.86602540378447,0.));
#780=VECTOR('',#779,3.3000000000003);
#781=LINE('',#778,#780);
#782=EDGE_CURVE('',#769,#777,#781,.T.);
#783=ORIENTED_EDGE('',*,*,#782,.T.);
#784=CARTESIAN_POINT('',(29.764509589549,-15.445759038982,0.));
#785=VERTEX_POINT('',#784);
#786=CARTESIAN_POINT('',(31.92957309901,-16.695759038982,0.));
#787=DIRECTION('',(-0.86602540378443,0.50000000000002,0.));
#788=VECTOR('',#787,2.4999999999999);
#789=LINE('',#786,#788);
#790=EDGE_CURVE('',#777,#785,#789,.T.);
#791=ORIENTED_EDGE('',*,*,#790,.T.);
#792=CARTESIAN_POINT('',(29.764509589549,-15.445759038982,0.));
#793=DIRECTION('',(-0.49999999999995,-0.86602540378447,0.));
#794=VECTOR('',#793,3.3000000000003);
#795=LINE('',#792,#794);
#796=EDGE_CURVE('',#785,#767,#795,.T.);
#797=ORIENTED_EDGE('',*,*,#796,.T.);
#798=EDGE_LOOP('',(#775,#783,#791,#797));
#799=FACE_BOUND('',#798,.T.);
#800=ORIENTED_EDGE('',*,*,#174,.F.);
#801=EDGE_LOOP('',(#800));
#802=FACE_BOUND('',#801,.T.);
#803=ORIENTED_EDGE('',*,*,#141,.F.);
#804=EDGE_LOOP('',(#803));
#805=FACE_BOUND('',#804,.T.);
#806=ORIENTED_EDGE('',*,*,#108,.F.);
#807=EDGE_LOOP('',(#806));
#808=FACE_BOUND('',#807,.T.);
#809=ORIENTED_EDGE('',*,*,#75,.F.);
#810=EDGE_LOOP('',(#809));
#811=FACE_BOUND('',#810,.T.);
#812=ORIENTED_EDGE('',*,*,#314,.F.);
#813=ORIENTED_EDGE('',*,*,#292,.F.);
#814=ORIENTED_EDGE('',*,*,#261,.F.);
#815=ORIENTED_EDGE('',*,*,#230,.F.);
#816=EDGE_LOOP('',(#812,#813,#814,#815));
#817=FACE_BOUND('',#816,.T.);
#818=ADVANCED_FACE('',(#595,#629,#663,#697,#731,#765,#799,#802,#805,#808,#811,#817),#592,.T.);
#819=CARTESIAN_POINT('',(28.939509589549,-16.874700955226,-0.5));
#820=DIRECTION('',(0.5,0.86602540378444,0.));
#821=DIRECTION('',(-0.86602540378444,0.5,0.));
#822=AXIS2_PLACEMENT_3D('',#819,#821,#820);
#823=PLANE('',#822);
#824=ORIENTED_EDGE('',*,*,#796,.F.);
#825=CARTESIAN_POINT('',(29.764509589549,-15.445759038982,-1.));
#826=VERTEX_POINT('',#825);
#827=CARTESIAN_POINT('',(29.764509589549,-15.445759038982,0.));
#828=DIRECTION('',(0.,0.,-1.));
#829=VECTOR('',#828,1.);
#830=LINE('',#827,#829);
#831=EDGE_CURVE('',#785,#826,#830,.T.);
#832=ORIENTED_EDGE('',*,*,#831,.T.);
#833=CARTESIAN_POINT('',(28.114509589549,-18.303642871471,-1.));
#834=VERTEX_POINT('',#833);
#835=CARTESIAN_POINT('',(29.764509589549,-15.445759038982,-1.));
#836=DIRECTION('',(-0.49999999999995,-0.86602540378447,0.));
#837=VECTOR('',#836,3.3000000000003);
#838=LINE('',#835,#837);
#839=EDGE_CURVE('',#826,#834,#838,.T.);
#840=ORIENTED_EDGE('',*,*,#839,.T.);
#841=CARTESIAN_POINT('',(28.114509589549,-18.303642871471,-1.));
#842=DIRECTION('',(0.,0.,1.));
#843=VECTOR('',#842,1.);
#844=LINE('',#841,#843);
#845=EDGE_CURVE('',#834,#767,#844,.T.);
#846=ORIENTED_EDGE('',*,*,#845,.T.);
#847=EDGE_LOOP('',(#824,#832,#840,#846));
#848=FACE_OUTER_BOUND('',#847,.T.);
#849=ADVANCED_FACE('',(#848),#823,.T.);
#850=CARTESIAN_POINT('',(30.84704134428,-16.070759038982,-0.5));
#851=DIRECTION('',(0.86602540378444,-0.5,0.));
#852=DIRECTION('',(0.5,0.86602540378444,0.));
#853=AXIS2_PLACEMENT_3D('',#850,#852,#851);
#854=PLANE('',#853);
#855=ORIENTED_EDGE('',*,*,#790,.F.);
#856=CARTESIAN_POINT('',(31.92957309901,-16.695759038982,-1.));
#857=VERTEX_POINT('',#856);
#858=CARTESIAN_POINT('',(31.92957309901,-16.695759038982,0.));
#859=DIRECTION('',(0.,0.,-1.));
#860=VECTOR('',#859,1.);
#861=LINE('',#858,#860);
#862=EDGE_CURVE('',#777,#857,#861,.T.);
#863=ORIENTED_EDGE('',*,*,#862,.T.);
#864=CARTESIAN_POINT('',(31.92957309901,-16.695759038982,-1.));
#865=DIRECTION('',(-0.86602540378443,0.50000000000002,0.));
#866=VECTOR('',#865,2.4999999999999);
#867=LINE('',#864,#866);
#868=EDGE_CURVE('',#857,#826,#867,.T.);
#869=ORIENTED_EDGE('',*,*,#868,.T.);
#870=ORIENTED_EDGE('',*,*,#831,.F.);
#871=EDGE_LOOP('',(#855,#863,#869,#870));
#872=FACE_OUTER_BOUND('',#871,.T.);
#873=ADVANCED_FACE('',(#872),#854,.T.);
#874=CARTESIAN_POINT('',(31.10457309901,-18.124700955226,-0.5));
#875=DIRECTION('',(-0.5,-0.86602540378444,0.));
#876=DIRECTION('',(0.86602540378444,-0.5,0.));
#877=AXIS2_PLACEMENT_3D('',#874,#876,#875);
#878=PLANE('',#877);
#879=ORIENTED_EDGE('',*,*,#782,.F.);
#880=CARTESIAN_POINT('',(30.27957309901,-19.553642871471,-1.));
#881=VERTEX_POINT('',#880);
#882=CARTESIAN_POINT('',(30.27957309901,-19.553642871471,0.));
#883=DIRECTION('',(0.,0.,-1.));
#884=VECTOR('',#883,1.);
#885=LINE('',#882,#884);
#886=EDGE_CURVE('',#769,#881,#885,.T.);
#887=ORIENTED_EDGE('',*,*,#886,.T.);
#888=CARTESIAN_POINT('',(30.27957309901,-19.553642871471,-1.));
#889=DIRECTION('',(0.49999999999995,0.86602540378447,0.));
#890=VECTOR('',#889,3.3000000000003);
#891=LINE('',#888,#890);
#892=EDGE_CURVE('',#881,#857,#891,.T.);
#893=ORIENTED_EDGE('',*,*,#892,.T.);
#894=ORIENTED_EDGE('',*,*,#862,.F.);
#895=EDGE_LOOP('',(#879,#887,#893,#894));
#896=FACE_OUTER_BOUND('',#895,.T.);
#897=ADVANCED_FACE('',(#896),#878,.T.);
#898=CARTESIAN_POINT('',(29.19704134428,-18.928642871471,-0.5));
#899=DIRECTION('',(-0.86602540378444,0.5,0.));
#900=DIRECTION('',(-0.5,-0.86602540378444,-0.));
#901=AXIS2_PLACEMENT_3D('',#898,#900,#899);
#902=PLANE('',#901);
#903=ORIENTED_EDGE('',*,*,#774,.F.);
#904=ORIENTED_EDGE('',*,*,#845,.F.);
#905=CARTESIAN_POINT('',(28.114509589549,-18.303642871471,-1.));
#906=DIRECTION('',(0.86602540378443,-0.50000000000002,0.));
#907=VECTOR('',#906,2.4999999999999);
#908=LINE('',#905,#907);
#909=EDGE_CURVE('',#834,#881,#908,.T.);
#910=ORIENTED_EDGE('',*,*,#909,.T.);
#911=ORIENTED_EDGE('',*,*,#886,.F.);
#912=EDGE_LOOP('',(#903,#904,#910,#911));
#913=FACE_OUTER_BOUND('',#912,.T.);
#914=ADVANCED_FACE('',(#913),#902,.T.);
#915=CARTESIAN_POINT('',(28.939509589549,16.874700955226,-0.5));
#916=DIRECTION('',(-0.5,0.86602540378444,0.));
#917=DIRECTION('',(-0.86602540378444,-0.5,-0.));
#918=AXIS2_PLACEMENT_3D('',#915,#917,#916);
#919=PLANE('',#918);
#920=ORIENTED_EDGE('',*,*,#762,.F.);
#921=CARTESIAN_POINT('',(28.114509589549,18.303642871471,-1.));
#922=VERTEX_POINT('',#921);
#923=CARTESIAN_POINT('',(28.114509589549,18.303642871471,0.));
#924=DIRECTION('',(0.,0.,-1.));
#925=VECTOR('',#924,1.);
#926=LINE('',#923,#925);
#927=EDGE_CURVE('',#751,#922,#926,.T.);
#928=ORIENTED_EDGE('',*,*,#927,.T.);
#929=CARTESIAN_POINT('',(29.764509589549,15.445759038982,-1.));
#930=VERTEX_POINT('',#929);
#931=CARTESIAN_POINT('',(28.114509589549,18.303642871471,-1.));
#932=DIRECTION('',(0.49999999999995,-0.86602540378447,0.));
#933=VECTOR('',#932,3.3000000000003);
#934=LINE('',#931,#933);
#935=EDGE_CURVE('',#922,#930,#934,.T.);
#936=ORIENTED_EDGE('',*,*,#935,.T.);
#937=CARTESIAN_POINT('',(29.764509589549,15.445759038982,-1.));
#938=DIRECTION('',(0.,0.,1.));
#939=VECTOR('',#938,1.);
#940=LINE('',#937,#939);
#941=EDGE_CURVE('',#930,#733,#940,.T.);
#942=ORIENTED_EDGE('',*,*,#941,.T.);
#943=EDGE_LOOP('',(#920,#928,#936,#942));
#944=FACE_OUTER_BOUND('',#943,.T.);
#945=ADVANCED_FACE('',(#944),#919,.T.);
#946=CARTESIAN_POINT('',(29.19704134428,18.928642871471,-0.5));
#947=DIRECTION('',(0.86602540378444,0.5,0.));
#948=DIRECTION('',(-0.5,0.86602540378444,0.));
#949=AXIS2_PLACEMENT_3D('',#946,#948,#947);
#950=PLANE('',#949);
#951=ORIENTED_EDGE('',*,*,#756,.F.);
#952=CARTESIAN_POINT('',(30.27957309901,19.553642871471,-1.));
#953=VERTEX_POINT('',#952);
#954=CARTESIAN_POINT('',(30.27957309901,19.553642871471,0.));
#955=DIRECTION('',(0.,0.,-1.));
#956=VECTOR('',#955,1.);
#957=LINE('',#954,#956);
#958=EDGE_CURVE('',#743,#953,#957,.T.);
#959=ORIENTED_EDGE('',*,*,#958,.T.);
#960=CARTESIAN_POINT('',(30.27957309901,19.553642871471,-1.));
#961=DIRECTION('',(-0.86602540378443,-0.50000000000002,0.));
#962=VECTOR('',#961,2.4999999999999);
#963=LINE('',#960,#962);
#964=EDGE_CURVE('',#953,#922,#963,.T.);
#965=ORIENTED_EDGE('',*,*,#964,.T.);
#966=ORIENTED_EDGE('',*,*,#927,.F.);
#967=EDGE_LOOP('',(#951,#959,#965,#966));
#968=FACE_OUTER_BOUND('',#967,.T.);
#969=ADVANCED_FACE('',(#968),#950,.T.);
#970=CARTESIAN_POINT('',(31.10457309901,18.124700955226,-0.5));
#971=DIRECTION('',(0.5,-0.86602540378444,0.));
#972=DIRECTION('',(0.86602540378444,0.5,0.));
#973=AXIS2_PLACEMENT_3D('',#970,#972,#971);
#974=PLANE('',#973);
#975=ORIENTED_EDGE('',*,*,#748,.F.);
#976=CARTESIAN_POINT('',(31.92957309901,16.695759038982,-1.));
#977=VERTEX_POINT('',#976);
#978=CARTESIAN_POINT('',(31.92957309901,16.695759038982,0.));
#979=DIRECTION('',(0.,0.,-1.));
#980=VECTOR('',#979,1.);
#981=LINE('',#978,#980);
#982=EDGE_CURVE('',#735,#977,#981,.T.);
#983=ORIENTED_EDGE('',*,*,#982,.T.);
#984=CARTESIAN_POINT('',(31.92957309901,16.695759038982,-1.));
#985=DIRECTION('',(-0.49999999999995,0.86602540378447,0.));
#986=VECTOR('',#985,3.3000000000003);
#987=LINE('',#984,#986);
#988=EDGE_CURVE('',#977,#953,#987,.T.);
#989=ORIENTED_EDGE('',*,*,#988,.T.);
#990=ORIENTED_EDGE('',*,*,#958,.F.);
#991=EDGE_LOOP('',(#975,#983,#989,#990));
#992=FACE_OUTER_BOUND('',#991,.T.);
#993=ADVANCED_FACE('',(#992),#974,.T.);
#994=CARTESIAN_POINT('',(30.84704134428,16.070759038982,-0.5));
#995=DIRECTION('',(-0.86602540378444,-0.5,0.));
#996=DIRECTION('',(0.5,-0.86602540378444,0.));
#997=AXIS2_PLACEMENT_3D('',#994,#996,#995);
#998=PLANE('',#997);
#999=ORIENTED_EDGE('',*,*,#740,.F.);
#1000=ORIENTED_EDGE('',*,*,#941,.F.);
#1001=CARTESIAN_POINT('',(29.764509589549,15.445759038982,-1.));
#1002=DIRECTION('',(0.86602540378443,0.50000000000002,0.));
#1003=VECTOR('',#1002,2.4999999999999);
#1004=LINE('',#1001,#1003);
#1005=EDGE_CURVE('',#930,#977,#1004,.T.);
#1006=ORIENTED_EDGE('',*,*,#1005,.T.);
#1007=ORIENTED_EDGE('',*,*,#982,.F.);
#1008=EDGE_LOOP('',(#999,#1000,#1006,#1007));
#1009=FACE_OUTER_BOUND('',#1008,.T.);
#1010=ADVANCED_FACE('',(#1009),#998,.T.);
#1011=CARTESIAN_POINT('',(0.14416491371682,-35.999700955226,-0.5));
#1012=DIRECTION('',(-1.,0.,0.));
#1013=DIRECTION('',(-0.,-1.,-0.));
#1014=AXIS2_PLACEMENT_3D('',#1011,#1013,#1012);
#1015=PLANE('',#1014);
#1016=ORIENTED_EDGE('',*,*,#728,.F.);
#1017=CARTESIAN_POINT('',(-1.5058350862832,-35.999700955226,-1.));
#1018=VERTEX_POINT('',#1017);
#1019=CARTESIAN_POINT('',(-1.5058350862832,-35.999700955226,0.));
#1020=DIRECTION('',(0.,0.,-1.));
#1021=VECTOR('',#1020,1.);
#1022=LINE('',#1019,#1021);
#1023=EDGE_CURVE('',#717,#1018,#1022,.T.);
#1024=ORIENTED_EDGE('',*,*,#1023,.T.);
#1025=CARTESIAN_POINT('',(1.7941649137168,-35.999700955226,-1.));
#1026=VERTEX_POINT('',#1025);
#1027=CARTESIAN_POINT('',(-1.5058350862832,-35.999700955226,-1.));
#1028=DIRECTION('',(1.,0.,0.));
#1029=VECTOR('',#1028,3.3);
#1030=LINE('',#1027,#1029);
#1031=EDGE_CURVE('',#1018,#1026,#1030,.T.);
#1032=ORIENTED_EDGE('',*,*,#1031,.T.);
#1033=CARTESIAN_POINT('',(1.7941649137168,-35.999700955226,-1.));
#1034=DIRECTION('',(0.,0.,1.));
#1035=VECTOR('',#1034,1.);
#1036=LINE('',#1033,#1035);
#1037=EDGE_CURVE('',#1026,#699,#1036,.T.);
#1038=ORIENTED_EDGE('',*,*,#1037,.T.);
#1039=EDGE_LOOP('',(#1016,#1024,#1032,#1038));
#1040=FACE_OUTER_BOUND('',#1039,.T.);
#1041=ADVANCED_FACE('',(#1040),#1015,.T.);
#1042=CARTESIAN_POINT('',(-1.5058350862832,-34.749700955226,-0.5));
#1043=DIRECTION('',(-7.105427357601E-16,1.,0.));
#1044=DIRECTION('',(-1.,-7.105427357601E-16,-0.));
#1045=AXIS2_PLACEMENT_3D('',#1042,#1044,#1043);
#1046=PLANE('',#1045);
#1047=ORIENTED_EDGE('',*,*,#722,.F.);
#1048=CARTESIAN_POINT('',(-1.5058350862832,-33.499700955226,-1.));
#1049=VERTEX_POINT('',#1048);
#1050=CARTESIAN_POINT('',(-1.5058350862832,-33.499700955226,0.));
#1051=DIRECTION('',(0.,0.,-1.));
#1052=VECTOR('',#1051,1.);
#1053=LINE('',#1050,#1052);
#1054=EDGE_CURVE('',#709,#1049,#1053,.T.);
#1055=ORIENTED_EDGE('',*,*,#1054,.T.);
#1056=CARTESIAN_POINT('',(-1.5058350862832,-33.499700955226,-1.));
#1057=DIRECTION('',(0.,-1.,0.));
#1058=VECTOR('',#1057,2.5);
#1059=LINE('',#1056,#1058);
#1060=EDGE_CURVE('',#1049,#1018,#1059,.T.);
#1061=ORIENTED_EDGE('',*,*,#1060,.T.);
#1062=ORIENTED_EDGE('',*,*,#1023,.F.);
#1063=EDGE_LOOP('',(#1047,#1055,#1061,#1062));
#1064=FACE_OUTER_BOUND('',#1063,.T.);
#1065=ADVANCED_FACE('',(#1064),#1046,.T.);
#1066=CARTESIAN_POINT('',(0.14416491371681,-33.499700955226,-0.5));
#1067=DIRECTION('',(1.,0.,0.));
#1068=DIRECTION('',(-0.,1.,0.));
#1069=AXIS2_PLACEMENT_3D('',#1066,#1068,#1067);
#1070=PLANE('',#1069);
#1071=ORIENTED_EDGE('',*,*,#714,.F.);
#1072=CARTESIAN_POINT('',(1.7941649137168,-33.499700955226,-1.));
#1073=VERTEX_POINT('',#1072);
#1074=CARTESIAN_POINT('',(1.7941649137168,-33.499700955226,0.));
#1075=DIRECTION('',(0.,0.,-1.));
#1076=VECTOR('',#1075,1.);
#1077=LINE('',#1074,#1076);
#1078=EDGE_CURVE('',#701,#1073,#1077,.T.);
#1079=ORIENTED_EDGE('',*,*,#1078,.T.);
#1080=CARTESIAN_POINT('',(1.7941649137168,-33.499700955226,-1.));
#1081=DIRECTION('',(-1.,0.,0.));
#1082=VECTOR('',#1081,3.3);
#1083=LINE('',#1080,#1082);
#1084=EDGE_CURVE('',#1073,#1049,#1083,.T.);
#1085=ORIENTED_EDGE('',*,*,#1084,.T.);
#1086=ORIENTED_EDGE('',*,*,#1054,.F.);
#1087=EDGE_LOOP('',(#1071,#1079,#1085,#1086));
#1088=FACE_OUTER_BOUND('',#1087,.T.);
#1089=ADVANCED_FACE('',(#1088),#1070,.T.);
#1090=CARTESIAN_POINT('',(1.7941649137168,-34.749700955226,-0.5));
#1091=DIRECTION('',(7.105427357601E-16,-1.,0.));
#1092=DIRECTION('',(1.,7.105427357601E-16,0.));
#1093=AXIS2_PLACEMENT_3D('',#1090,#1092,#1091);
#1094=PLANE('',#1093);
#1095=ORIENTED_EDGE('',*,*,#706,.F.);
#1096=ORIENTED_EDGE('',*,*,#1037,.F.);
#1097=CARTESIAN_POINT('',(1.7941649137168,-35.999700955226,-1.));
#1098=DIRECTION('',(0.,1.,0.));
#1099=VECTOR('',#1098,2.5);
#1100=LINE('',#1097,#1099);
#1101=EDGE_CURVE('',#1026,#1073,#1100,.T.);
#1102=ORIENTED_EDGE('',*,*,#1101,.T.);
#1103=ORIENTED_EDGE('',*,*,#1078,.F.);
#1104=EDGE_LOOP('',(#1095,#1096,#1102,#1103));
#1105=FACE_OUTER_BOUND('',#1104,.T.);
#1106=ADVANCED_FACE('',(#1105),#1094,.T.);
#1107=CARTESIAN_POINT('',(-31.248738012727,-17.875,-0.5));
#1108=DIRECTION('',(-0.5,0.86602540378444,0.));
#1109=DIRECTION('',(-0.86602540378444,-0.5,-0.));
#1110=AXIS2_PLACEMENT_3D('',#1107,#1109,#1108);
#1111=PLANE('',#1110);
#1112=ORIENTED_EDGE('',*,*,#694,.F.);
#1113=CARTESIAN_POINT('',(-32.073738012727,-16.446058083756,-1.));
#1114=VERTEX_POINT('',#1113);
#1115=CARTESIAN_POINT('',(-32.073738012727,-16.446058083756,0.));
#1116=DIRECTION('',(0.,0.,-1.));
#1117=VECTOR('',#1116,1.);
#1118=LINE('',#1115,#1117);
#1119=EDGE_CURVE('',#683,#1114,#1118,.T.);
#1120=ORIENTED_EDGE('',*,*,#1119,.T.);
#1121=CARTESIAN_POINT('',(-30.423738012727,-19.303941916244,-1.));
#1122=VERTEX_POINT('',#1121);
#1123=CARTESIAN_POINT('',(-32.073738012727,-16.446058083756,-1.));
#1124=DIRECTION('',(0.50000000000008,-0.86602540378439,0.));
#1125=VECTOR('',#1124,3.2999999999994);
#1126=LINE('',#1123,#1125);
#1127=EDGE_CURVE('',#1114,#1122,#1126,.T.);
#1128=ORIENTED_EDGE('',*,*,#1127,.T.);
#1129=CARTESIAN_POINT('',(-30.423738012727,-19.303941916244,-1.));
#1130=DIRECTION('',(0.,0.,1.));
#1131=VECTOR('',#1130,1.);
#1132=LINE('',#1129,#1131);
#1133=EDGE_CURVE('',#1122,#665,#1132,.T.);
#1134=ORIENTED_EDGE('',*,*,#1133,.T.);
#1135=EDGE_LOOP('',(#1112,#1120,#1128,#1134));
#1136=FACE_OUTER_BOUND('',#1135,.T.);
#1137=ADVANCED_FACE('',(#1136),#1111,.T.);
#1138=CARTESIAN_POINT('',(-30.991206257997,-15.821058083756,-0.5));
#1139=DIRECTION('',(0.86602540378444,0.5,0.));
#1140=DIRECTION('',(-0.5,0.86602540378444,0.));
#1141=AXIS2_PLACEMENT_3D('',#1138,#1140,#1139);
#1142=PLANE('',#1141);
#1143=ORIENTED_EDGE('',*,*,#688,.F.);
#1144=CARTESIAN_POINT('',(-29.908674503266,-15.196058083756,-1.));
#1145=VERTEX_POINT('',#1144);
#1146=CARTESIAN_POINT('',(-29.908674503266,-15.196058083756,0.));
#1147=DIRECTION('',(0.,0.,-1.));
#1148=VECTOR('',#1147,1.);
#1149=LINE('',#1146,#1148);
#1150=EDGE_CURVE('',#675,#1145,#1149,.T.);
#1151=ORIENTED_EDGE('',*,*,#1150,.T.);
#1152=CARTESIAN_POINT('',(-29.908674503266,-15.196058083756,-1.));
#1153=DIRECTION('',(-0.86602540378443,-0.50000000000002,0.));
#1154=VECTOR('',#1153,2.4999999999999);
#1155=LINE('',#1152,#1154);
#1156=EDGE_CURVE('',#1145,#1114,#1155,.T.);
#1157=ORIENTED_EDGE('',*,*,#1156,.T.);
#1158=ORIENTED_EDGE('',*,*,#1119,.F.);
#1159=EDGE_LOOP('',(#1143,#1151,#1157,#1158));
#1160=FACE_OUTER_BOUND('',#1159,.T.);
#1161=ADVANCED_FACE('',(#1160),#1142,.T.);
#1162=CARTESIAN_POINT('',(-29.083674503266,-16.625,-0.5));
#1163=DIRECTION('',(0.5,-0.86602540378444,0.));
#1164=DIRECTION('',(0.86602540378444,0.5,0.));
#1165=AXIS2_PLACEMENT_3D('',#1162,#1164,#1163);
#1166=PLANE('',#1165);
#1167=ORIENTED_EDGE('',*,*,#680,.F.);
#1168=CARTESIAN_POINT('',(-28.258674503266,-18.053941916244,-1.));
#1169=VERTEX_POINT('',#1168);
#1170=CARTESIAN_POINT('',(-28.258674503266,-18.053941916244,0.));
#1171=DIRECTION('',(0.,0.,-1.));
#1172=VECTOR('',#1171,1.);
#1173=LINE('',#1170,#1172);
#1174=EDGE_CURVE('',#667,#1169,#1173,.T.);
#1175=ORIENTED_EDGE('',*,*,#1174,.T.);
#1176=CARTESIAN_POINT('',(-28.258674503266,-18.053941916244,-1.));
#1177=DIRECTION('',(-0.50000000000008,0.86602540378439,0.));
#1178=VECTOR('',#1177,3.2999999999994);
#1179=LINE('',#1176,#1178);
#1180=EDGE_CURVE('',#1169,#1145,#1179,.T.);
#1181=ORIENTED_EDGE('',*,*,#1180,.T.);
#1182=ORIENTED_EDGE('',*,*,#1150,.F.);
#1183=EDGE_LOOP('',(#1167,#1175,#1181,#1182));
#1184=FACE_OUTER_BOUND('',#1183,.T.);
#1185=ADVANCED_FACE('',(#1184),#1166,.T.);
#1186=CARTESIAN_POINT('',(-29.341206257997,-18.678941916244,-0.5));
#1187=DIRECTION('',(-0.86602540378444,-0.5,0.));
#1188=DIRECTION('',(0.5,-0.86602540378444,0.));
#1189=AXIS2_PLACEMENT_3D('',#1186,#1188,#1187);
#1190=PLANE('',#1189);
#1191=ORIENTED_EDGE('',*,*,#672,.F.);
#1192=ORIENTED_EDGE('',*,*,#1133,.F.);
#1193=CARTESIAN_POINT('',(-30.423738012727,-19.303941916244,-1.));
#1194=DIRECTION('',(0.86602540378443,0.50000000000002,0.));
#1195=VECTOR('',#1194,2.4999999999999);
#1196=LINE('',#1193,#1195);
#1197=EDGE_CURVE('',#1122,#1169,#1196,.T.);
#1198=ORIENTED_EDGE('',*,*,#1197,.T.);
#1199=ORIENTED_EDGE('',*,*,#1174,.F.);
#1200=EDGE_LOOP('',(#1191,#1192,#1198,#1199));
#1201=FACE_OUTER_BOUND('',#1200,.T.);
#1202=ADVANCED_FACE('',(#1201),#1190,.T.);
#1203=CARTESIAN_POINT('',(-29.083674503266,16.625,-0.5));
#1204=DIRECTION('',(-0.5,-0.86602540378444,0.));
#1205=DIRECTION('',(0.86602540378444,-0.5,0.));
#1206=AXIS2_PLACEMENT_3D('',#1203,#1205,#1204);
#1207=PLANE('',#1206);
#1208=ORIENTED_EDGE('',*,*,#660,.F.);
#1209=CARTESIAN_POINT('',(-29.908674503266,15.196058083756,-1.));
#1210=VERTEX_POINT('',#1209);
#1211=CARTESIAN_POINT('',(-29.908674503266,15.196058083756,0.));
#1212=DIRECTION('',(0.,0.,-1.));
#1213=VECTOR('',#1212,1.);
#1214=LINE('',#1211,#1213);
#1215=EDGE_CURVE('',#649,#1210,#1214,.T.);
#1216=ORIENTED_EDGE('',*,*,#1215,.T.);
#1217=CARTESIAN_POINT('',(-28.258674503266,18.053941916244,-1.));
#1218=VERTEX_POINT('',#1217);
#1219=CARTESIAN_POINT('',(-29.908674503266,15.196058083756,-1.));
#1220=DIRECTION('',(0.50000000000008,0.86602540378439,0.));
#1221=VECTOR('',#1220,3.2999999999994);
#1222=LINE('',#1219,#1221);
#1223=EDGE_CURVE('',#1210,#1218,#1222,.T.);
#1224=ORIENTED_EDGE('',*,*,#1223,.T.);
#1225=CARTESIAN_POINT('',(-28.258674503266,18.053941916244,-1.));
#1226=DIRECTION('',(0.,0.,1.));
#1227=VECTOR('',#1226,1.);
#1228=LINE('',#1225,#1227);
#1229=EDGE_CURVE('',#1218,#631,#1228,.T.);
#1230=ORIENTED_EDGE('',*,*,#1229,.T.);
#1231=EDGE_LOOP('',(#1208,#1216,#1224,#1230));
#1232=FACE_OUTER_BOUND('',#1231,.T.);
#1233=ADVANCED_FACE('',(#1232),#1207,.T.);
#1234=CARTESIAN_POINT('',(-30.991206257997,15.821058083756,-0.5));
#1235=DIRECTION('',(-0.86602540378444,0.5,0.));
#1236=DIRECTION('',(-0.5,-0.86602540378444,-0.));
#1237=AXIS2_PLACEMENT_3D('',#1234,#1236,#1235);
#1238=PLANE('',#1237);
#1239=ORIENTED_EDGE('',*,*,#654,.F.);
#1240=CARTESIAN_POINT('',(-32.073738012727,16.446058083756,-1.));
#1241=VERTEX_POINT('',#1240);
#1242=CARTESIAN_POINT('',(-32.073738012727,16.446058083756,0.));
#1243=DIRECTION('',(0.,0.,-1.));
#1244=VECTOR('',#1243,1.);
#1245=LINE('',#1242,#1244);
#1246=EDGE_CURVE('',#641,#1241,#1245,.T.);
#1247=ORIENTED_EDGE('',*,*,#1246,.T.);
#1248=CARTESIAN_POINT('',(-32.073738012727,16.446058083756,-1.));
#1249=DIRECTION('',(0.86602540378443,-0.50000000000002,0.));
#1250=VECTOR('',#1249,2.4999999999999);
#1251=LINE('',#1248,#1250);
#1252=EDGE_CURVE('',#1241,#1210,#1251,.T.);
#1253=ORIENTED_EDGE('',*,*,#1252,.T.);
#1254=ORIENTED_EDGE('',*,*,#1215,.F.);
#1255=EDGE_LOOP('',(#1239,#1247,#1253,#1254));
#1256=FACE_OUTER_BOUND('',#1255,.T.);
#1257=ADVANCED_FACE('',(#1256),#1238,.T.);
#1258=CARTESIAN_POINT('',(-31.248738012727,17.875,-0.5));
#1259=DIRECTION('',(0.5,0.86602540378444,0.));
#1260=DIRECTION('',(-0.86602540378444,0.5,0.));
#1261=AXIS2_PLACEMENT_3D('',#1258,#1260,#1259);
#1262=PLANE('',#1261);
#1263=ORIENTED_EDGE('',*,*,#646,.F.);
#1264=CARTESIAN_POINT('',(-30.423738012727,19.303941916244,-1.));
#1265=VERTEX_POINT('',#1264);
#1266=CARTESIAN_POINT('',(-30.423738012727,19.303941916244,0.));
#1267=DIRECTION('',(0.,0.,-1.));
#1268=VECTOR('',#1267,1.);
#1269=LINE('',#1266,#1268);
#1270=EDGE_CURVE('',#633,#1265,#1269,.T.);
#1271=ORIENTED_EDGE('',*,*,#1270,.T.);
#1272=CARTESIAN_POINT('',(-30.423738012727,19.303941916244,-1.));
#1273=DIRECTION('',(-0.50000000000008,-0.86602540378439,0.));
#1274=VECTOR('',#1273,3.2999999999994);
#1275=LINE('',#1272,#1274);
#1276=EDGE_CURVE('',#1265,#1241,#1275,.T.);
#1277=ORIENTED_EDGE('',*,*,#1276,.T.);
#1278=ORIENTED_EDGE('',*,*,#1246,.F.);
#1279=EDGE_LOOP('',(#1263,#1271,#1277,#1278));
#1280=FACE_OUTER_BOUND('',#1279,.T.);
#1281=ADVANCED_FACE('',(#1280),#1262,.T.);
#1282=CARTESIAN_POINT('',(-29.341206257997,18.678941916244,-0.5));
#1283=DIRECTION('',(0.86602540378444,-0.5,0.));
#1284=DIRECTION('',(0.5,0.86602540378444,0.));
#1285=AXIS2_PLACEMENT_3D('',#1282,#1284,#1283);
#1286=PLANE('',#1285);
#1287=ORIENTED_EDGE('',*,*,#638,.F.);
#1288=ORIENTED_EDGE('',*,*,#1229,.F.);
#1289=CARTESIAN_POINT('',(-28.258674503266,18.053941916244,-1.));
#1290=DIRECTION('',(-0.86602540378443,0.50000000000002,0.));
#1291=VECTOR('',#1290,2.4999999999999);
#1292=LINE('',#1289,#1291);
#1293=EDGE_CURVE('',#1218,#1265,#1292,.T.);
#1294=ORIENTED_EDGE('',*,*,#1293,.T.);
#1295=ORIENTED_EDGE('',*,*,#1270,.F.);
#1296=EDGE_LOOP('',(#1287,#1288,#1294,#1295));
#1297=FACE_OUTER_BOUND('',#1296,.T.);
#1298=ADVANCED_FACE('',(#1297),#1286,.T.);
#1299=CARTESIAN_POINT('',(-1.5058350862832,34.749700955226,-0.5));
#1300=DIRECTION('',(-1.4210854715202E-15,1.,0.));
#1301=DIRECTION('',(-1.,-1.4210854715202E-15,-0.));
#1302=AXIS2_PLACEMENT_3D('',#1299,#1301,#1300);
#1303=PLANE('',#1302);
#1304=ORIENTED_EDGE('',*,*,#626,.F.);
#1305=CARTESIAN_POINT('',(-1.5058350862832,35.999700955226,-1.));
#1306=VERTEX_POINT('',#1305);
#1307=CARTESIAN_POINT('',(-1.5058350862832,35.999700955226,0.));
#1308=DIRECTION('',(0.,0.,-1.));
#1309=VECTOR('',#1308,1.);
#1310=LINE('',#1307,#1309);
#1311=EDGE_CURVE('',#615,#1306,#1310,.T.);
#1312=ORIENTED_EDGE('',*,*,#1311,.T.);
#1313=CARTESIAN_POINT('',(-1.5058350862832,33.499700955226,-1.));
#1314=VERTEX_POINT('',#1313);
#1315=CARTESIAN_POINT('',(-1.5058350862832,35.999700955226,-1.));
#1316=DIRECTION('',(0.,-1.,0.));
#1317=VECTOR('',#1316,2.5);
#1318=LINE('',#1315,#1317);
#1319=EDGE_CURVE('',#1306,#1314,#1318,.T.);
#1320=ORIENTED_EDGE('',*,*,#1319,.T.);
#1321=CARTESIAN_POINT('',(-1.5058350862832,33.499700955226,-1.));
#1322=DIRECTION('',(0.,0.,1.));
#1323=VECTOR('',#1322,1.);
#1324=LINE('',#1321,#1323);
#1325=EDGE_CURVE('',#1314,#597,#1324,.T.);
#1326=ORIENTED_EDGE('',*,*,#1325,.T.);
#1327=EDGE_LOOP('',(#1304,#1312,#1320,#1326));
#1328=FACE_OUTER_BOUND('',#1327,.T.);
#1329=ADVANCED_FACE('',(#1328),#1303,.T.);
#1330=CARTESIAN_POINT('',(0.14416491371679,35.999700955226,-0.5));
#1331=DIRECTION('',(1.,0.,0.));
#1332=DIRECTION('',(-0.,1.,0.));
#1333=AXIS2_PLACEMENT_3D('',#1330,#1332,#1331);
#1334=PLANE('',#1333);
#1335=ORIENTED_EDGE('',*,*,#620,.F.);
#1336=CARTESIAN_POINT('',(1.7941649137168,35.999700955226,-1.));
#1337=VERTEX_POINT('',#1336);
#1338=CARTESIAN_POINT('',(1.7941649137168,35.999700955226,0.));
#1339=DIRECTION('',(0.,0.,-1.));
#1340=VECTOR('',#1339,1.);
#1341=LINE('',#1338,#1340);
#1342=EDGE_CURVE('',#607,#1337,#1341,.T.);
#1343=ORIENTED_EDGE('',*,*,#1342,.T.);
#1344=CARTESIAN_POINT('',(1.7941649137168,35.999700955226,-1.));
#1345=DIRECTION('',(-1.,0.,0.));
#1346=VECTOR('',#1345,3.3);
#1347=LINE('',#1344,#1346);
#1348=EDGE_CURVE('',#1337,#1306,#1347,.T.);
#1349=ORIENTED_EDGE('',*,*,#1348,.T.);
#1350=ORIENTED_EDGE('',*,*,#1311,.F.);
#1351=EDGE_LOOP('',(#1335,#1343,#1349,#1350));
#1352=FACE_OUTER_BOUND('',#1351,.T.);
#1353=ADVANCED_FACE('',(#1352),#1334,.T.);
#1354=CARTESIAN_POINT('',(1.7941649137168,34.749700955226,-0.5));
#1355=DIRECTION('',(0.,-1.,0.));
#1356=DIRECTION('',(1.,0.,0.));
#1357=AXIS2_PLACEMENT_3D('',#1354,#1356,#1355);
#1358=PLANE('',#1357);
#1359=ORIENTED_EDGE('',*,*,#612,.F.);
#1360=CARTESIAN_POINT('',(1.7941649137168,33.499700955226,-1.));
#1361=VERTEX_POINT('',#1360);
#1362=CARTESIAN_POINT('',(1.7941649137168,33.499700955226,0.));
#1363=DIRECTION('',(0.,0.,-1.));
#1364=VECTOR('',#1363,1.);
#1365=LINE('',#1362,#1364);
#1366=EDGE_CURVE('',#599,#1361,#1365,.T.);
#1367=ORIENTED_EDGE('',*,*,#1366,.T.);
#1368=CARTESIAN_POINT('',(1.7941649137168,33.499700955226,-1.));
#1369=DIRECTION('',(0.,1.,0.));
#1370=VECTOR('',#1369,2.5);
#1371=LINE('',#1368,#1370);
#1372=EDGE_CURVE('',#1361,#1337,#1371,.T.);
#1373=ORIENTED_EDGE('',*,*,#1372,.T.);
#1374=ORIENTED_EDGE('',*,*,#1342,.F.);
#1375=EDGE_LOOP('',(#1359,#1367,#1373,#1374));
#1376=FACE_OUTER_BOUND('',#1375,.T.);
#1377=ADVANCED_FACE('',(#1376),#1358,.T.);
#1378=CARTESIAN_POINT('',(0.14416491371679,33.499700955226,-0.5));
#1379=DIRECTION('',(-1.,0.,0.));
#1380=DIRECTION('',(-0.,-1.,-0.));
#1381=AXIS2_PLACEMENT_3D('',#1378,#1380,#1379);
#1382=PLANE('',#1381);
#1383=ORIENTED_EDGE('',*,*,#604,.F.);
#1384=ORIENTED_EDGE('',*,*,#1325,.F.);
#1385=CARTESIAN_POINT('',(-1.5058350862832,33.499700955226,-1.));
#1386=DIRECTION('',(1.,0.,0.));
#1387=VECTOR('',#1386,3.3);
#1388=LINE('',#1385,#1387);
#1389=EDGE_CURVE('',#1314,#1361,#1388,.T.);
#1390=ORIENTED_EDGE('',*,*,#1389,.T.);
#1391=ORIENTED_EDGE('',*,*,#1366,.F.);
#1392=EDGE_LOOP('',(#1383,#1384,#1390,#1391));
#1393=FACE_OUTER_BOUND('',#1392,.T.);
#1394=ADVANCED_FACE('',(#1393),#1382,.T.);
#1395=CARTESIAN_POINT('',(29.875631182766,-17.499700955226,-1.));
#1396=DIRECTION('',(0.,-1.,0.));
#1397=DIRECTION('',(-0.,-0.,-1.));
#1398=AXIS2_PLACEMENT_3D('',#1395,#1397,#1396);
#1399=PLANE('',#1398);
#1400=ORIENTED_EDGE('',*,*,#868,.F.);
#1401=ORIENTED_EDGE('',*,*,#892,.F.);
#1402=ORIENTED_EDGE('',*,*,#909,.F.);
#1403=ORIENTED_EDGE('',*,*,#839,.F.);
#1404=EDGE_LOOP('',(#1400,#1401,#1402,#1403));
#1405=FACE_OUTER_BOUND('',#1404,.T.);
#1406=ADVANCED_FACE('',(#1405),#1399,.T.);
#1407=CARTESIAN_POINT('',(29.875631182766,17.499700955226,-1.));
#1408=DIRECTION('',(0.,-1.,0.));
#1409=DIRECTION('',(-0.,-0.,-1.));
#1410=AXIS2_PLACEMENT_3D('',#1407,#1409,#1408);
#1411=PLANE('',#1410);
#1412=ORIENTED_EDGE('',*,*,#935,.F.);
#1413=ORIENTED_EDGE('',*,*,#964,.F.);
#1414=ORIENTED_EDGE('',*,*,#988,.F.);
#1415=ORIENTED_EDGE('',*,*,#1005,.F.);
#1416=EDGE_LOOP('',(#1412,#1413,#1414,#1415));
#1417=FACE_OUTER_BOUND('',#1416,.T.);
#1418=ADVANCED_FACE('',(#1417),#1411,.T.);
#1419=CARTESIAN_POINT('',(0.14416491371682,-35.149700955226,-1.));
#1420=DIRECTION('',(0.,-1.,0.));
#1421=DIRECTION('',(-0.,-0.,-1.));
#1422=AXIS2_PLACEMENT_3D('',#1419,#1421,#1420);
#1423=PLANE('',#1422);
#1424=ORIENTED_EDGE('',*,*,#1084,.F.);
#1425=ORIENTED_EDGE('',*,*,#1101,.F.);
#1426=ORIENTED_EDGE('',*,*,#1031,.F.);
#1427=ORIENTED_EDGE('',*,*,#1060,.F.);
#1428=EDGE_LOOP('',(#1424,#1425,#1426,#1427));
#1429=FACE_OUTER_BOUND('',#1428,.T.);
#1430=ADVANCED_FACE('',(#1429),#1423,.T.);
#1431=CARTESIAN_POINT('',(-30.31261641951,-17.25,-1.));
#1432=DIRECTION('',(0.,-1.,0.));
#1433=DIRECTION('',(-0.,-0.,-1.));
#1434=AXIS2_PLACEMENT_3D('',#1431,#1433,#1432);
#1435=PLANE('',#1434);
#1436=ORIENTED_EDGE('',*,*,#1197,.F.);
#1437=ORIENTED_EDGE('',*,*,#1127,.F.);
#1438=ORIENTED_EDGE('',*,*,#1156,.F.);
#1439=ORIENTED_EDGE('',*,*,#1180,.F.);
#1440=EDGE_LOOP('',(#1436,#1437,#1438,#1439));
#1441=FACE_OUTER_BOUND('',#1440,.T.);
#1442=CARTESIAN_POINT('',(-30.166206257997,-16.75,-1.));
#1443=VERTEX_POINT('',#1442);
#1444=CARTESIAN_POINT('',(-30.166206257997,-17.25,-1.));
#1445=DIRECTION('',(-2.512147933894E-15,1.,3.1401849173675E-16));
#1446=DIRECTION('',(3.1401849173675E-16,3.1401849173675E-16,-1.));
#1447=AXIS2_PLACEMENT_3D('',#1444,#1446,#1445);
#1448=CIRCLE('',#1447,0.5);
#1449=EDGE_CURVE('',#1443,#1443,#1448,.T.);
#1450=ORIENTED_EDGE('',*,*,#1449,.F.);
#1451=EDGE_LOOP('',(#1450));
#1452=FACE_BOUND('',#1451,.T.);
#1453=ADVANCED_FACE('',(#1441,#1452),#1435,.T.);
#1454=CARTESIAN_POINT('',(-30.31261641951,17.25,-1.));
#1455=DIRECTION('',(0.,-1.,0.));
#1456=DIRECTION('',(-0.,-0.,-1.));
#1457=AXIS2_PLACEMENT_3D('',#1454,#1456,#1455);
#1458=PLANE('',#1457);
#1459=ORIENTED_EDGE('',*,*,#1223,.F.);
#1460=ORIENTED_EDGE('',*,*,#1252,.F.);
#1461=ORIENTED_EDGE('',*,*,#1276,.F.);
#1462=ORIENTED_EDGE('',*,*,#1293,.F.);
#1463=EDGE_LOOP('',(#1459,#1460,#1461,#1462));
#1464=FACE_OUTER_BOUND('',#1463,.T.);
#1465=ADVANCED_FACE('',(#1464),#1458,.T.);
#1466=CARTESIAN_POINT('',(0.14416491371679,34.349700955226,-1.));
#1467=DIRECTION('',(0.,-1.,0.));
#1468=DIRECTION('',(-0.,-0.,-1.));
#1469=AXIS2_PLACEMENT_3D('',#1466,#1468,#1467);
#1470=PLANE('',#1469);
#1471=ORIENTED_EDGE('',*,*,#1319,.F.);
#1472=ORIENTED_EDGE('',*,*,#1348,.F.);
#1473=ORIENTED_EDGE('',*,*,#1372,.F.);
#1474=ORIENTED_EDGE('',*,*,#1389,.F.);
#1475=EDGE_LOOP('',(#1471,#1472,#1473,#1474));
#1476=FACE_OUTER_BOUND('',#1475,.T.);
#1477=ADVANCED_FACE('',(#1476),#1470,.T.);
#1478=CARTESIAN_POINT('',(-30.166206257997,-17.25,1.25));
#1479=DIRECTION('',(-7.1054273576011E-15,1.,0.));
#1480=DIRECTION('',(0.,0.,-1.));
#1481=AXIS2_PLACEMENT_3D('',#1478,#1480,#1479);
#1482=CYLINDRICAL_SURFACE('',#1481,0.49999999999999);
#1483=ORIENTED_EDGE('',*,*,#1449,.F.);
#1484=CARTESIAN_POINT('',(-30.166206257997,-16.75,1.25));
#1485=DIRECTION('',(1.5789838572447E-15,0.,-1.));
#1486=VECTOR('',#1485,2.25);
#1487=LINE('',#1484,#1486);
#1488=EDGE_CURVE('',#351,#1443,#1487,.T.);
#1489=ORIENTED_EDGE('',*,*,#1488,.F.);
#1490=ORIENTED_EDGE('',*,*,#357,.T.);
#1491=ORIENTED_EDGE('',*,*,#1488,.T.);
#1492=EDGE_LOOP('',(#1483,#1489,#1490,#1491));
#1493=FACE_OUTER_BOUND('',#1492,.F.);
#1494=ADVANCED_FACE('',(#1493),#1482,.F.);
#1495=CLOSED_SHELL('',(#62,#95,#128,#161,#194,#234,#265,#296,#318,#330,#417,#442,#467,#492,#517,#542,#551,#560,#569,#578,#587,#818,#849,#873,#897,#914,#945,#969,#993,#1010,#1041,#1065,#1089,#1106,#1137,#1161,#1185,#1202,#1233,#1257,#1281,#1298,#1329,#1353,#1377,#1394,#1406,#1418,#1430,#1453,#1465,#1477,#1494));
#1496=COLOUR_RGB('',0.745098,0.901961,0.960784);
#1497=FILL_AREA_STYLE_COLOUR('',#1496);
#1498=FILL_AREA_STYLE('',(#1497));
#1499=SURFACE_STYLE_FILL_AREA(#1498);
#1500=SURFACE_SIDE_STYLE('',(#1499));
#1501=SURFACE_STYLE_USAGE(.BOTH.,#1500);
#1502=PRESENTATION_STYLE_ASSIGNMENT((#1501));
#1503=OVER_RIDING_STYLED_ITEM('',(#1502),#62,#1495);
#1504=OVER_RIDING_STYLED_ITEM('',(#1502),#95,#1495);
#1505=OVER_RIDING_STYLED_ITEM('',(#1502),#128,#1495);
#1506=OVER_RIDING_STYLED_ITEM('',(#1502),#161,#1495);
#1507=OVER_RIDING_STYLED_ITEM('',(#1502),#194,#1495);
#1508=OVER_RIDING_STYLED_ITEM('',(#1502),#234,#1495);
#1509=OVER_RIDING_STYLED_ITEM('',(#1502),#265,#1495);
#1510=OVER_RIDING_STYLED_ITEM('',(#1502),#296,#1495);
#1511=OVER_RIDING_STYLED_ITEM('',(#1502),#318,#1495);
#1512=OVER_RIDING_STYLED_ITEM('',(#1502),#330,#1495);
#1513=OVER_RIDING_STYLED_ITEM('',(#1502),#417,#1495);
#1514=OVER_RIDING_STYLED_ITEM('',(#1502),#442,#1495);
#1515=OVER_RIDING_STYLED_ITEM('',(#1502),#467,#1495);
#1516=OVER_RIDING_STYLED_ITEM('',(#1502),#492,#1495);
#1517=OVER_RIDING_STYLED_ITEM('',(#1502),#517,#1495);
#1518=OVER_RIDING_STYLED_ITEM('',(#1502),#542,#1495);
#1519=OVER_RIDING_STYLED_ITEM('',(#1502),#551,#1495);
#1520=OVER_RIDING_STYLED_ITEM('',(#1502),#560,#1495);
#1521=OVER_RIDING_STYLED_ITEM('',(#1502),#569,#1495);
#1522=OVER_RIDING_STYLED_ITEM('',(#1502),#578,#1495);
#1523=OVER_RIDING_STYLED_ITEM('',(#1502),#587,#1495);
#1524=OVER_RIDING_STYLED_ITEM('',(#1502),#818,#1495);
#1525=OVER_RIDING_STYLED_ITEM('',(#1502),#849,#1495);
#1526=OVER_RIDING_STYLED_ITEM('',(#1502),#873,#1495);
#1527=OVER_RIDING_STYLED_ITEM('',(#1502),#897,#1495);
#1528=OVER_RIDING_STYLED_ITEM('',(#1502),#914,#1495);
#1529=OVER_RIDING_STYLED_ITEM('',(#1502),#945,#1495);
#1530=OVER_RIDING_STYLED_ITEM('',(#1502),#969,#1495);
#1531=OVER_RIDING_STYLED_ITEM('',(#1502),#993,#1495);
#1532=OVER_RIDING_STYLED_ITEM('',(#1502),#1010,#1495);
#1533=OVER_RIDING_STYLED_ITEM('',(#1502),#1041,#1495);
#1534=OVER_RIDING_STYLED_ITEM('',(#1502),#1065,#1495);
#1535=OVER_RIDING_STYLED_ITEM('',(#1502),#1089,#1495);
#1536=OVER_RIDING_STYLED_ITEM('',(#1502),#1106,#1495);
#1537=OVER_RIDING_STYLED_ITEM('',(#1502),#1137,#1495);
#1538=OVER_RIDING_STYLED_ITEM('',(#1502),#1161,#1495);
#1539=OVER_RIDING_STYLED_ITEM('',(#1502),#1185,#1495);
#1540=OVER_RIDING_STYLED_ITEM('',(#1502),#1202,#1495);
#1541=OVER_RIDING_STYLED_ITEM('',(#1502),#1233,#1495);
#1542=OVER_RIDING_STYLED_ITEM('',(#1502),#1257,#1495);
#1543=OVER_RIDING_STYLED_ITEM('',(#1502),#1281,#1495);
#1544=OVER_RIDING_STYLED_ITEM('',(#1502),#1298,#1495);
#1545=OVER_RIDING_STYLED_ITEM('',(#1502),#1329,#1495);
#1546=OVER_RIDING_STYLED_ITEM('',(#1502),#1353,#1495);
#1547=OVER_RIDING_STYLED_ITEM('',(#1502),#1377,#1495);
#1548=OVER_RIDING_STYLED_ITEM('',(#1502),#1394,#1495);
#1549=OVER_RIDING_STYLED_ITEM('',(#1502),#1406,#1495);
#1550=OVER_RIDING_STYLED_ITEM('',(#1502),#1418,#1495);
#1551=OVER_RIDING_STYLED_ITEM('',(#1502),#1430,#1495);
#1552=OVER_RIDING_STYLED_ITEM('',(#1502),#1453,#1495);
#1553=OVER_RIDING_STYLED_ITEM('',(#1502),#1465,#1495);
#1554=OVER_RIDING_STYLED_ITEM('',(#1502),#1477,#1495);
#1555=OVER_RIDING_STYLED_ITEM('',(#1502),#1494,#1495);
#1556=MANIFOLD_SOLID_BREP('S1',#1495);
#1557=ADVANCED_BREP_SHAPE_REPRESENTATION('',(#1556),#5);
#1558=SHAPE_REPRESENTATION_RELATIONSHIP('NONE', 'NONE', #28, #1557);
#1559=PRESENTATION_LAYER_ASSIGNMENT('Õº≤„000','',(#1556));
#1560=MECHANICAL_DESIGN_GEOMETRIC_PRESENTATION_REPRESENTATION('',(#1503,#1504,#1505,#1506,#1507,#1508,#1509,#1510,#1511,#1512,#1513,#1514,#1515,#1516,#1517,#1518,#1519,#1520,#1521,#1522,#1523,#1524,#1525,#1526,#1527,#1528,#1529,#1530,#1531,#1532,#1533,#1534,#1535,#1536,#1537,#1538,#1539,#1540,#1541,#1542,#1543,#1544,#1545,#1546,#1547,#1548,#1549,#1550,#1551,#1552,#1553,#1554,#1555),#5);
ENDSEC;
END-ISO-10303-21;
